<?xml version="1.0" encoding="UTF-8"?>
<svg version="1.1" xmlns="http://www.w3.org/2000/svg" width="459" height="558">
<path d="M0 0 C151.47 0 302.94 0 459 0 C459 184.14 459 368.28 459 558 C307.53 558 156.06 558 0 558 C0 373.86 0 189.72 0 0 Z " fill="#FEFEFE" transform="translate(0,0)"/>
<path d="M0 0 C1.42099503 0.00223572 1.42099503 0.00223572 2.87069702 0.0045166 C26.68633522 0.07191959 47.92710149 2.53934762 69.875 12.3125 C71.07125 12.76625 72.2675 13.22 73.5 13.6875 C76.77126259 15.9257323 77.10104348 18.61193687 77.875 22.3125 C78.31063028 25.13759996 78.60450648 27.96730887 78.875 30.8125 C79.01874772 32.26062521 79.16467003 33.70853582 79.3125 35.15625 C79.39387207 35.95442139 79.47524414 36.75259277 79.55908203 37.57495117 C79.93080066 40.79603383 80.40419629 43.99780748 80.8671875 47.20703125 C82.08863344 56.28176271 82.58348237 65.35740571 83 74.5 C83.06154266 75.82286514 83.06154266 75.82286514 83.12432861 77.17245483 C85.58310003 131.03404768 85.58310003 131.03404768 80.671875 149.29052734 C79.64739317 153.17564871 78.71774473 157.0811844 77.78125 160.98828125 C77.00401264 164.20150453 76.22216147 167.41358195 75.4375 170.625 C75.25067657 171.38981689 75.06385315 172.15463379 74.87136841 172.94262695 C72.935119 180.81159534 70.87757334 188.57060796 68.234375 196.234375 C66.1884784 202.19440214 64.67633903 208.05396904 63.5625 214.25 C63.39427734 215.13623047 63.22605469 216.02246094 63.05273438 216.93554688 C62.65091114 219.05946967 62.26148856 221.18573332 61.875 223.3125 C58.575 223.3125 55.275 223.3125 51.875 223.3125 C52.49424194 216.95409826 53.49474034 210.80999492 54.8125 204.5625 C56.2181262 197.74174613 57.43991099 190.93457096 58.453125 184.04296875 C60.51637982 170.68912504 64.74533682 157.64055285 68.5 144.6875 C68.80123779 143.64392334 69.10247559 142.60034668 69.4128418 141.52514648 C69.84657104 140.03930054 69.84657104 140.03930054 70.2890625 138.5234375 C70.67505615 137.19771729 70.67505615 137.19771729 71.06884766 135.84521484 C71.875 133.3125 71.875 133.3125 72.94677734 130.68212891 C74.1378469 127.64148686 74.36698648 125.54555398 73.875 122.3125 C66.96205269 115.87630768 53.65580443 115.58654277 44.75 114.6875 C43.57526123 114.56270264 42.40052246 114.43790527 41.19018555 114.30932617 C32.09680783 113.3698787 23.00848141 112.68608387 13.875 112.3125 C13.875 111.6525 13.875 110.9925 13.875 110.3125 C-2.57867251 110.50428316 -18.85634409 111.09666337 -35.1875 113.1875 C-36.46173828 113.34895508 -37.73597656 113.51041016 -39.04882812 113.67675781 C-57.11779282 115.62669968 -57.11779282 115.62669968 -73.125 123.3125 C-72.02393667 131.21714865 -69.88330423 138.43281023 -67.24609375 145.9296875 C-66.31550716 148.73765958 -65.61740134 151.40235273 -65.125 154.3125 C-64.135 154.6425 -63.145 154.9725 -62.125 155.3125 C-62.00382812 156.31410156 -61.88265625 157.31570312 -61.7578125 158.34765625 C-61.58882849 159.6901403 -61.41954142 161.03258623 -61.25 162.375 C-61.17136719 163.03177734 -61.09273437 163.68855469 -61.01171875 164.36523438 C-60.60128146 167.56980245 -60.07385376 170.48435138 -59.1484375 173.59375 C-57.77199899 178.59516017 -57.22708572 183.60580606 -56.625 188.75 C-55.7305711 196.70726883 -55.7305711 196.70726883 -54.1015625 204.53515625 C-53.07685484 208.49872547 -52.50754984 212.2521013 -52 216.3125 C-51.91363281 216.99183594 -51.82726562 217.67117188 -51.73828125 218.37109375 C-51.52955775 220.01769024 -51.32664449 221.66502162 -51.125 223.3125 C-54.755 223.3125 -58.385 223.3125 -62.125 223.3125 C-62.30039307 222.32258057 -62.47578613 221.33266113 -62.65649414 220.31274414 C-66.06465618 201.19263174 -69.75323371 182.42318319 -75.37451172 163.81005859 C-80.67872738 146.15809821 -83.6480978 129.68951526 -83.4375 111.3125 C-83.4274734 109.57853247 -83.41754613 107.84456436 -83.40771484 106.1105957 C-83.30610308 94.06981309 -82.66179151 82.16101111 -81.40722656 70.18310547 C-80.98954085 65.93470701 -80.68264923 61.67967 -80.37109375 57.42236328 C-80.05290695 53.07822961 -79.7105795 48.73616879 -79.36621094 44.39404297 C-79.20818587 42.37522469 -79.0550098 40.35601963 -78.90722656 38.33642578 C-78.70456384 35.5976772 -78.48018701 32.86155355 -78.25 30.125 C-78.19585937 29.3299707 -78.14171875 28.53494141 -78.0859375 27.71582031 C-77.59898583 22.30082408 -76.27192769 18.78326892 -73.125 14.3125 C-65.94437661 8.50568424 -54.90919951 6.6512701 -46.125 4.3125 C-45.2896875 4.085625 -44.454375 3.85875 -43.59375 3.625 C-29.30293048 0.10725981 -14.62078476 -0.05682624 0 0 Z " fill="#DFDFDF" transform="translate(225.125,63.6875)"/>
<path d="M0 0 C94.67857143 -2.16071429 94.67857143 -2.16071429 123 12 C123.02313836 21.74423914 123.04092273 31.48847178 123.05181217 41.23273277 C123.05703772 45.75705305 123.06412944 50.28135458 123.07543945 54.80566406 C123.08627995 59.16930959 123.09227932 63.53293705 123.09487724 67.896595 C123.09672939 69.56401479 123.10034599 71.23143355 123.10573006 72.89884567 C123.11295589 75.22864697 123.11399029 77.55837295 123.11352539 79.88818359 C123.11712067 80.58229843 123.12071594 81.27641327 123.12442017 81.99156189 C123.11405216 86.77189568 123.11405216 86.77189568 122 89 C120.84886719 88.99097656 119.69773437 88.98195313 118.51171875 88.97265625 C105.75867316 89.11473262 95.63426821 91.96133182 84 97 C82.75331543 97.5266626 82.75331543 97.5266626 81.48144531 98.06396484 C77.52392172 99.73795008 73.57829932 101.43876757 69.66015625 103.203125 C69.04793213 103.47801758 68.43570801 103.75291016 67.80493164 104.03613281 C65.91286479 104.98215058 65.91286479 104.98215058 64.07836914 106.48461914 C61.81164539 108.13733315 59.70692723 109.05342159 57.0859375 110.04296875 C56.16039062 110.39423828 55.23484375 110.74550781 54.28125 111.10742188 C53.3221875 111.46384766 52.363125 111.82027344 51.375 112.1875 C50.40820312 112.55552734 49.44140625 112.92355469 48.4453125 113.30273438 C41.27929325 116 41.27929325 116 39 116 C38.97421875 115.20078125 38.9484375 114.4015625 38.921875 113.578125 C38.38875196 103.25492429 37.47195971 93.65203559 29.5 86.375 C26.79503384 84.17953089 24.16580963 82.45339442 21 81 C21 79.68 21 78.36 21 77 C14.07 77 7.14 77 0 77 C0 51.59 0 26.18 0 0 Z " fill="#DDDDDD" transform="translate(29,291)"/>
<path d="M0 0 C10.84875 0.0825 21.6975 0.165 32.875 0.25 C32.875 25.33 32.875 50.41 32.875 76.25 C23.965 77.24 23.965 77.24 14.875 78.25 C6.06738884 83.32104885 -1.94160131 90.24918587 -5.125 100.25 C-5.40835716 102.67992135 -5.61303459 105.1199502 -5.75 107.5625 C-5.82476562 108.81675781 -5.89953125 110.07101562 -5.9765625 111.36328125 C-6.02554688 112.31589844 -6.07453125 113.26851563 -6.125 114.25 C-13.22413974 112.18877292 -20.22455626 109.91972676 -27.1875 107.4375 C-28.24026123 107.06367188 -29.29302246 106.68984375 -30.37768555 106.3046875 C-36.90881635 103.93264028 -43.30506731 101.36033498 -49.671875 98.58203125 C-50.39890121 98.26614548 -51.12592743 97.9502597 -51.87498474 97.62480164 C-55.46324349 96.06185894 -59.0398657 94.47782396 -62.60375977 92.86010742 C-70.41627853 89.38263944 -77.44680292 87.20912777 -86.125 87.25 C-89.66490621 70.4096695 -89.2515879 53.49493337 -89.1875 36.375 C-89.18247466 34.02994887 -89.17791358 31.6848967 -89.17382812 29.33984375 C-89.16290518 23.64320609 -89.14624917 17.94660802 -89.125 12.25 C-81.91796875 10.6484375 -74.7109375 9.046875 -67.50390625 7.4453125 C-66.7241745 7.27143005 -65.94444275 7.09754761 -65.14108276 6.918396 C-63.52893087 6.5613878 -61.91570909 6.20918256 -60.30154419 5.86138916 C-56.54485834 5.04634165 -52.83447512 4.19255566 -49.14794922 3.10058594 C-33.2144485 -1.4044407 -16.39159588 -0.17627888 0 0 Z " fill="#DEDEDE" transform="translate(388.125,290.75)"/>
<path d="M0 0 C40.26 0 80.52 0 122 0 C122 28.05 122 56.1 122 85 C82.07 85 42.14 85 1 85 C0.67 56.95 0.34 28.9 0 0 Z " fill="#DFDFDF" transform="translate(164,290)"/>
<path d="M0 0 C1.45868128 0.77382907 2.89569403 1.58942964 4.3125 2.4375 C11.41855431 5.97498425 11.41855431 5.97498425 26 7 C26 43.63 26 80.26 26 118 C15.831875 117.938125 5.66375 117.87625 -4.8125 117.8125 C-34.13247538 117.94571142 -60.75919119 121.33752488 -89.17041016 129.00610352 C-93 130 -93 130 -95 130 C-94.61231753 101.76966757 -85.79561824 74.4785354 -74 49 C-73.01 49 -72.02 49 -71 49 C-70.96132813 47.81148437 -70.92265625 46.62296875 -70.8828125 45.3984375 C-70.16134394 38.97058002 -67.43624447 33.34527027 -64.75488281 27.53515625 C-63.88295325 25.64226588 -63.03390752 23.74035441 -62.1875 21.8359375 C-58.72340862 14.14836833 -54.75684541 6.97946837 -50 0 C-47.80295987 2.88459072 -45.89960104 5.73532831 -44.1875 8.9375 C-43.72730469 9.77152344 -43.26710938 10.60554687 -42.79296875 11.46484375 C-42 14 -42 14 -42.58203125 16.3828125 C-44.7217566 20.33216782 -47.20461394 24.02752982 -49.72265625 27.74023438 C-52.1406191 31.39111888 -53.80221676 34.73615206 -55 39 C-55.99 39 -56.98 39 -58 39 C-59.53536383 42.82769774 -61.05948989 46.65947267 -62.5625 50.5 C-62.99691406 51.6034375 -63.43132812 52.706875 -63.87890625 53.84375 C-64.85053165 56.57919712 -65.52565802 59.14328877 -66 62 C-66.99 62 -67.98 62 -69 62 C-69.17015625 62.70382813 -69.3403125 63.40765625 -69.515625 64.1328125 C-71.2106125 71.03898499 -73.09157556 77.86374633 -75.1328125 84.67578125 C-76.02820443 88.10811698 -76.56308564 91.48239355 -77 95 C-77.99 95 -78.98 95 -80 95 C-80.1546875 96.9490625 -80.1546875 96.9490625 -80.3125 98.9375 C-80.76703668 103.14690488 -81.8676922 106.75112915 -83.30078125 110.71484375 C-84.44019087 114.43861262 -84.69257385 118.12643045 -85 122 C-73.54261923 120.99313927 -63.12768432 118.16880856 -52.1953125 114.6953125 C-43.68539326 112 -43.68539326 112 -39 112 C-39 80.32 -39 48.64 -39 16 C-5.1558958 -1.81268642 -5.1558958 -1.81268642 0 0 Z " fill="#DEDEDE" transform="translate(395,170)"/>
<path d="M0 0 C2.84843137 1.42421569 2.98863651 3.11033891 4.125 6.0625 C6.17534425 11.15509546 8.45379289 16.04821564 10.9375 20.9375 C21.7347491 42.33610089 21.7347491 42.33610089 23 52 C23.66 52 24.32 52 25 52 C25.23219238 52.65266846 25.46438477 53.30533691 25.70361328 53.9777832 C27.50603741 58.99501845 29.36916586 63.97510787 31.3671875 68.91796875 C36.83682592 82.52886634 41.15151818 95.98231158 44.35107422 110.29638672 C45.02585802 113.10773204 45.83685563 115.8577851 46.66015625 118.62890625 C48.05169566 123.5837853 48.25223368 127.87124844 48 133 C44.1030681 132.29763777 40.20772299 131.58677334 36.3125 130.875 C34.74532227 130.59269531 34.74532227 130.59269531 33.14648438 130.3046875 C32.02177734 130.0984375 30.89707031 129.8921875 29.73828125 129.6796875 C29.11464188 129.56793182 28.4910025 129.45617615 27.84846497 129.34103394 C23.46581373 128.5321596 19.1441195 127.56450798 14.81323242 126.51220703 C-4.85663585 121.86888432 -23.13595412 121.10991999 -43.3125 121.125 C-53.769375 121.08375 -64.22625 121.0425 -75 121 C-75 84.37 -75 47.74 -75 10 C-68.73 9.01 -62.46 8.02 -56 7 C-54.02 6.34 -52.04 5.68 -50 5 C-46.25 6.0546875 -46.25 6.0546875 -42 7.875 C-31.45520449 12.22472815 -20.71994339 16.10183877 -10 20 C-9.67 51.35 -9.34 82.7 -9 115 C-0.75 116.65 7.5 118.3 16 120 C19.63 120.99 23.26 121.98 27 123 C29.9922974 123.39656953 32.99162743 123.75341208 36 124 C30.88127073 99.20087541 24.56509805 76.70028827 14.13818359 53.53027344 C13.17152737 51.3813191 12.21742126 49.22757942 11.26953125 47.0703125 C6.56548385 36.55241562 1.70453281 26.73702761 -7 19 C-6.02241999 16.20776841 -5.04301077 13.41620228 -4.0625 10.625 C-3.78470703 9.8309375 -3.50691406 9.036875 -3.22070312 8.21875 C-2.95322266 7.45820313 -2.68574219 6.69765625 -2.41015625 5.9140625 C-2.16402588 5.2123291 -1.91789551 4.5105957 -1.66430664 3.78759766 C-1 2 -1 2 0 0 Z " fill="#DDDDDD" transform="translate(104,167)"/>
<path d="M0 0 C2.97 0 5.94 0 9 0 C9.12582934 5.82126244 8.72406449 11.31477729 7.8125 17.0625 C7.61720703 18.29770386 7.61720703 18.29770386 7.41796875 19.55786133 C5.81047326 29.01559757 2.69015 37.71067274 -0.8125 46.625 C-2.46744748 50.78143875 -2.46744748 50.78143875 -2 55 C12.26483262 68.61458384 43.58798457 65.40879611 61.6875 65.375 C62.73739105 65.37478851 63.7872821 65.37457703 64.86898804 65.37435913 C93.10849496 65.3922547 93.10849496 65.3922547 119.7565918 57.01245117 C122 56 122 56 124 56 C124.33 54.02 124.66 52.04 125 50 C124.01 49.67 123.02 49.34 122 49 C121.87044922 48.195625 121.87044922 48.195625 121.73828125 47.375 C120.75465447 41.88834785 119.29934803 36.66589421 117.5625 31.375 C114.2563986 21.17814641 111.73630778 10.78362404 112 0 C114.97 0 117.94 0 121 0 C121.15650024 0.96933472 121.15650024 0.96933472 121.31616211 1.95825195 C123.4673532 14.92575481 126.1614692 27.42987571 130.4375 39.875 C130.82470215 41.00268799 131.2119043 42.13037598 131.61083984 43.29223633 C133.05907599 47.47302219 134.52399844 51.64781857 135.99316406 55.82128906 C140.28469811 68.19528808 141.80014501 78.9013299 141 92 C115.68348801 105.95285036 88.00202026 107.22407116 59.6875 107.375 C58.38060211 107.38284012 58.38060211 107.38284012 57.04730225 107.39083862 C38.3194567 107.44207265 16.93805697 106.97935232 -1 101 C-1 100.01 -1 99.02 -1 98 C-1.94875 98.0825 -2.8975 98.165 -3.875 98.25 C-8.9704768 98.2708404 -13.50084172 96.25369171 -18 94 C-20.88622187 91.11377813 -20.35876827 89.01568388 -20.41796875 84.9765625 C-20.40753114 75.60704906 -18.05731164 67.26333164 -15.3125 58.375 C-14.87115475 56.8807659 -14.4316962 55.38597322 -13.99414062 53.890625 C-10.87822146 43.35241494 -7.3860231 32.96051937 -3.3125 22.75 C-0.88462784 15.53535716 -0.69094858 7.53540397 0 0 Z " fill="#DFDFDF" transform="translate(165,378)"/>
<path d="M0 0 C4.11724626 -0.53152974 8.16184414 -0.98833635 11.91796875 1.03125 C14.08669206 2.90793772 16.02629658 4.91682526 18 7 C19.8274352 8.84125927 21.6648233 10.67232183 23.50170898 12.50415039 C24.83390499 13.83471879 26.1628517 15.1685484 27.48852539 16.50561523 C31.34198421 20.3871838 35.2433906 24.13264288 39.44140625 27.64453125 C41 29 41 29 43.5625 31.8125 C46.37817284 34.66045088 46.37817284 34.66045088 53 36 C53 30.06 53 24.12 53 18 C56.35680551 18.94410155 59.67317017 19.95738108 63 21 C63.96389648 21.27408691 63.96389648 21.27408691 64.94726562 21.55371094 C77.4686774 25.15406022 77.4686774 25.15406022 81.1484375 29.58984375 C82.57848344 32.34778949 83.78688734 35.14170716 85 38 C90.04136053 45.70365204 97.14436903 49.08127996 106 51 C108.07593594 51.20688196 110.15445938 51.3887282 112.234375 51.55078125 C113.85424316 51.67900269 113.85424316 51.67900269 115.50683594 51.80981445 C116.74095215 51.9039563 116.74095215 51.9039563 118 52 C118.19806477 57.60485219 118.34306251 63.20766136 118.43945312 68.81518555 C118.47963662 70.72147097 118.53419687 72.62751055 118.60351562 74.53295898 C118.70080921 77.27649491 118.74597204 80.01677022 118.78125 82.76171875 C118.82254028 83.61086349 118.86383057 84.46000824 118.90637207 85.33488464 C118.90823363 87.80090243 118.82817549 89.67366878 118 92 C116.07782765 93.70764062 114.23179099 94.79557838 111.91784668 95.907547 C109.00104813 97.56902774 108.13628896 99.94622343 107 103 C103.56265937 103.08703823 100.12560163 103.14040272 96.6875 103.1875 C95.71103516 103.21263672 94.73457031 103.23777344 93.72851562 103.26367188 C92.79072266 103.27333984 91.85292969 103.28300781 90.88671875 103.29296875 C89.59060669 103.31653442 89.59060669 103.31653442 88.26831055 103.34057617 C86 103 86 103 84.67602539 101.50268555 C81.96668442 99.07355318 78.75545856 99.61991057 75.296875 99.6640625 C73.74348546 99.65154351 72.19010002 99.6385061 70.63671875 99.625 C68.19662751 99.62108096 65.75694621 99.62495818 63.31689453 99.63964844 C60.95544352 99.64827212 58.59567795 99.62644303 56.234375 99.6015625 C55.15431183 99.62157822 55.15431183 99.62157822 54.0524292 99.64199829 C48.50943045 99.56204575 45.03281012 97.79045616 41 94 C38.671875 90.84375 38.671875 90.84375 36.75 87.5 C36.10546875 86.3965625 35.4609375 85.293125 34.796875 84.15625 C34.20390625 83.1146875 33.6109375 82.073125 33 81 C32.43796875 80.08734375 31.8759375 79.1746875 31.296875 78.234375 C30 76 30 76 29.5 73.75 C29.2525 72.88375 29.2525 72.88375 29 72 C27.515 71.505 27.515 71.505 26 71 C24.92504883 69.48120117 24.92504883 69.48120117 23.95703125 67.54296875 C23.60576172 66.84236328 23.25449219 66.14175781 22.89257812 65.41992188 C22.53615234 64.68322266 22.17972656 63.94652344 21.8125 63.1875 C21.44447266 62.46240234 21.07644531 61.73730469 20.69726562 60.99023438 C18.8451395 57.23443873 18 55.32708051 18 51 C17.01 51 16.02 51 15 51 C-0.32576985 16.61426256 -0.32576985 16.61426256 0 0 Z " fill="#DEDEDE" transform="translate(303,381)"/>
<path d="M0 0 C0.69287109 0.01804687 1.38574219 0.03609375 2.09960938 0.0546875 C3.79617664 0.10148936 5.49202476 0.17322376 7.1875 0.25 C3.73394369 15.5269079 -1.37990642 29.46654614 -7.9375 43.6875 C-8.35725098 44.61844482 -8.77700195 45.54938965 -9.20947266 46.50854492 C-9.6172998 47.37068604 -10.02512695 48.23282715 -10.4453125 49.12109375 C-10.80512207 49.89380615 -11.16493164 50.66651855 -11.53564453 51.46264648 C-12.8125 53.25 -12.8125 53.25 -14.96044922 54.00805664 C-15.57162598 54.08789795 -16.18280273 54.16773926 -16.8125 54.25 C-16.98265625 55.5803125 -16.98265625 55.5803125 -17.15625 56.9375 C-18.96319035 66.05824654 -25.65945536 74.29364981 -30.703125 82 C-32.40232881 84.61803254 -34.02845012 87.25687304 -35.625 89.9375 C-38.79841549 94.74295775 -38.79841549 94.74295775 -41.8125 96.25 C-46.4648981 97.05371534 -50.98303579 97.38908567 -55.69921875 97.4609375 C-56.96701172 97.48929687 -58.23480469 97.51765625 -59.54101562 97.546875 C-62.19191082 97.5991867 -64.84297783 97.64338796 -67.49414062 97.6796875 C-69.3900293 97.72609375 -69.3900293 97.72609375 -71.32421875 97.7734375 C-73.04838013 97.8031665 -73.04838013 97.8031665 -74.80737305 97.83349609 C-78.13228242 98.29432113 -79.24580673 99.21007075 -81.8125 101.25 C-85.26664395 101.95137691 -88.73196456 101.89673204 -92.25 101.9375 C-93.66249023 102.01774414 -93.66249023 102.01774414 -95.10351562 102.09960938 C-97.8929867 102.1370123 -100.13996106 102.06194658 -102.8125 101.25 C-104.53155155 99.35372664 -105.50233609 97.61805741 -106.50415039 95.26879883 C-108.06193213 92.49107991 -108.06193213 92.49107991 -113.8125 90.25 C-113.8125 77.05 -113.8125 63.85 -113.8125 50.25 C-108.2025 49.59 -102.5925 48.93 -96.8125 48.25 C-89.48959872 45.21367508 -83.44062729 40.50625457 -79.8125 33.25 C-78.4925 33.25 -77.1725 33.25 -75.8125 33.25 C-75.8125 31.6 -75.8125 29.95 -75.8125 28.25 C-70.23734462 25.70694667 -64.61341531 23.30761667 -58.9375 21 C-58.28322021 20.72978027 -57.62894043 20.45956055 -56.95483398 20.18115234 C-54.07614203 19.0213218 -51.9474499 18.25 -48.8125 18.25 C-48.8125 23.53 -48.8125 28.81 -48.8125 34.25 C-42.03080692 33.08710686 -38.74939842 31.02423639 -34.08203125 26.0703125 C-33.48371994 25.46113983 -32.88540863 24.85196716 -32.26896667 24.22433472 C-30.3728794 22.28831564 -28.49857822 20.33278669 -26.625 18.375 C-24.73650951 16.42887329 -22.84374792 14.48702307 -20.94889832 12.54708862 C-19.77553911 11.34289985 -18.60658809 10.1343945 -17.44282532 8.92092896 C-11.90224515 3.17877347 -8.37150041 -0.41657227 0 0 Z " fill="#DDDDDD" transform="translate(142.8125,382.75)"/>
<path d="M0 0 C1.84010902 -0.01691895 1.84010902 -0.01691895 3.71739197 -0.03417969 C5.0739312 -0.02640269 6.43046809 -0.01821003 7.78700256 -0.00964355 C9.21789258 -0.01506467 10.64877702 -0.02218728 12.07965088 -0.03088379 C15.9640625 -0.04912333 19.84804929 -0.04204683 23.73246837 -0.02936745 C27.79806715 -0.01924098 31.86362953 -0.02863232 35.92922974 -0.03491211 C42.75786367 -0.04219039 49.58632459 -0.03259701 56.41493225 -0.0135498 C64.3073667 0.00821068 72.19938768 0.00117447 80.09181207 -0.02085543 C86.86902081 -0.03901475 93.64610516 -0.04156492 100.42333037 -0.03110075 C104.47059215 -0.02486758 108.51765971 -0.02402503 112.56490898 -0.0372467 C116.37111163 -0.04881214 120.17678209 -0.04076743 123.98292732 -0.01766968 C125.37890871 -0.01238582 126.77493497 -0.01389093 128.17089844 -0.02272034 C130.07818998 -0.03367047 131.98557953 -0.01749599 133.89282227 0 C135.49309721 0.00226215 135.49309721 0.00226215 137.12570095 0.00457001 C140.74844103 0.63682772 142.43369419 1.92349464 145.00990295 4.50793457 C145.59339905 7.59240723 145.59339905 7.59240723 145.53334045 11.17199707 C145.51593811 13.10172363 145.51593811 13.10172363 145.4981842 15.07043457 C145.460532 16.42460425 145.42277034 17.77877089 145.38490295 19.13293457 C145.36838853 20.49488893 145.35404233 21.85687141 145.3419342 23.21887207 C145.19247768 33.14278511 145.19247768 33.14278511 144.00990295 35.50793457 C141.30474522 36.40965381 139.70612383 36.64126283 136.92536926 36.66615295 C135.67849586 36.68083618 135.67849586 36.68083618 134.40643311 36.69581604 C133.49666214 36.7015715 132.58689117 36.70732697 131.64955139 36.71325684 C130.68763382 36.72315643 129.72571625 36.73305603 128.73464966 36.74325562 C125.52955105 36.77500345 122.32443881 36.79974123 119.11927795 36.82434082 C116.86286583 36.84495954 114.60645714 36.86595711 112.35005188 36.88731384 C107.5884149 36.93138307 102.82676495 36.97224327 98.06507874 37.01062012 C90.91511836 37.06829935 83.76525169 37.13450035 76.6153717 37.20129395 C66.29963599 37.29722808 55.98391015 37.36926089 45.66791534 37.43053627 C39.44074053 37.47147811 33.21550212 37.54653357 26.98923874 37.66039753 C23.34427569 37.72442519 19.69922589 37.76973205 16.05394745 37.81150627 C14.39236948 37.83534284 12.73089029 37.86800203 11.06967926 37.91028023 C-2.85422374 38.260466 -2.85422374 38.260466 -7.47080994 35.39123535 C-10.44934169 31.98233332 -10.85905346 30.51516001 -10.8143158 26.03527832 C-10.80980408 24.80615723 -10.80529236 23.57703613 -10.80064392 22.31066895 C-10.76003845 21.0351416 -10.71943298 19.75961426 -10.67759705 18.44543457 C-10.67953064 17.16604004 -10.68146423 15.88664551 -10.68345642 14.56848145 C-10.5411747 5.22204452 -10.5411747 5.22204452 -8.32915401 2.35561371 C-5.3544975 0.00585872 -3.76347654 0.00532194 0 0 Z " fill="#DDDEDE" transform="translate(158.99009704589844,19.4920654296875)"/>
<path d="M0 0 C1.37354721 -0.00350281 2.74709036 -0.00916321 4.12062073 -0.01681519 C7.84388515 -0.03104899 11.56640981 -0.01401713 15.28960347 0.00946999 C19.1874864 0.02959196 23.08533901 0.0236988 26.98326111 0.0213623 C33.5277017 0.02141586 40.07185338 0.04116167 46.61621094 0.07324219 C54.18202355 0.11014963 61.74745795 0.11891546 69.31334883 0.11194468 C76.59361443 0.10563973 83.87375036 0.11639277 91.15398979 0.13591003 C94.25159999 0.14408391 97.34914391 0.14679362 100.44676399 0.1452179 C104.09370117 0.14433899 107.74027887 0.15855618 111.3871212 0.18444443 C113.36390791 0.19502319 115.34075603 0.19093371 117.31756592 0.18643188 C118.49382034 0.19778168 119.67007477 0.20913147 120.88197327 0.2208252 C121.90420014 0.22455391 122.92642702 0.22828262 123.97963047 0.23212433 C127.04636176 0.67304251 128.41757918 1.49556317 130.64428711 3.61523438 C132.28985313 8.28651858 131.94096977 13.70260101 132.01928711 18.61523438 C132.07536133 19.94941406 132.07536133 19.94941406 132.13256836 21.31054688 C132.14416992 22.17421875 132.15577148 23.03789063 132.16772461 23.92773438 C132.18754395 24.70761719 132.20736328 25.4875 132.2277832 26.29101562 C131.55857485 28.95664891 130.55499257 30.64358158 128.56074142 32.54174614 C124.02582623 35.08194659 118.24086662 34.29190797 113.19677734 34.24633789 C111.81337568 34.25147865 110.42998057 34.25876112 109.04660034 34.26802063 C105.29650031 34.28652185 101.54711199 34.27360558 97.79704165 34.25393033 C93.87112025 34.23753486 89.9452436 34.24635781 86.01930237 34.25144958 C79.42779174 34.25596903 72.83656503 34.24010886 66.24511719 34.2121582 C58.62471456 34.18009348 51.00482359 34.18012752 43.38438457 34.19737297 C36.05177993 34.21323562 28.71936287 34.20650713 21.38676643 34.18943596 C18.26679554 34.18256381 15.14697493 34.18359947 12.02700615 34.19098091 C8.3537283 34.19864134 4.68103296 34.18652655 1.00785446 34.159132 C-0.98325026 34.14895931 -2.97442492 34.1584327 -4.9655304 34.16845703 C-6.15019897 34.15573257 -7.33486755 34.14300812 -8.55543518 34.12989807 C-9.5850364 34.12709115 -10.61463762 34.12428423 -11.67543888 34.12139225 C-15.06411677 33.48145544 -16.25173182 32.29611229 -18.35571289 29.61523438 C-19.17109258 25.67491667 -18.95862762 21.69305661 -18.91821289 17.67773438 C-18.94206055 16.59298828 -18.9659082 15.50824219 -18.99047852 14.390625 C-18.98854492 13.34197266 -18.98661133 12.29332031 -18.98461914 11.21289062 C-18.98534424 10.25906494 -18.98606934 9.30523926 -18.98681641 8.32250977 C-18.31477642 5.43962721 -17.42432808 3.71546169 -15.26489353 1.67427731 C-10.74601282 -0.83239418 -5.01629982 -0.05178253 0 0 Z " fill="#DEDEDE" transform="translate(170.355712890625,496.384765625)"/>
<path d="M0 0 C7.59 0 15.18 0 23 0 C23.33 2.31 23.66 4.62 24 7 C25.28583984 6.94779297 25.28583984 6.94779297 26.59765625 6.89453125 C39.15367837 6.59726353 39.15367837 6.59726353 44 10 C47.95543491 15.76884969 48.71436318 22.15899822 49 29 C49.99 29 50.98 29 52 29 C60.18127084 61.92134149 60.18127084 61.92134149 60 72 C60.99 72 61.98 72 63 72 C63.48476109 74.45734238 63.96285934 76.91569908 64.4375 79.375 C64.57220703 80.05433594 64.70691406 80.73367187 64.84570312 81.43359375 C65.26415456 83.61770614 65.63577764 85.80622284 66 88 C66.15154541 88.79100098 66.30309082 89.58200195 66.45922852 90.39697266 C67.54611482 97.40135105 65.92214694 102.24396965 63.0625 108.625 C62.67642578 109.53378906 62.29035156 110.44257813 61.89257812 111.37890625 C60.94773537 113.59520407 59.98373596 115.8007595 59 118 C54.51287035 117.26170842 50.33965965 115.80624392 46.07421875 114.27734375 C45.32662796 114.01240616 44.57903717 113.74746857 43.80879211 113.47450256 C41.433877 112.63203514 39.0606801 111.78484098 36.6875 110.9375 C35.07237693 110.36361894 33.4571437 109.79004781 31.84179688 109.21679688 C27.89324655 107.81478382 23.9462298 106.4085307 20 105 C21.3303938 102.30562013 22.69924655 99.74761979 24.375 97.25 C24.77460937 96.63640625 25.17421875 96.0228125 25.5859375 95.390625 C27 94 27 94 31 94 C31.08847317 90.54183314 31.14087725 87.08396421 31.1875 83.625 C31.21263672 82.65949219 31.23777344 81.69398438 31.26367188 80.69921875 C31.36021719 71.10905114 29.92191481 62.83739859 23.046875 55.8203125 C13.45427621 47.28948991 7.13390819 47.57043424 -7 46 C-7 32.14 -7 18.28 -7 4 C-4.69 4 -2.38 4 0 4 C0 2.68 0 1.36 0 0 Z " fill="#DDDDDD" transform="translate(36,66)"/>
<path d="M0 0 C7.59 0 15.18 0 23 0 C23 1.65 23 3.3 23 5 C25.31 5 27.62 5 30 5 C30 18.2 30 31.4 30 45 C20.71727749 47.06282723 20.71727749 47.06282723 16.0625 47.75 C7.24922473 49.51813765 0.00350773 54.58556115 -5 62 C-9.52689066 69.24302506 -9.07986427 78.53807782 -7.4609375 86.7265625 C-5.95427679 91.54456543 -3.5295344 95.65170946 -1 100 C-12.4617993 106.20597095 -23.96543024 111.98697922 -36 117 C-37.31281572 114.5418348 -38.62526612 112.08347578 -39.9375 109.625 C-40.31068359 108.92632812 -40.68386719 108.22765625 -41.06835938 107.5078125 C-47.76033083 94.96790202 -42.58819643 81.50958202 -38.71630859 68.44970703 C-37.44051114 64.0866015 -36.25498916 59.69896207 -35.0625 55.3125 C-34.81290527 54.40129395 -34.56331055 53.49008789 -34.30615234 52.55126953 C-32.97102671 47.65751729 -31.67446707 42.756399 -30.42578125 37.83984375 C-30.16595459 36.82172607 -29.90612793 35.8036084 -29.63842773 34.75463867 C-29.1462387 32.8175199 -28.65964343 30.87896702 -28.17993164 28.9387207 C-24.06153614 12.74437673 -24.06153614 12.74437673 -19.5625 8.9375 C-15.0669813 7.29279804 -10.96016124 6.87999806 -6.1875 6.9375 C-5.21167969 6.94652344 -4.23585938 6.95554687 -3.23046875 6.96484375 C-2.12638672 6.98224609 -2.12638672 6.98224609 -1 7 C-0.67 4.69 -0.34 2.38 0 0 Z " fill="#DEDEDE" transform="translate(391,66)"/>
<path d="M0 0 C0 28.05 0 56.1 0 85 C-7.83168317 83.88118812 -7.83168317 83.88118812 -11.875 82.125 C-16.55171825 80.11163316 -21.09060328 78.63646557 -26 77 C-32.93 73.7 -39.86 70.4 -47 67 C-47 47.53 -47 28.06 -47 8 C-41.4725 6.68 -35.945 5.36 -30.25 4 C-27.67300293 3.37351562 -27.67300293 3.37351562 -25.04394531 2.734375 C-23.63891852 2.40519548 -22.23365866 2.07700855 -20.828125 1.75 C-20.13380371 1.57726562 -19.43948242 1.40453125 -18.72412109 1.2265625 C-12.13641184 -0.28227888 -7.19663371 0 0 0 Z " fill="#FDFDFD" transform="translate(357,298)"/>
<path d="M0 0 C3.63 0 7.26 0 11 0 C11 0.99 11 1.98 11 3 C12.8871875 3.14695312 12.8871875 3.14695312 14.8125 3.296875 C16.54172543 3.44724243 18.2708889 3.59832359 20 3.75 C20.81984375 3.811875 21.6396875 3.87375 22.484375 3.9375 C31.12906153 4.72338059 38.25239969 6.81309992 47 9 C47 28.47 47 47.94 47 68 C43.04 69.65 39.08 71.3 35 73 C32.20390927 74.19972369 29.41165826 75.40407062 26.625 76.625 C25.96628906 76.91117187 25.30757812 77.19734375 24.62890625 77.4921875 C21.63118266 78.80331909 18.69652744 80.15412728 15.77734375 81.63671875 C13.45522048 82.77655141 11.43640563 83.5871469 8.9375 84.1875 C8.30714844 84.34605469 7.67679687 84.50460937 7.02734375 84.66796875 C5 85 5 85 0 85 C0 56.95 0 28.9 0 0 Z " fill="#FDFDFD" transform="translate(94,297)"/>
<path d="M0 0 C7.64661318 4.86467414 7.64661318 4.86467414 10.0078125 7.27734375 C10.0078125 8.26734375 10.0078125 9.25734375 10.0078125 10.27734375 C10.9978125 10.27734375 11.9878125 10.27734375 13.0078125 10.27734375 C16.76867706 19.05269439 17.7249859 28.96445023 15.19921875 38.25 C11.50656685 46.51694041 4.95785236 52.37597032 -3.3671875 55.77734375 C-10.72800689 58.09368551 -18.74482781 58.66700448 -25.953125 55.5078125 C-33.20257159 51.13314646 -40.59572888 44.62280016 -42.9921875 36.27734375 C-44.17315622 26.09547834 -43.69195167 15.82210818 -37.51953125 7.2265625 C-28.03561787 -3.24385724 -12.78338881 -6.82914877 0 0 Z " fill="#DEDEDE" transform="translate(428.9921875,373.72265625)"/>
<path d="M0 0 C2.78007675 2.0674939 4.91141001 4.24236308 7 7 C7.43183594 7.54914063 7.86367188 8.09828125 8.30859375 8.6640625 C12.49950809 15.2477134 11.72913514 23.53752503 11 31 C9.15650922 38.98500782 5.17375015 45.09063166 -1.52734375 49.76171875 C-10.3404138 54.83662754 -19.00406815 55.52947498 -28.89453125 53.3671875 C-36.1433795 50.89523003 -41.35145522 46.24216071 -45.3828125 39.78515625 C-49.24975102 31.65917705 -49.6511587 22.10517267 -46.89453125 13.58203125 C-43.08577108 5.36205288 -38.53006211 0.45180908 -30.375 -3.375 C-19.79551868 -7.17399556 -9.60336289 -5.57614619 0 0 Z " fill="#DEDEDE" transform="translate(434,120)"/>
<path d="M0 0 C6.8497775 5.01673845 10.05716182 11.55719104 11.49609375 19.828125 C12.70254102 29.51626219 10.99948257 36.73132507 5.49609375 44.828125 C3.39004691 47.32028043 1.25921327 49.10402976 -1.50390625 50.828125 C-2.1484375 51.23804688 -2.79296875 51.64796875 -3.45703125 52.0703125 C-10.83108168 56.03045069 -19.39720067 56.10994237 -27.4140625 54.09765625 C-32.57502494 52.19051327 -36.70635129 49.81555771 -40.50390625 45.828125 C-41.87890625 42.515625 -41.87890625 42.515625 -42.50390625 39.828125 C-43.49390625 39.828125 -44.48390625 39.828125 -45.50390625 39.828125 C-48.72672834 31.16679064 -48.78137989 20.98538595 -45.73046875 12.24609375 C-42.47154401 5.82165293 -37.47771955 0.33878881 -30.94140625 -2.796875 C-20.46775943 -6.18492871 -9.51730107 -5.52700795 0 0 Z " fill="#DEDEDE" transform="translate(52.50390625,119.171875)"/>
<path d="M0 0 C6.74352912 5.49969554 10.29701089 12.7917676 11.44921875 21.328125 C11.93179031 31.06534663 9.39120712 38.91096539 2.984375 46.3359375 C1 48 1 48 -2 48 C-2 48.99 -2 49.98 -2 51 C-7.83060666 53.48843145 -12.6114381 54.54858934 -18.9375 54.5 C-20.11675049 54.4990332 -20.11675049 54.4990332 -21.31982422 54.49804688 C-27.50483585 54.33909528 -32.13059106 52.98665059 -37 49 C-37 48.01 -37 47.02 -37 46 C-37.59425781 45.94457031 -38.18851563 45.88914062 -38.80078125 45.83203125 C-42.01378581 44.61645404 -42.63911354 42.69272307 -44.1875 39.6875 C-44.69667969 38.72199219 -45.20585938 37.75648438 -45.73046875 36.76171875 C-48.93672526 29.78687767 -49.05315411 21.55245324 -48 14 C-46.61057223 10.31878547 -44.72387594 7.81080815 -42 5 C-41.37351562 4.34386719 -40.74703125 3.68773437 -40.1015625 3.01171875 C-28.89933875 -7.68131301 -13.11558502 -8.00966634 0 0 Z " fill="#DEDEDE" transform="translate(53,376)"/>
<path d="M0 0 C1.00675781 0.00386719 2.01351563 0.00773438 3.05078125 0.01171875 C4.61892578 0.04845703 4.61892578 0.04845703 6.21875 0.0859375 C7.26417969 0.08722656 8.30960937 0.08851562 9.38671875 0.08984375 C18.1565758 0.19090484 18.1565758 0.19090484 21.71875 2.4609375 C22.71875 4.4609375 22.71875 4.4609375 22.71875 15.4609375 C12.15875 15.4609375 1.59875 15.4609375 -9.28125 15.4609375 C-9.28125 4.4609375 -9.28125 4.4609375 -7.61132812 1.80224609 C-4.84338965 0.20888336 -3.18493953 -0.02853688 0 0 Z " fill="#E0E0E0" transform="translate(268.28125,1.5390625)"/>
<path d="M0 0 C0.88107422 -0.00708984 1.76214844 -0.01417969 2.66992188 -0.02148438 C7.84959088 0.02895435 11.60777411 0.51296888 16.0625 3.4375 C17.0625 5.4375 17.0625 5.4375 17.0625 15.4375 C6.5025 15.4375 -4.0575 15.4375 -14.9375 15.4375 C-14.9375 4.4375 -14.9375 4.4375 -13.05859375 1.77734375 C-8.64027869 -0.11937974 -4.75869963 -0.10744333 0 0 Z " fill="#E0E0E0" transform="translate(178.9375,1.5625)"/>
<path d="M0 0 C0.8146875 0.00322266 1.629375 0.00644531 2.46875 0.00976562 C3.66757813 -0.0144043 3.66757813 -0.0144043 4.890625 -0.0390625 C10.968339 -0.04406062 15.14539778 1.01445632 19.80078125 5.18945312 C20.37183594 5.85203125 20.94289062 6.51460937 21.53125 7.19726562 C22.40716797 8.18339844 22.40716797 8.18339844 23.30078125 9.18945312 C24.89854682 11.59270382 25.22929653 13.50638316 25.71875 16.32226562 C21.13546978 16.38029313 16.55228396 16.41587156 11.96875 16.44726562 C10.66679687 16.46402344 9.36484375 16.48078125 8.0234375 16.49804688 C6.77304688 16.50449219 5.52265625 16.5109375 4.234375 16.51757812 C3.08227539 16.52805176 1.93017578 16.53852539 0.74316406 16.54931641 C-2.21195136 16.32746806 -3.84411457 15.9624535 -6.28125 14.32226562 C-8.52974564 10.38739826 -8.61829163 6.78806726 -8.28125 2.32226562 C-5.62977936 -0.32920501 -3.61221112 0.03289265 0 0 Z " fill="#FBFBFB" transform="translate(168.28125,27.677734375)"/>
<path d="M0 0 C10.56 0 21.12 0 32 0 C32 10 32 10 30 13 C24.96387363 14.67870879 19.7100369 14.22652738 14.4375 14.25 C13.27541016 14.270625 12.11332031 14.29125 10.91601562 14.3125 C9.2540918 14.32023438 9.2540918 14.32023438 7.55859375 14.328125 C6.03190063 14.34214355 6.03190063 14.34214355 4.47436523 14.35644531 C3.65782471 14.23881836 2.84128418 14.12119141 2 14 C0 11 0 11 0 0 Z " fill="#DEDEDE" transform="translate(164,535)"/>
<path d="M0 0 C10.56 0 21.12 0 32 0 C32 3.3 32 6.6 32 10 C31.34 10 30.68 10 30 10 C30 10.99 30 11.98 30 13 C24.96387363 14.67870879 19.7100369 14.22652738 14.4375 14.25 C13.27541016 14.270625 12.11332031 14.29125 10.91601562 14.3125 C9.2540918 14.32023438 9.2540918 14.32023438 7.55859375 14.328125 C6.03190063 14.34214355 6.03190063 14.34214355 4.47436523 14.35644531 C3.65782471 14.23881836 2.84128418 14.12119141 2 14 C0 11 0 11 0 0 Z " fill="#DEDEDE" transform="translate(259,535)"/>
<path d="M0 0 C0.87914062 0.00902344 1.75828125 0.01804687 2.6640625 0.02734375 C4.8178271 0.05075423 6.97145014 0.0866199 9.125 0.125 C9.20687055 1.68660485 9.26458275 3.24948483 9.3125 4.8125 C9.36470703 6.11767578 9.36470703 6.11767578 9.41796875 7.44921875 C9.04733619 10.83432947 8.26990407 12.47128433 6.125 15.125 C3.03051758 15.69262695 3.03051758 15.69262695 -0.73046875 15.61328125 C-1.39210526 15.60620651 -2.05374176 15.59913177 -2.73542786 15.59184265 C-4.84560985 15.56388507 -6.9531226 15.50115847 -9.0625 15.4375 C-10.49410225 15.41241824 -11.92574617 15.38960483 -13.35742188 15.36914062 C-16.8641465 15.31405847 -20.36931271 15.22778289 -23.875 15.125 C-22.67606184 11.37784045 -21.69437493 8.38641793 -19.125 5.375 C-18.65578125 4.80265625 -18.1865625 4.2303125 -17.703125 3.640625 C-12.54902515 -0.63243214 -6.31807002 -0.12369715 0 0 Z " fill="#FCFCFC" transform="translate(283.875,28.875)"/>
<path d="M0 0 C1.28874023 -0.03673828 1.28874023 -0.03673828 2.60351562 -0.07421875 C8.84241194 -0.10325938 8.84241194 -0.10325938 12.16796875 2.10546875 C13.82058218 4.7950161 13.91725507 5.97471471 13.4375 9.0625 C13.33179688 9.85011719 13.22609375 10.63773438 13.1171875 11.44921875 C12.93414062 12.08472656 12.75109375 12.72023438 12.5625 13.375 C8.92352049 15.19448976 4.63090712 14.55970453 0.625 14.5625 C-0.29474609 14.57474609 -1.21449219 14.58699219 -2.16210938 14.59960938 C-3.04576172 14.60154297 -3.92941406 14.60347656 -4.83984375 14.60546875 C-5.64929443 14.60957764 -6.45874512 14.61368652 -7.29272461 14.61791992 C-9.4375 14.375 -9.4375 14.375 -12.4375 12.375 C-12.8359375 10.0625 -12.8359375 10.0625 -12.8125 7.375 C-12.82023437 6.488125 -12.82796875 5.60125 -12.8359375 4.6875 C-12.70445312 3.924375 -12.57296875 3.16125 -12.4375 2.375 C-8.28216695 -0.39522203 -4.88335149 0.00729403 0 0 Z " fill="#FDFDFD" transform="translate(280.4375,505.625)"/>
<path d="M0 0 C0.80695313 -0.01611328 1.61390625 -0.03222656 2.4453125 -0.04882812 C5.96477232 -0.05173197 8.37491305 -0.00724494 11.54296875 1.61328125 C13 3.3125 13 3.3125 13.3125 6.8125 C13 10.3125 13 10.3125 12 13.3125 C9.11734851 14.27338383 7.32337729 14.42920941 4.33203125 14.41015625 C3.43935547 14.40693359 2.54667969 14.40371094 1.62695312 14.40039062 C0.23379883 14.38782227 0.23379883 14.38782227 -1.1875 14.375 C-2.59805664 14.36823242 -2.59805664 14.36823242 -4.03710938 14.36132812 C-6.35813712 14.34954626 -8.67903644 14.33309558 -11 14.3125 C-13.28146325 10.00219227 -13.16172439 7.16423177 -13 2.3125 C-8.62717624 -0.15581162 -4.91665043 -0.01963519 0 0 Z " fill="#FCFCFC" transform="translate(173,505.6875)"/>
</svg>
