<?xml version="1.0" encoding="UTF-8"?>
<svg version="1.1" xmlns="http://www.w3.org/2000/svg" width="496" height="552">
<!-- <path d="M0 0 C163.68 0 327.36 0 496 0 C496 182.16 496 364.32 496 552 C332.32 552 168.64 552 0 552 C0 369.84 0 187.68 0 0 Z " fill="#FEFEFE" transform="translate(0,0)"/> -->

<!-- araç tavan ön ve arka cam çerçevesi -->
<path d="M0 0 C2.98105678 0.04988908 5.96045491 0.06153355 8.94189453 0.06713867 C23.68287944 0.15310171 37.85465159 0.58368099 51.58642578 6.48706055 C52.85873047 7.02073242 52.85873047 7.02073242 54.15673828 7.56518555 C57.53221359 9.01957041 60.51737045 10.44102366 63.58642578 12.48706055 C64.24658203 15.4362793 64.24658203 15.4362793 64.64892578 19.17456055 C64.78427734 20.37467773 64.91962891 21.57479492 65.05908203 22.8112793 C65.13416992 23.51333496 65.20925781 24.21539062 65.28662109 24.9387207 C65.66217125 28.130897 66.12478667 31.30842955 66.57470703 34.4909668 C67.65597782 42.55575717 68.26053193 50.61620045 68.71142578 58.73706055 C68.75278656 59.46674042 68.79414734 60.19642029 68.83676147 60.94821167 C69.39584011 70.9777476 69.81034313 81.00341647 69.89892578 91.04956055 C69.91648926 92.06244141 69.93405273 93.07532227 69.95214844 94.11889648 C69.94056005 108.34480351 66.38529272 122.15605922 62.6796875 135.80151367 C62.07955396 138.01237599 61.49040951 140.22595644 60.90283203 142.44018555 C59.41570492 147.9977339 57.93789443 153.5155098 56.05566406 158.953125 C50.00914831 176.96141337 51.11659737 196.60947137 51.1953125 215.36083984 C51.21247304 219.4865208 51.20248094 223.61161879 51.18459511 227.73727894 C51.17365103 230.96935769 51.17725049 234.20130262 51.18497849 237.43338585 C51.18694758 238.9532955 51.18464038 240.47321822 51.17753983 241.99311256 C51.1267581 255.89579606 52.99284554 268.22683792 58.32080078 281.2097168 C60.11258342 285.84954901 61.39865186 290.59455476 62.69189453 295.39331055 C63.50649065 298.42679089 63.50649065 298.42679089 64.62939453 300.9987793 C67.43981704 308.30587781 67.89100333 316.72033312 67.58642578 324.48706055 C50.23892529 333.65177779 32.00320314 335.85202224 12.58642578 336.48706055 C10.61996094 336.56633789 10.61996094 336.56633789 8.61376953 336.6472168 C-9.75597123 337.14644152 -28.36147849 334.71316345 -46.41357422 331.48706055 C-46.41357422 330.82706055 -46.41357422 330.16706055 -46.41357422 329.48706055 C-47.42419922 329.38393555 -48.43482422 329.28081055 -49.47607422 329.17456055 C-53.49371496 328.47306772 -58.40791813 327.49271664 -61.41357422 324.48706055 C-61.54039931 322.78229534 -61.58942956 321.07149713 -61.60107422 319.36206055 C-61.61525391 318.43135742 -61.62943359 317.5006543 -61.64404297 316.54174805 C-61.37468171 312.97156998 -60.43106279 309.92075007 -59.41357422 306.48706055 C-58.91579468 304.74005859 -58.91579468 304.74005859 -58.40795898 302.95776367 C-57.46973663 299.67039612 -56.52746039 296.38424659 -55.58227539 293.09887695 C-55.17827729 291.69147318 -54.77593187 290.28359395 -54.37524414 288.87524414 C-53.78947541 286.81750069 -53.19778685 284.76153607 -52.60498047 282.70581055 C-52.25636963 281.48829102 -51.90775879 280.27077148 -51.54858398 279.01635742 C-50.41357422 275.48706055 -50.41357422 275.48706055 -48.90161133 272.22338867 C-44.79274972 262.77364583 -45.10134145 252.38607645 -45.11279297 242.27612305 C-45.10889016 240.81757489 -45.10455235 239.35902784 -45.09980774 237.90048218 C-45.0923892 234.85296949 -45.09260191 231.80557267 -45.09790039 228.75805664 C-45.10250957 225.67848011 -45.09569377 222.59930049 -45.07739258 219.51977539 C-44.98029589 203.05179297 -44.99810485 186.87706407 -48.02163696 170.61933899 C-48.57314866 167.61891869 -49.04412552 164.60691829 -49.51934814 161.59362793 C-50.85737935 153.34879536 -52.96580972 145.4745026 -55.41357422 137.48706055 C-57.00733407 132.00608156 -58.50785216 126.50269592 -59.97607422 120.98706055 C-60.19714844 120.17108398 -60.41822266 119.35510742 -60.64599609 118.5144043 C-60.85933594 117.71131836 -61.07267578 116.90823242 -61.29248047 116.08081055 C-61.57973999 115.00863281 -61.57973999 115.00863281 -61.87280273 113.91479492 C-63.63280108 106.01347502 -63.60599369 98.22723784 -63.60107422 90.17456055 C-63.60113464 89.49199188 -63.60119507 88.80942322 -63.60125732 88.10617065 C-63.58555324 75.55331424 -62.85421729 63.13316124 -61.69580078 50.63208008 C-61.40452262 47.38619319 -61.15038996 44.13912263 -60.90576172 40.8894043 C-60.82310059 39.81424561 -60.74043945 38.73908691 -60.65527344 37.63134766 C-60.50011437 35.61286918 -60.3478442 33.59416538 -60.19921875 31.57519531 C-58.88393497 15.21473444 -58.88393497 15.21473444 -54.91357422 10.54956055 C-52.34685192 8.76721537 -49.79008358 7.88594938 -46.79882812 7.02441406 C-45.91302063 6.76886749 -45.02721313 6.51332092 -44.11456299 6.25003052 C-42.77757355 5.87236038 -42.77757355 5.87236038 -41.41357422 5.48706055 C-40.62037781 5.25566376 -39.8271814 5.02426697 -39.00994873 4.78585815 C-25.90477427 1.04062108 -13.60481847 -0.2309147 0 0 Z " fill="#DFDFDF" transform="translate(173.41357421875,51.512939453125)"/>

<!-- araç sol ön ve arka kapı çerçevesi -->
<path d="M0 0 C5.94 0 11.88 0 18 0 C18.33 1.65 18.66 3.3 19 5 C19.73605469 5.04898438 20.47210938 5.09796875 21.23046875 5.1484375 C22.20628906 5.22320312 23.18210937 5.29796875 24.1875 5.375 C25.15042969 5.44460937 26.11335938 5.51421875 27.10546875 5.5859375 C30.16116567 6.02305474 32.32707759 6.43926962 35 8 C36.36328125 10.71484375 36.36328125 10.71484375 37.3125 13.9375 C37.80169922 15.52884766 37.80169922 15.52884766 38.30078125 17.15234375 C39 20 39 20 39 23 C39.66 23 40.32 23 41 23 C41.98592556 27.16509676 42.96251506 31.33232983 43.9375 35.5 C44.21529297 36.67304687 44.49308594 37.84609375 44.77929688 39.0546875 C46.17318354 45.03328573 47.40240667 50.88790622 48 57 C48.66 57 49.32 57 50 57 C50.12117188 57.75023437 50.24234375 58.50046875 50.3671875 59.2734375 C52.59870425 75.33375036 52.59870425 75.33375036 59 90 C60.48071861 92.36914977 61.84008313 94.59516539 62.8671875 97.1953125 C64.5362185 101.32760304 66.53222592 105.3102552 68.52148438 109.296875 C70.58050182 113.58103019 71.55318279 117.26251341 72 122 C72.66 122 73.32 122 74 122 C74.19110352 122.55349121 74.38220703 123.10698242 74.57910156 123.67724609 C75.46692544 126.24402932 76.35799499 128.80966677 77.25 131.375 C77.57137939 132.30094971 77.89275879 133.22689941 78.22387695 134.1809082 C78.54316162 135.09445068 78.86244629 136.00799316 79.19140625 136.94921875 C79.48474854 137.79057373 79.77809082 138.63192871 80.08032227 139.4987793 C81.03675089 142.09995034 82.09347867 144.64147483 83.1875 147.1875 C85.26826635 152.18489611 86.37957462 157.39807178 87.51831055 162.67456055 C88.28593668 166.18765663 89.16509127 169.39994113 90.54150391 172.72338867 C92.91562614 179.80529944 92.41042963 187.29266669 92.36328125 194.671875 C92.36276172 196.28371175 92.363283 197.89554913 92.36479187 199.50738525 C92.36470259 202.86944149 92.35435985 206.23125573 92.33618164 209.59326172 C92.31342263 213.89614289 92.31296834 218.19867345 92.31969929 222.50159836 C92.3230434 225.82335513 92.31640205 229.14503232 92.30657005 232.46677399 C92.3027309 234.05355666 92.3015645 235.64034819 92.3031559 237.2271347 C92.30352775 239.44293563 92.29087576 241.65828982 92.2746582 243.87402344 C92.26774712 245.76190582 92.26774712 245.76190582 92.26069641 247.68792725 C92.00716315 250.90899424 91.34859184 253.09370046 90 256 C89.69690342 257.32637134 89.42558731 258.66043182 89.1875 260 C87.26626657 269.02079134 83.42788134 277.47742842 79.203125 285.6328125 C77.31270832 289.35226869 75.65536132 293.17139896 74 297 C73.34 297 72.68 297 72 297 C71.76410156 297.83144531 71.52820313 298.66289062 71.28515625 299.51953125 C68.92662942 305.90690939 65.0125854 311.37020908 61.25244141 317.00976562 C59.83039498 319.18883374 59.83039498 319.18883374 58.32421875 322.453125 C56.32176688 325.97007496 54.75043904 328.42262005 51 330 C42.66890149 331.35287959 34.17536236 331.07714934 25.76806641 330.7421875 C22.54052671 331.04279448 22.09095928 331.69357014 20 334 C18.09887695 334.34057617 18.09887695 334.34057617 15.98828125 334.29296875 C15.23095703 334.28330078 14.47363281 334.27363281 13.69335938 334.26367188 C12.90767578 334.23853516 12.12199219 334.21339844 11.3125 334.1875 C10.51521484 334.17396484 9.71792969 334.16042969 8.89648438 334.14648438 C6.93070033 334.11117089 4.96526418 334.05736447 3 334 C2.62875 333.071875 2.2575 332.14375 1.875 331.1875 C-0.01558881 327.31196671 -0.01558881 327.31196671 -6 325 C-6 314.77 -6 304.54 -6 294 C-1.38 293.34 3.24 292.68 8 292 C14.34207212 289.70980729 17.10559947 287.22383098 20.7734375 281.609375 C21.17820312 281.07828125 21.58296875 280.5471875 22 280 C22.66 280 23.32 280 24 280 C25.93377176 271.05630559 26.06807548 261.36373561 22 253 C18.90345088 248.96102289 15.63234984 246.11764564 11 244 C11 243.34 11 242.68 11 242 C2.585 241.505 2.585 241.505 -6 241 C-6 190.84 -6 140.68 -6 89 C0.93 88.01 0.93 88.01 8 87 C14.34207212 84.70980729 17.10559947 82.22383098 20.7734375 76.609375 C21.38058594 75.81273437 21.38058594 75.81273437 22 75 C22.66 75 23.32 75 24 75 C25.93661635 66.04314937 26.05435733 56.37995687 22 48 C18.26002389 42.98503204 14.68137967 40.84068984 9 38 C4.05 37.34 -0.9 36.68 -6 36 C-6 25.11 -6 14.22 -6 3 C-4.02 3 -2.04 3 0 3 C0 2.01 0 1.02 0 0 Z " fill="#DDDDDD" transform="translate(25,53)"/>

<!-- araç sağ ön ve arka çamurluk çerçevesi -->
<path d="M0 0 C5.94 0 11.88 0 18 0 C18 1.32 18 2.64 18 4 C19.98 4 21.96 4 24 4 C24 14.56 24 25.12 24 36 C19.38 36.66 14.76 37.32 10 38 C2.34863804 40.8019072 -2.76913794 45.53827589 -6.4375 52.875 C-7.8412969 60.67387167 -7.91635959 69.23947185 -3.671875 76.16796875 C-0.1307755 81.07722032 3.27571417 84.66084867 9.125 86.625 C9.80820312 86.86476563 10.49140625 87.10453125 11.1953125 87.3515625 C15.38816517 88.32094069 19.71790424 88.57179042 24 89 C24 138.83 24 188.66 24 240 C16.575 240.99 16.575 240.99 9 242 C2.61838311 245.93926969 -4.09106572 251.4605772 -6.63671875 258.84765625 C-8.03771272 267.1481689 -7.96204981 275.01011559 -3 282 C-2.55269531 282.63808594 -2.10539062 283.27617187 -1.64453125 283.93359375 C5.2035692 292.76452221 12.7316777 292.39023967 24 294 C24 304.23 24 314.46 24 325 C21.03 326.485 21.03 326.485 18 328 C16.09793151 331.05039221 16.09793151 331.05039221 15 334 C12.22858283 334.08089542 9.45952181 334.14044062 6.6875 334.1875 C5.50897461 334.22520508 5.50897461 334.22520508 4.30664062 334.26367188 C3.54931641 334.27333984 2.79199219 334.28300781 2.01171875 334.29296875 C1.31522217 334.3086792 0.61872559 334.32438965 -0.09887695 334.34057617 C-2 334 -2 334 -3.3737793 332.48291016 C-4.97225255 330.71990083 -4.97225255 330.71990083 -7.73632812 330.78979492 C-9.36731445 330.88417847 -9.36731445 330.88417847 -11.03125 330.98046875 C-32.06893706 331.63078365 -32.06893706 331.63078365 -37.19140625 327.00390625 C-40.06770199 323.62524996 -42.05980265 319.97762555 -44 316 C-44.57621094 315.06671875 -45.15242188 314.1334375 -45.74609375 313.171875 C-47 311 -47 311 -47 309 C-47.66 309 -48.32 309 -49 309 C-50.17441535 306.89983377 -51.33964012 304.79541245 -52.5 302.6875 C-52.83386719 302.09259766 -53.16773438 301.49769531 -53.51171875 300.88476562 C-55.06825114 298.04171156 -56 296.29339012 -56 293 C-56.66 293 -57.32 293 -58 293 C-69.80483047 268.17636713 -73.27204324 247.31488975 -73.4050293 220.06298828 C-73.42264885 216.80280864 -73.45716195 213.54352587 -73.50756836 210.28369141 C-73.81262836 190.05501155 -73.01698663 171.53394614 -67 152 C-66.77561249 151.25959473 -66.55122498 150.51918945 -66.32003784 149.75634766 C-65.10817701 145.83938433 -63.73483564 142.00823561 -62.25 138.1875 C-61.86457031 137.15431641 -61.47914063 136.12113281 -61.08203125 135.05664062 C-59.44320494 130.68171155 -57.74188823 126.33486034 -56 122 C-55.34 122 -54.68 122 -54 122 C-53.9175 121.195625 -53.835 120.39125 -53.75 119.5625 C-53.13001193 116.61755669 -52.43745794 114.54194017 -51.203125 111.85546875 C-49.77063104 108.7023761 -48.36364311 105.54289492 -47 102.359375 C-46.33333333 100.82291667 -45.66666667 99.28645833 -45 97.75 C-44.67 96.97398437 -44.34 96.19796875 -44 95.3984375 C-42.52270032 92.0168062 -41.27068008 89.3148928 -38.84765625 86.49609375 C-36.23324788 82.96415517 -35.97822629 79.599687 -35.4375 75.3125 C-35.19865843 73.68160421 -34.95520853 72.05137628 -34.70703125 70.421875 C-34.58924316 69.64779297 -34.47145508 68.87371094 -34.35009766 68.07617188 C-33.81121447 64.8804518 -32.89424649 61.88015907 -31.8828125 58.80859375 C-30.61754806 54.7832613 -29.56663718 50.70680178 -28.5 46.625 C-28.28102051 45.7906543 -28.06204102 44.95630859 -27.83642578 44.09667969 C-26.68181877 39.67807077 -25.56905142 35.25270787 -24.5 30.8125 C-23.2937129 25.95288627 -21.90085274 21.16226915 -20.4375 16.375 C-20.22738281 15.67479736 -20.01726562 14.97459473 -19.80078125 14.25317383 C-18.2369668 9.2369668 -18.2369668 9.2369668 -16 7 C-10.79780443 5.41288949 -6.41802032 4.77424915 -1 5 C-0.67 3.35 -0.34 1.7 0 0 Z " fill="#DEDEDE" transform="translate(309,53)"/>

<!--  camlar -->
<path d="M0 0 C0 0.66 0 1.32 0 2 C0.66 1.96519531 1.32 1.93039063 2 1.89453125 C9.79934308 1.68126796 17.38429021 2.33915259 25.125 3.25 C26.1253125 3.35932861 27.125625 3.46865723 28.15625 3.58129883 C34.90862945 4.42479242 42.03345001 5.55663181 48 9 C49.71263947 12.91376374 48.31123598 15.61270262 46.875 19.5 C44.34203331 26.60466267 42.45403852 33.78862782 40.70068359 41.12109375 C39.90655488 44.42699282 39.13036609 47.63825898 37.9765625 50.83984375 C36.44591169 55.79302978 35.82408868 60.87992189 35.0625 66 C33.70202589 75.10341937 31.93418994 83.97378028 30 93 C3.27 93 -23.46 93 -51 93 C-55.54711055 70.26444724 -55.54711055 70.26444724 -56.625 62.125 C-57.33061461 56.82449026 -58.26937769 52.07838349 -60 47 C-60.26995323 45.04920594 -60.48128297 43.0891328 -60.625 41.125 C-60.73714844 39.67480469 -60.73714844 39.67480469 -60.8515625 38.1953125 C-60.90054688 37.47085938 -60.94953125 36.74640625 -61 36 C-61.66 36 -62.32 36 -63 36 C-63.98298598 32.77198351 -64.96070802 29.54239567 -65.9375 26.3125 C-66.35418945 24.94448242 -66.35418945 24.94448242 -66.77929688 23.54882812 C-67.04677734 22.66259766 -67.31425781 21.77636719 -67.58984375 20.86328125 C-67.83597412 20.05157471 -68.08210449 19.23986816 -68.33569336 18.40356445 C-69.01724175 15.93761669 -69.62002801 13.53117735 -70 11 C-67.0552195 6.33382207 -60.17425789 5.59907317 -55.17285156 4.43017578 C-49.65720745 3.33820219 -44.04325673 2.931669 -38.44921875 2.4375 C-34.96800136 2.12347078 -31.61262816 1.58671494 -28.1875 0.875 C-18.96101431 -0.81939049 -9.34261484 -0.16211158 0 0 Z " fill="#FEFEFE" transform="translate(187,139)"/>
<path d="M0 0 C26.73 0 53.46 0 81 0 C81.99 6.6 82.98 13.2 84 20 C84.97620463 23.65067279 85.9207276 27.04368777 87.1875 30.5625 C90 38.72074468 90 38.72074468 90 42 C90.66 42 91.32 42 92 42 C92 44.25 92 44.25 91 47 C84.80707292 50.74456056 78.85313925 52.15387476 71.75 53.25 C70.67097412 53.41910889 69.59194824 53.58821777 68.48022461 53.76245117 C55.66112257 55.58272507 42.91099496 55.39013966 30 55 C28.28776131 54.96740071 26.57552182 54.93484382 24.86328125 54.90234375 C17.15310288 54.68504057 9.73904044 53.77263629 2.1875 52.1875 C1.43968262 52.03442383 0.69186523 51.88134766 -0.07861328 51.72363281 C-4.61770503 50.67190474 -7.60168071 49.1846725 -11 46 C-9.42252923 41.16003285 -7.76324193 36.3773994 -5.9375 31.625 C-2.21184205 21.39714813 -1.43858332 10.78937486 0 0 Z " fill="#FEFEFE" transform="translate(136,300)"/>
<path d="M0 0 C0 22.77 0 45.54 0 69 C-23.04624277 61.31791908 -23.04624277 61.31791908 -33.08203125 55.98046875 C-35.12869816 54.87363003 -35.12869816 54.87363003 -38 54 C-38 38.49 -38 22.98 -38 7 C-17.14732143 2.36607143 -17.14732143 2.36607143 -10.5625 1.25 C-9.50579102 1.06244141 -9.50579102 1.06244141 -8.42773438 0.87109375 C-5.57449223 0.37606032 -2.90215382 0 0 0 Z " fill="#FEFEFE" transform="translate(282,238)"/>
<path d="M0 0 C2.97 0.33 5.94 0.66 9 1 C9 1.66 9 2.32 9 3 C9.58265625 3.04898438 10.1653125 3.09796875 10.765625 3.1484375 C20.08711334 3.99851034 28.9888192 5.42537692 38 8 C38 23.51 38 39.02 38 55 C32.72 56.98 27.44 58.96 22 61 C19.31860312 62.30345682 16.64748782 63.62897952 14 65 C9.23432266 67.04504162 5.20207041 68.13298827 0 69 C0 46.23 0 23.46 0 0 Z " fill="#FEFEFE" transform="translate(71,237)"/>
<path d="M0 0 C10.69839905 5.01299537 17.67645564 23.52393893 21.85546875 34.16015625 C22.95493743 36.88818946 24.2028695 39.48656427 25.5 42.125 C30.31366808 52.62754855 32.63431435 64.24396451 35.3125 75.4375 C35.48402588 76.15309082 35.65555176 76.86868164 35.83227539 77.60595703 C36.49998643 80.47791479 37 83.04010908 37 86 C35.64509704 85.88325099 34.29109304 85.75606577 32.9375 85.625 C32.18339844 85.55539063 31.42929688 85.48578125 30.65234375 85.4140625 C28 85 28 85 24.83984375 84.08984375 C19.24785876 82.50269847 13.56291598 81.49483385 7.85546875 80.41210938 C6.98792969 80.24388672 6.12039062 80.07566406 5.2265625 79.90234375 C4.43846191 79.75273193 3.65036133 79.60312012 2.83837891 79.44897461 C1 79 1 79 0 78 C-0.09498646 75.56603981 -0.12558417 73.16057048 -0.11352539 70.72631836 C-0.11367142 69.96539383 -0.11381744 69.2044693 -0.1139679 68.42048645 C-0.11326862 65.89357702 -0.10547555 63.36674038 -0.09765625 60.83984375 C-0.09579212 59.0924941 -0.0943682 57.34514393 -0.09336853 55.59779358 C-0.08954293 50.98968066 -0.07971229 46.38159905 -0.06866455 41.77349854 C-0.05845134 37.07491479 -0.0538711 32.37632601 -0.04882812 27.67773438 C-0.03809005 18.45180913 -0.02101313 9.22590716 0 0 Z " fill="#FDFDFD" transform="translate(71,147)"/>
<path d="M0 0 C0.33 0 0.66 0 1 0 C1 26.07 1 52.14 1 79 C-2.63 79.99 -6.26 80.98 -10 82 C-11.423125 82.495 -12.84625 82.99 -14.3125 83.5 C-21.13630112 85.84065048 -28.76427275 88 -36 88 C-36.21625875 83.45856633 -35.4772019 80.26747216 -34 76 C-33.26217626 72.67979315 -32.62118333 69.34381664 -32 66 C-31.34 66 -30.68 66 -30 66 C-29.91363281 65.46375 -29.82726562 64.9275 -29.73828125 64.375 C-28.24002776 56.01776954 -25.61939374 48.05813494 -23 40 C-22.34 40 -21.68 40 -21 40 C-20.773125 38.72125 -20.54625 37.4425 -20.3125 36.125 C-19.11202099 30.61331172 -16.69206281 25.92174841 -14 21 C-13.34 21 -12.68 21 -12 21 C-11.9071875 19.9790625 -11.9071875 19.9790625 -11.8125 18.9375 C-10.87278957 15.54008536 -9.36570021 13.48121493 -7.265625 10.69921875 C-5.67382631 8.56208161 -4.36102682 6.28899965 -3 4 C-2.04175747 2.63634717 -1.05278825 1.29205831 0 0 Z " fill="#FEFEFE" transform="translate(280,146)"/>
<path d="M0 0 C-1.32495665 3.01831588 -2.62565429 4.75963026 -5.1875 6.8125 C-10.24548334 11.07380465 -14.82951722 15.77524522 -19.45581055 20.4934082 C-22.4765536 23.5545811 -25.53100818 26.57283857 -28.71484375 29.46484375 C-29.25101318 29.95460693 -29.78718262 30.44437012 -30.33959961 30.94897461 C-32 32 -32 32 -36 32 C-36 26.39 -36 20.78 -36 15 C-28.85023095 11.58761022 -21.72496824 8.40972955 -14.3125 5.625 C-13.27029297 5.23127197 -13.27029297 5.23127197 -12.20703125 4.82958984 C-7.25940801 3 -7.25940801 3 -5 3 C-5 2.34 -5 1.68 -5 1 C-2 0 -2 0 0 0 Z " fill="#FCFCFC" transform="translate(107,302)"/>
<path d="M0 0 C3.51026852 1.39592181 7.00502326 2.82470931 10.4921875 4.27734375 C11.52730469 4.70853516 12.56242187 5.13972656 13.62890625 5.58398438 C14.70011719 6.03064453 15.77132813 6.47730469 16.875 6.9375 C17.93847656 7.38029297 19.00195312 7.82308594 20.09765625 8.27929688 C21.13535156 8.71177734 22.17304688 9.14425781 23.2421875 9.58984375 C24.1791748 9.98034912 25.11616211 10.37085449 26.08154297 10.77319336 C29.39457881 12.16586569 32.69673257 13.58431396 36 15 C36 20.61 36 26.22 36 32 C30.39822083 30.87964417 30.39822083 30.87964417 27.5 27.6875 C24.82387274 24.84339072 22.06922208 22.42307006 19 20 C17.32052981 18.34623598 15.65586398 16.67739978 14 15 C12.12638434 13.10276734 10.25141393 11.20695637 8.375 9.3125 C7.65957031 8.58450195 7.65957031 8.58450195 6.9296875 7.84179688 C4.70746954 5.60414685 2.63630864 3.7575391 0 2 C0 1.34 0 0.68 0 0 Z " fill="#FCFCFC" transform="translate(245,302)"/>

<!-- ön tampon sağ taraf  ve sol -->
<path d="M0 0 C0.97438522 -0.00708481 1.94877045 -0.01416962 2.9526825 -0.02146912 C4.02029816 -0.0189917 5.08791382 -0.01651428 6.18788147 -0.01396179 C7.31330856 -0.01907272 8.43873566 -0.02418365 9.5982666 -0.02944946 C13.32879412 -0.04338118 17.05913763 -0.042386 20.78968811 -0.04008484 C23.37656727 -0.04396974 25.9634458 -0.04830398 28.55032349 -0.05307007 C33.97673376 -0.06053996 39.40307236 -0.0603732 44.82948303 -0.05497742 C51.10125264 -0.04893693 57.37279795 -0.06124985 63.64452928 -0.08254749 C69.67855904 -0.10228433 75.71247127 -0.10533763 81.74653816 -0.10181236 C84.31382842 -0.10232672 86.88112218 -0.10758573 89.44839287 -0.11762428 C93.03490984 -0.12992663 96.62090444 -0.12323389 100.20741272 -0.11161804 C101.27300415 -0.11926178 102.33859558 -0.12690552 103.43647766 -0.13478088 C104.41368271 -0.12776657 105.39088776 -0.12075226 106.39770508 -0.11352539 C107.24554534 -0.11369313 108.0933856 -0.11386087 108.96691799 -0.1140337 C111.80213075 0.34881695 113.18659618 1.30220439 115.26234436 3.26069641 C115.73231506 5.68086243 115.73231506 5.68086243 115.68812561 8.51460266 C115.67555725 10.04310852 115.67555725 10.04310852 115.66273499 11.60249329 C115.63373108 12.66532532 115.60472717 13.72815735 115.57484436 14.82319641 C115.56517639 15.88989563 115.55550842 16.95659485 115.54554749 18.05561829 C115.43094249 25.92350015 115.43094249 25.92350015 114.26234436 28.26069641 C111.37962314 29.22160348 109.55801267 29.39053206 106.56265259 29.40113831 C105.59668152 29.40684845 104.63071045 29.41255859 103.63546753 29.41844177 C102.57720261 29.41955963 101.51893768 29.42067749 100.42860413 29.42182922 C99.3129306 29.42679413 98.19725708 29.43175903 97.04777527 29.43687439 C93.34976083 29.45150365 89.65178926 29.45829862 85.95375061 29.46382141 C83.38929238 29.46957136 80.82483417 29.47532911 78.26037598 29.48109436 C73.56887604 29.4902619 68.87739331 29.49656192 64.18588597 29.49959111 C57.28083811 29.50407418 50.37598798 29.52163583 43.47100025 29.55059171 C37.48930974 29.57480522 31.50771286 29.58253498 25.52596855 29.58426666 C22.98100138 29.58729937 20.43603517 29.59534858 17.89109993 29.60845184 C14.33573929 29.62545367 10.78086361 29.62364643 7.22547913 29.61714172 C5.64111809 29.6309639 5.64111809 29.6309639 4.02474976 29.64506531 C3.05595886 29.63949615 2.08716797 29.633927 1.08901978 29.62818909 C0.24855386 29.62965565 -0.59191206 29.63112221 -1.45784664 29.63263321 C-4.28665976 29.17112977 -5.66769768 28.21617567 -7.73765564 26.26069641 C-8.23936462 23.74873352 -8.23936462 23.74873352 -8.23374939 20.78804016 C-8.23439392 19.72391907 -8.23503845 18.65979797 -8.23570251 17.56343079 C-8.21572205 16.45290344 -8.19574158 15.3423761 -8.17515564 14.19819641 C-8.18224548 13.08380188 -8.18933533 11.96940735 -8.19664001 10.82124329 C-8.14823911 4.6817744 -8.14823911 4.6817744 -7.73765564 2.26069641 C-4.52531058 0.11913304 -3.69369672 0.0089475 0 0 Z " fill="#DDDEDE" transform="translate(123.73765563964844,15.739303588867188)"/>
<path d="M0 0 C0.95058792 -0.00845947 1.90117584 -0.01691895 2.88056946 -0.02563477 C3.92170395 -0.01956207 4.96283844 -0.01348938 6.03552246 -0.00723267 C7.13329514 -0.01248962 8.23106781 -0.01774658 9.36210632 -0.02316284 C13.00013347 -0.0363944 16.63772504 -0.02761329 20.27575684 -0.01748657 C22.79777104 -0.01950639 25.31978468 -0.02241706 27.84179688 -0.02618408 C33.13120617 -0.03061173 38.42045854 -0.02444717 43.70983887 -0.01016235 C49.82600107 0.00616452 55.94186327 0.00087609 62.05801821 -0.01564157 C67.94041221 -0.03089237 73.82271294 -0.02928268 79.7051239 -0.02049637 C82.20904075 -0.01849104 84.71296522 -0.02096522 87.21687317 -0.02793503 C90.71262067 -0.03552954 94.20778713 -0.02397272 97.70349121 -0.00723267 C98.7446257 -0.01330536 99.78576019 -0.01937805 100.85844421 -0.02563477 C101.80903214 -0.01717529 102.75962006 -0.00871582 103.73901367 0 C104.56565269 0.00113108 105.39229172 0.00226215 106.24398041 0.00342751 C108.87464743 0.47067101 109.76001 1.28515971 111.36950684 3.38095093 C111.99643968 6.68418622 111.83300491 10.02483535 111.80700684 13.38095093 C111.8269873 14.2961853 111.84696777 15.21141968 111.86755371 16.15438843 C111.86658691 17.47309937 111.86658691 17.47309937 111.86560059 18.81845093 C111.86745361 19.62153687 111.86930664 20.4246228 111.87121582 21.25204468 C111.36950684 23.38095093 111.36950684 23.38095093 109.63269901 24.99019814 C107.04130685 26.58263289 105.67121655 26.75773536 102.65672302 26.76190186 C101.24140038 26.77459106 101.24140038 26.77459106 99.79748535 26.78753662 C98.76929688 26.78146393 97.7411084 26.77539124 96.6817627 26.76913452 C95.59359756 26.77439148 94.50543243 26.77964844 93.3842926 26.7850647 C89.78416632 26.79827844 86.18448143 26.78952203 82.58435059 26.77938843 C80.08618586 26.78140861 77.58802171 26.78431958 75.08985901 26.78808594 C69.85352056 26.79251104 64.61729719 26.78635716 59.38098145 26.77206421 C53.32671343 26.75572946 47.27274838 26.76103285 41.21848768 26.77754343 C35.39321292 26.79279366 29.56805338 26.79118513 23.74276924 26.78239822 C21.26397217 26.78039316 18.7851674 26.78286616 16.30637932 26.78983688 C12.84666136 26.79743121 9.38753052 26.78587527 5.92785645 26.76913452 C4.89764374 26.77520721 3.86743103 26.78127991 2.80599976 26.78753662 C1.86527115 26.77907715 0.92454254 26.77061768 -0.04469299 26.76190186 C-1.27164178 26.76020524 -1.27164178 26.76020524 -2.52337742 26.75847435 C-5.14065333 26.28954759 -6.02728862 25.46551005 -7.63049316 23.38095093 C-8.01867676 21.25204468 -8.01867676 21.25204468 -8.02893066 18.81845093 C-8.03279785 17.9393103 -8.03666504 17.06016968 -8.04064941 16.15438843 C-8.02904785 15.23915405 -8.01744629 14.32391968 -8.00549316 13.38095093 C-8.02289551 12.00809937 -8.02289551 12.00809937 -8.04064941 10.60751343 C-8.03678223 9.7283728 -8.03291504 8.84923218 -8.02893066 7.94345093 C-8.02385498 6.73882202 -8.02385498 6.73882202 -8.01867676 5.50985718 C-7.17844929 0.9018172 -4.31281788 0.00590116 0 0 Z " fill="#DEDEDE" transform="translate(125.6304931640625,397.6190490722656)"/>

<!-- sağ arka tekerlek -->
<path d="M0 0 C7.14371168 -0.47708444 13.34720751 2.09981086 18.76171875 6.76953125 C19.97265625 8.2265625 19.97265625 8.2265625 19.97265625 10.2265625 C20.63265625 10.2265625 21.29265625 10.2265625 21.97265625 10.2265625 C25.36020665 16.43707156 25.92521111 22.22038798 24.97265625 29.2265625 C23.00279391 35.15236239 20.37780702 39.88051679 14.97265625 43.2265625 C13.98265625 43.9690625 12.99265625 44.7115625 11.97265625 45.4765625 C6.199641 48.65993196 -1.17567888 48.24182836 -7.3984375 46.6015625 C-13.85417132 43.78268458 -19.42403746 37.76567308 -22.02734375 31.2265625 C-22.91609211 24.00115375 -22.03597256 16.86961492 -19.02734375 10.2265625 C-15.40630845 5.72473483 -10.86844839 1.9841904 -5.21484375 0.4765625 C-3.47466322 0.34007775 -1.73472594 0.19386147 0 0 Z " fill="#DEDEDE" transform="translate(327.02734375,296.7734375)"/>
<path d="M0 0 C5.6776199 5.00455597 8.4474266 9.73739618 9.24609375 17.34375 C9.62842744 24.85139338 7.68037268 30.76778589 2.875 36.5625 C1 38 1 38 -1 38 C-1 38.66 -1 39.32 -1 40 C-7.4370042 43.59274653 -13.73042577 43.84841468 -21 43 C-24.02957808 41.95547383 -26.26464887 40.71629875 -29 39 C-29 38.34 -29 37.68 -29 37 C-29.66 37 -30.32 37 -31 37 C-32.47265625 34.91796875 -32.47265625 34.91796875 -34.0625 32.1875 C-34.58972656 31.29417969 -35.11695313 30.40085937 -35.66015625 29.48046875 C-38.77906104 23.70640304 -39.10720253 17.0691456 -37.38671875 10.74609375 C-34.53529607 4.32725238 -29.37825299 -0.27333736 -23.1875 -3.4375 C-14.84612446 -4.90950745 -7.21269258 -4.8492114 0 0 Z " fill="#DEDEDE" transform="translate(38,301)"/>
<path d="M0 0 C5.37120583 4.86342376 7.46402261 9.9322029 8.359375 17.0390625 C8.7162112 24.23154214 7.06898302 30.18926481 2.2109375 35.60546875 C-3.31574736 40.7298279 -8.11502682 42.9922652 -15.80859375 42.7421875 C-22.9818698 42.1280819 -27.89922496 40.8590255 -32.953125 35.55859375 C-34.328125 32.74609375 -34.328125 32.74609375 -34.953125 30.55859375 C-35.613125 30.55859375 -36.273125 30.55859375 -36.953125 30.55859375 C-39.51681854 23.02774398 -40.17140524 15.9452529 -36.99609375 8.4765625 C-33.91579259 2.81203865 -30.05930604 -1.15158836 -23.953125 -3.44140625 C-15.4175322 -5.48252627 -7.209203 -5.32039181 0 0 Z " fill="#DEDEDE" transform="translate(38.953125,96.44140625)"/>
<path d="M0 0 C4.87290543 3.76542692 7.99145281 6.78739238 9.375 12.875 C10.30335765 20.92076629 10.06099284 27.24152974 5.42578125 34.078125 C1.62958122 38.82088409 -2.13539366 41.38020283 -8.125 42.8125 C-16.07135541 43.60713554 -22.62310202 43.62293487 -29.203125 38.6484375 C-34.10425761 34.13857177 -36.76886617 29.54832712 -37.4921875 22.8984375 C-37.72161317 15.48034091 -36.78698685 9.58971477 -31.9375 3.8125 C-23.14785019 -5.48775187 -10.9499122 -6.31725704 0 0 Z " fill="#DEDEDE" transform="translate(342.25,95.875)"/>


<path d="M0 0 C0.97438522 -0.00708481 1.94877045 -0.01416962 2.9526825 -0.02146912 C4.02029816 -0.0189917 5.08791382 -0.01651428 6.18788147 -0.01396179 C7.31330856 -0.01907272 8.43873566 -0.02418365 9.5982666 -0.02944946 C13.32879412 -0.04338118 17.05913763 -0.042386 20.78968811 -0.04008484 C23.37656727 -0.04396974 25.9634458 -0.04830398 28.55032349 -0.05307007 C33.97673376 -0.06053996 39.40307236 -0.0603732 44.82948303 -0.05497742 C51.10125264 -0.04893693 57.37279795 -0.06124985 63.64452928 -0.08254749 C69.67855904 -0.10228433 75.71247127 -0.10533763 81.74653816 -0.10181236 C84.31382842 -0.10232672 86.88112218 -0.10758573 89.44839287 -0.11762428 C93.03490984 -0.12992663 96.62090444 -0.12323389 100.20741272 -0.11161804 C101.27300415 -0.11926178 102.33859558 -0.12690552 103.43647766 -0.13478088 C104.41368271 -0.12776657 105.39088776 -0.12075226 106.39770508 -0.11352539 C107.24554534 -0.11369313 108.0933856 -0.11386087 108.96691799 -0.1140337 C111.80213075 0.34881695 113.18659618 1.30220439 115.26234436 3.26069641 C115.73231506 5.68086243 115.73231506 5.68086243 115.68812561 8.51460266 C115.67555725 10.04310852 115.67555725 10.04310852 115.66273499 11.60249329 C115.63373108 12.66532532 115.60472717 13.72815735 115.57484436 14.82319641 C115.56517639 15.88989563 115.55550842 16.95659485 115.54554749 18.05561829 C115.43094249 25.92350015 115.43094249 25.92350015 114.26234436 28.26069641 C111.37962314 29.22160348 109.55801267 29.39053206 106.56265259 29.40113831 C105.59668152 29.40684845 104.63071045 29.41255859 103.63546753 29.41844177 C102.57720261 29.41955963 101.51893768 29.42067749 100.42860413 29.42182922 C99.3129306 29.42679413 98.19725708 29.43175903 97.04777527 29.43687439 C93.34976083 29.45150365 89.65178926 29.45829862 85.95375061 29.46382141 C83.38929238 29.46957136 80.82483417 29.47532911 78.26037598 29.48109436 C73.56887604 29.4902619 68.87739331 29.49656192 64.18588597 29.49959111 C57.28083811 29.50407418 50.37598798 29.52163583 43.47100025 29.55059171 C37.48930974 29.57480522 31.50771286 29.58253498 25.52596855 29.58426666 C22.98100138 29.58729937 20.43603517 29.59534858 17.89109993 29.60845184 C14.33573929 29.62545367 10.78086361 29.62364643 7.22547913 29.61714172 C5.64111809 29.6309639 5.64111809 29.6309639 4.02474976 29.64506531 C3.05595886 29.63949615 2.08716797 29.633927 1.08901978 29.62818909 C0.24855386 29.62965565 -0.59191206 29.63112221 -1.45784664 29.63263321 C-4.28665976 29.17112977 -5.66769768 28.21617567 -7.73765564 26.26069641 C-8.23936462 23.74873352 -8.23936462 23.74873352 -8.23374939 20.78804016 C-8.23439392 19.72391907 -8.23503845 18.65979797 -8.23570251 17.56343079 C-8.21572205 16.45290344 -8.19574158 15.3423761 -8.17515564 14.19819641 C-8.18224548 13.08380188 -8.18933533 11.96940735 -8.19664001 10.82124329 C-8.14823911 4.6817744 -8.14823911 4.6817744 -7.73765564 2.26069641 C-4.52531058 0.11913304 -3.69369672 0.0089475 0 0 Z M-4.73765564 5.26069641 C-5.20028095 7.15494814 -5.20028095 7.15494814 -5.13609314 9.32319641 C-5.13996033 10.11983704 -5.14382751 10.91647766 -5.14781189 11.73725891 C-5.13621033 12.56999329 -5.12460876 13.40272766 -5.11265564 14.26069641 C-5.1242572 15.09343079 -5.13585876 15.92616516 -5.14781189 16.78413391 C-5.1439447 17.58077454 -5.14007751 18.37741516 -5.13609314 19.19819641 C-5.13270935 19.92909485 -5.12932556 20.65999329 -5.12583923 21.41304016 C-4.87591918 23.67423764 -4.87591918 23.67423764 -1.73765564 25.26069641 C0.41530167 25.55822489 0.41530167 25.55822489 2.82363892 25.50793457 C3.75884369 25.51212906 4.69404846 25.51632355 5.65759277 25.52064514 C7.19359886 25.51221588 7.19359886 25.51221588 8.76063538 25.50361633 C10.38044312 25.50646385 10.38044312 25.50646385 12.03297424 25.5093689 C15.61080633 25.51308072 19.18843649 25.5023671 22.76625061 25.49116516 C25.24581885 25.48997355 27.72538754 25.48952016 30.20495605 25.48977661 C36.07093129 25.48801037 41.93683185 25.47662013 47.80278581 25.46127635 C53.81377059 25.44639473 59.82470886 25.44576863 65.83570957 25.44645214 C70.95621467 25.44618073 76.07670311 25.44070433 81.19720268 25.4334507 C83.66007804 25.43026011 86.12295529 25.42829572 88.5858326 25.42755699 C92.02173733 25.42539806 95.45756054 25.41666373 98.89344788 25.40596008 C100.43249031 25.40663986 100.43249031 25.40663986 102.00262451 25.40733337 C102.93500946 25.40306839 103.86739441 25.39880341 104.82803345 25.39440918 C105.64084558 25.39273334 106.4536577 25.39105749 107.2911005 25.38933086 C109.33975072 25.38366909 109.33975072 25.38366909 111.26234436 24.26069641 C111.3202628 21.1357739 111.35591182 18.01098875 111.38734436 14.88569641 C111.41248108 13.55151672 111.41248108 13.55151672 111.43812561 12.19038391 C111.44457092 11.33960266 111.45101624 10.48882141 111.45765686 9.61225891 C111.46813049 8.82673645 111.47860413 8.04121399 111.48939514 7.23188782 C111.44224563 5.02623141 111.44224563 5.02623141 109.26234436 3.26069641 C107.21510225 2.95733063 107.21510225 2.95733063 104.82803345 3.00672913 C103.8956485 3.00108948 102.96326355 2.99544983 102.00262451 2.98963928 C100.46358208 2.99571198 100.46358208 2.99571198 98.89344788 3.00190735 C97.81532837 2.99840271 96.73720886 2.99489807 95.62641907 2.99128723 C92.04796487 2.98245527 88.46970697 2.98832471 84.89125061 2.99507141 C82.41264813 2.99372509 79.93404591 2.99178483 77.45544434 2.98927307 C71.5870901 2.98594091 65.71880754 2.99295963 59.85046381 3.00357461 C55.16798541 3.01108059 50.48559111 3.00843181 45.80311584 2.99995422 C39.35581963 2.98838055 32.90860485 2.98653465 26.4613018 2.99306488 C23.99925149 2.99440185 21.53719773 2.99275201 19.07515144 2.98810577 C15.63688539 2.98304228 12.19888182 2.99074879 8.76063538 3.00190735 C7.73663132 2.99785889 6.71262726 2.99381042 5.65759277 2.98963928 C4.722388 2.99527893 3.78718323 3.00091858 2.82363892 3.00672913 C2.01044976 3.00748318 1.19726061 3.00823723 0.35942936 3.00901413 C-2.04139902 3.13703593 -2.04139902 3.13703593 -4.73765564 5.26069641 Z " fill="#DCDCDC" transform="translate(123.73765563964844,15.739303588867188)"/>

<path d="M0 0 C1.25841946 6.74153283 2.26404456 13.13484138 2 20 C-5.21470021 23.25712678 -12.12870923 25.00796946 -19.9375 26.1875 C-21.44860352 26.4340332 -21.44860352 26.4340332 -22.99023438 26.68554688 C-31.66827373 28.06398785 -40.38594488 29.17680591 -49.1875 29.0625 C-50.10917969 29.05347656 -51.03085938 29.04445313 -51.98046875 29.03515625 C-52.64691406 29.02355469 -53.31335938 29.01195312 -54 29 C-53.38640625 28.69964844 -52.7728125 28.39929688 -52.140625 28.08984375 C-49.24487512 26.61554773 -47.86533418 25.73138219 -46 23 C-45.35813755 17.78682446 -45.03714943 13.44427585 -48 9 C-47.25540527 8.89453857 -46.51081055 8.78907715 -45.74365234 8.68041992 C-31.55941516 6.65927031 -13.86239503 0 0 0 Z " fill="#DDDDDD" transform="translate(232,352)"/>
<path d="M0 0 C0.88155258 -0.00570007 1.76310516 -0.01140015 2.67137146 -0.01727295 C4.52772852 -0.02665962 6.38410177 -0.03323149 8.24047852 -0.03710938 C11.02716489 -0.04676609 13.81309687 -0.07783051 16.59960938 -0.109375 C30.50536269 -0.19283566 43.79269568 0.77779049 56.80859375 6.140625 C58.02160156 6.62402344 59.23460937 7.10742188 60.484375 7.60546875 C63.61213441 9.26468224 64.87712419 10.09876422 66.49609375 13.203125 C67.16603516 15.6939328 67.69367179 18.0477507 68.12109375 20.578125 C68.24661621 21.27768311 68.37213867 21.97724121 68.50146484 22.69799805 C69.50732502 28.59031898 69.99653472 34.43843932 70.28515625 40.41015625 C70.38816401 43.28580976 70.38816401 43.28580976 71.49609375 46.203125 C72.61211819 56.13895101 72.62228883 66.09269577 72.55859375 76.078125 C72.55355886 77.45963376 72.54899954 78.84114433 72.54492188 80.22265625 C72.53328946 83.54952746 72.51694655 86.87630102 72.49609375 90.203125 C66.48154419 89.19695269 60.60121527 88.04551728 54.7421875 86.3503418 C21.81639225 76.86270232 -13.9794796 79.71867322 -46.39526367 89.69995117 C-48.50390625 90.203125 -48.50390625 90.203125 -52.50390625 90.203125 C-52.68317717 77.87426553 -52.19656592 65.6829596 -51.25390625 53.390625 C-51.18766052 52.51659027 -51.12141479 51.64255554 -51.05316162 50.74203491 C-50.28398056 40.78313428 -49.50300479 30.83931226 -47.62890625 21.015625 C-47.42346191 19.88000122 -47.42346191 19.88000122 -47.21386719 18.72143555 C-46.1525857 13.88320682 -44.30824064 11.32040795 -40.50390625 8.203125 C-28.90890112 0.91095381 -13.34886226 0.0690113 0 0 Z M-30.62890625 6.015625 C-32.39621094 6.45841797 -32.39621094 6.45841797 -34.19921875 6.91015625 C-38.22420948 8.48494577 -40.57433197 10.00411542 -43.50390625 13.203125 C-44.63185955 16.12944117 -44.90387234 19.03068112 -45.19140625 22.140625 C-45.29751221 23.08341309 -45.40361816 24.02620117 -45.51293945 24.99755859 C-47.14957722 40.76705885 -47.9859853 56.63932453 -48.953125 72.4609375 C-49.00919922 73.36845261 -49.06527344 74.27596771 -49.12304688 75.21098328 C-49.36177792 79.21413065 -49.57694622 83.19058891 -49.50390625 87.203125 C-47.77463751 86.89119036 -46.04549581 86.57855138 -44.31640625 86.265625 C-42.87201172 86.00458984 -42.87201172 86.00458984 -41.3984375 85.73828125 C-38.76150653 85.2507515 -36.13191575 84.73641395 -33.50390625 84.203125 C-33.50390625 83.543125 -33.50390625 82.883125 -33.50390625 82.203125 C-32.96765625 82.15414062 -32.43140625 82.10515625 -31.87890625 82.0546875 C-27.92579285 81.67758129 -23.99014952 81.27190929 -20.05737305 80.71557617 C-9.77384182 79.27279628 0.30669034 78.84296557 10.68359375 78.890625 C11.49014404 78.89211548 12.29669434 78.89360596 13.12768555 78.8951416 C29.40406143 78.94907954 45.24222943 79.84018148 60.70703125 85.3359375 C63.94902691 86.34395296 67.13082309 86.79394817 70.49609375 87.203125 C72.40805679 48.79519113 72.40805679 48.79519113 63.49609375 12.203125 C56.20656122 5.9766493 46.68330821 4.87426691 37.49609375 3.203125 C36.59052734 3.02515381 35.68496094 2.84718262 34.75195312 2.66381836 C30.87788372 2.11565032 27.06390809 2.04094817 23.16015625 2.03515625 C21.96463638 2.03016365 21.96463638 2.03016365 20.7449646 2.02507019 C19.05898613 2.02002321 17.37299774 2.01766117 15.68701172 2.01782227 C13.16355862 2.01566136 10.64056192 1.99755343 8.1171875 1.97851562 C-4.97534488 1.93227868 -17.90318475 2.67049687 -30.62890625 6.015625 Z " fill="#C3C3C3" transform="translate(166.50390625,54.796875)"/>
<path d="M0 0 C0.66 0 1.32 0 2 0 C2 14.85 2 29.7 2 45 C-0.64 45.33 -3.28 45.66 -6 46 C-7.99347469 47.31593208 -7.99347469 47.31593208 -9.375 49.0625 C-12.22231875 51.7530856 -14.1994696 52.5569921 -18.125 52.8125 C-21.08935715 52.65031633 -22.48005704 52.47883119 -24.6796875 50.453125 C-26 48.5625 -26 48.5625 -27.0625 46.62890625 C-27.90573191 44.81708257 -27.90573191 44.81708257 -30 44 C-30 36.41 -30 28.82 -30 21 C-27.69 21 -25.38 21 -23 21 C-22.34 19.68 -21.68 18.36 -21 17 C-20.01 17.33 -19.02 17.66 -18 18 C-18.66 18.495 -19.32 18.99 -20 19.5 C-22.10448312 22.13060389 -22.3578457 22.84625894 -22.5 26.0625 C-22.34442335 29.88413151 -22.34442335 29.88413151 -20.5 32 C-16.07459023 33.77016391 -11.92540977 33.77016391 -7.5 32 C-5.5438796 29.39183946 -5.43852683 27.14323803 -5.62109375 23.93359375 C-5.91062445 21.80937485 -5.91062445 21.80937485 -7.5625 19.625 C-10.58522026 17.60985316 -13.47781093 16.81281286 -17 16 C-17 15.67 -17 15.34 -17 15 C-15.96875 14.979375 -14.9375 14.95875 -13.875 14.9375 C-8.02947759 13.52326071 -5.82434643 9.92008392 -2.73828125 4.98046875 C-1.78721112 3.34195846 -0.88799695 1.67353272 0 0 Z " fill="#DDDDDD" transform="translate(54,331)"/>
<path d="M0 0 C1.93166016 0.01740234 1.93166016 0.01740234 3.90234375 0.03515625 C5.19269531 0.04417969 6.48304688 0.05320313 7.8125 0.0625 C8.81152344 0.07410156 9.81054688 0.08570313 10.83984375 0.09765625 C10.83984375 1.41765625 10.83984375 2.73765625 10.83984375 4.09765625 C11.82984375 4.09765625 12.81984375 4.09765625 13.83984375 4.09765625 C13.83984375 11.68765625 13.83984375 19.27765625 13.83984375 27.09765625 C11.85984375 27.42765625 9.87984375 27.75765625 7.83984375 28.09765625 C7.50984375 29.08765625 7.17984375 30.07765625 6.83984375 31.09765625 C5.83984375 29.09765625 5.83984375 29.09765625 6.02734375 25.22265625 C6.04368408 22.22692842 5.93183632 21.2509772 4.33984375 18.59765625 C0.64259497 16.37930698 -1.87178112 16.75730902 -6.16015625 17.09765625 C-7.15015625 17.42765625 -8.14015625 17.75765625 -9.16015625 18.09765625 C-10.40240922 21.82441515 -10.78806221 25.19974654 -10.16015625 29.09765625 C-8.27937752 31.01022337 -8.27937752 31.01022337 -6.16015625 32.09765625 C-6.16015625 32.75765625 -6.16015625 33.41765625 -6.16015625 34.09765625 C-3.52015625 34.09765625 -0.88015625 34.09765625 1.83984375 34.09765625 C1.83984375 34.42765625 1.83984375 34.75765625 1.83984375 35.09765625 C1.27136719 35.06542969 0.70289063 35.03320312 0.1171875 35 C-3.85062587 35.05961656 -6.28030052 35.26887829 -9.24609375 38.0625 C-11.00350339 40.35009862 -12.61706693 42.66119943 -14.16015625 45.09765625 C-14.82015625 46.08765625 -15.48015625 47.07765625 -16.16015625 48.09765625 C-16.82015625 48.09765625 -17.48015625 48.09765625 -18.16015625 48.09765625 C-18.16015625 34.89765625 -18.16015625 21.69765625 -18.16015625 8.09765625 C-13.58588533 6.57289928 -9.86730793 5.66251445 -5.16015625 5.09765625 C-5.01578125 4.45828125 -4.87140625 3.81890625 -4.72265625 3.16015625 C-3.8194145 -0.15173017 -3.62265381 0.11194851 0 0 Z " fill="#DDDDDD" transform="translate(315.16015625,56.90234375)"/>


<!-- sol ön çamurluk -->
<path d="M0 0 C3.63 0 7.26 0 11 0 C11.66 1.32 12.32 2.64 13 4 C15.82566342 5.10240022 15.82566342 5.10240022 19.0625 5.6875 C24.93806647 6.93806647 24.93806647 6.93806647 26 8 C26.08851529 10.59359322 26.11525945 13.16039691 26.09765625 15.75390625 C26.0962413 16.52935287 26.09482635 17.3047995 26.09336853 18.10374451 C26.08775345 20.59003494 26.07519846 23.0762366 26.0625 25.5625 C26.05748694 27.24413933 26.0529237 28.92578006 26.04882812 30.60742188 C26.03777913 34.73831566 26.02050445 38.86914276 26 43 C24 41 24 41 22.5625 38.5625 C21.19836063 36.32531144 19.92675654 34.74325592 18 33 C18.32355469 32.29101562 18.64710937 31.58203125 18.98046875 30.8515625 C20.05551966 27.84471513 20.29935602 25.55584414 20.3125 22.375 C20.32925781 21.43398437 20.34601562 20.49296875 20.36328125 19.5234375 C20.17638883 17.00597318 20.17638883 17.00597318 18.85546875 15.19140625 C16.20403044 13.48890375 14.128118 13.56633348 11 13.5625 C9.948125 13.54316406 8.89625 13.52382812 7.8125 13.50390625 C4.91294808 13.73899629 4.91294808 13.73899629 3.16796875 15.82421875 C1.72052907 18.52061976 1.34356622 20.97661723 1 24 C-0.32 24 -1.64 24 -3 24 C-3 17.07 -3 10.14 -3 3 C-2.01 3 -1.02 3 0 3 C0 2.01 0 1.02 0 0 Z " fill="#DDDDDD" transform="translate(29,59)"/>
 
<!-- ön Farlar Önü -->
<path d="M0 0 C0.82951172 -0.00386719 1.65902344 -0.00773438 2.51367188 -0.01171875 C3.37669922 -0.00011719 4.23972656 0.01148437 5.12890625 0.0234375 C5.98806641 0.01183594 6.84722656 0.00023438 7.73242188 -0.01171875 C11.19026953 0.00437674 14.0326025 0.15472965 17.2890625 1.359375 C18.69140625 3.3984375 18.69140625 3.3984375 18.69140625 12.3984375 C10.11140625 12.3984375 1.53140625 12.3984375 -7.30859375 12.3984375 C-7.30859375 9.4284375 -7.30859375 6.4584375 -7.30859375 3.3984375 C-3.9277639 0.01760765 -3.9277639 0.01760765 0 0 Z " fill="#E0E0E0" transform="translate(210.30859375,1.6015625)"/>
<path d="M0 0 C1.29454102 0.01063477 1.29454102 0.01063477 2.61523438 0.02148438 C3.90397461 -0.00848633 3.90397461 -0.00848633 5.21875 -0.0390625 C9.00426996 -0.03612571 11.4729011 0.04456361 14.77539062 1.98632812 C16.17773438 4.45898438 16.17773438 4.45898438 16.17773438 12.45898438 C7.59773438 12.45898438 -0.98226562 12.45898438 -9.82226562 12.45898438 C-9.82226562 9.48898437 -9.82226562 6.51898437 -9.82226562 3.45898438 C-6.14118654 -0.22209471 -4.90519099 0.04954738 0 0 Z " fill="#E0E0E0" transform="translate(136.822265625,1.541015625)"/>

<!-- Arka Farlar -->
<path d="M0 0 C8.58 0 17.16 0 26 0 C26 8 26 8 24.29345703 9.97509766 C21.77131784 11.10219371 20.05977163 11.38684528 17.3046875 11.3984375 C16.42425781 11.40230469 15.54382813 11.40617187 14.63671875 11.41015625 C13.72535156 11.39855469 12.81398437 11.38695312 11.875 11.375 C10.49634766 11.39240234 10.49634766 11.39240234 9.08984375 11.41015625 C8.21199219 11.40628906 7.33414063 11.40242188 6.4296875 11.3984375 C5.62772949 11.39505371 4.82577148 11.39166992 3.99951172 11.38818359 C3.33967285 11.26008301 2.67983398 11.13198242 2 11 C0 8 0 8 0 0 Z " fill="#DEDEDE" transform="translate(127,428)"/>
<path d="M0 0 C8.58 0 17.16 0 26 0 C26 2.64 26 5.28 26 8 C25.34 8 24.68 8 24 8 C24 8.66 24 9.32 24 10 C20.34169572 11.82915214 16.02743635 11.22762535 12 11.25 C11.071875 11.270625 10.14375 11.29125 9.1875 11.3125 C7.8571875 11.32023437 7.8571875 11.32023437 6.5 11.328125 C5.6853125 11.3374707 4.870625 11.34681641 4.03125 11.35644531 C3.3609375 11.23881836 2.690625 11.12119141 2 11 C0 8 0 8 0 0 Z " fill="#DEDEDE" transform="translate(203,428)"/>

<!-- ön Farlar -->
<path d="M0 0 C0.79341797 -0.00386719 1.58683594 -0.00773437 2.40429688 -0.01171875 C8.31086933 -0.00163067 8.31086933 -0.00163067 9.4375 1.125 C8.84116972 8.51949541 8.84116972 8.51949541 6.4375 12.125 C4.00732422 12.46557617 4.00732422 12.46557617 0.9921875 12.41796875 C-0.08417969 12.40830078 -1.16054687 12.39863281 -2.26953125 12.38867188 C-3.39746094 12.36353516 -4.52539062 12.33839844 -5.6875 12.3125 C-6.82316406 12.29896484 -7.95882812 12.28542969 -9.12890625 12.27148438 C-11.94057387 12.23604319 -14.75130417 12.18663517 -17.5625 12.125 C-13.93776693 2.74897272 -10.01370494 -0.04904672 0 0 Z " fill="#FDFDFD" transform="translate(221.5625,22.875)"/>
<path d="M0 0 C0.71671875 -0.020625 1.4334375 -0.04125 2.171875 -0.0625 C6.75356787 -0.09618892 9.63688475 0.39478958 13.25 3.25 C14.83203125 5.00390625 14.83203125 5.00390625 16.0625 6.8125 C16.48144531 7.41191406 16.90039062 8.01132812 17.33203125 8.62890625 C18.25 10.25 18.25 10.25 18.25 12.25 C14.6458502 12.27900455 11.04173038 12.29680018 7.4375 12.3125 C5.90125977 12.32506836 5.90125977 12.32506836 4.33398438 12.33789062 C2.85961914 12.34272461 2.85961914 12.34272461 1.35546875 12.34765625 C0.44949951 12.35289307 -0.45646973 12.35812988 -1.38989258 12.36352539 C-3.75 12.25 -3.75 12.25 -6.75 11.25 C-8.54004452 7.8583367 -9.06779621 5.06355451 -8.75 1.25 C-6.72363933 -0.77636067 -2.77022651 0.01950864 0 0 Z " fill="#FDFDFD" transform="translate(132.75,22.75)"/>

<path d="M0 0 C0.556875 1.175625 1.11375 2.35125 1.6875 3.5625 C5.61272192 11.30352999 9.12855737 16.0103647 17 20 C21.62 21.32 26.24 22.64 31 24 C31 48.42 31 72.84 31 98 C30.67 98 30.34 98 30 98 C30 73.91 30 49.82 30 25 C27.69 25 25.38 25 23 25 C15.29884603 23.21012935 9.12086924 18.94746624 4 13 C2.03274455 9.77333336 0.42610533 6.49718291 -1 3 C-13.26409511 11.22061961 -22.01605971 23.14954986 -29 36 C-29.66 36 -30.32 36 -31 36 C-31.33 36.99 -31.66 37.98 -32 39 C-32.33 38.34 -32.66 37.68 -33 37 C-28.64117989 27.86053849 -22.23472886 19.03138589 -15 12 C-14.05651294 11.04893473 -13.11515186 10.09575632 -12.17578125 9.140625 C-11.22136663 8.17707098 -10.26693948 7.21352938 -9.3125 6.25 C-8.82716797 5.75628906 -8.34183594 5.26257813 -7.84179688 4.75390625 C-3.12045163 0 -3.12045163 0 0 0 Z " fill="#BCBCBC" transform="translate(298,123)"/>
<path d="M0 0 C0.66 0 1.32 0 2 0 C2 14.85 2 29.7 2 45 C-0.64 45.33 -3.28 45.66 -6 46 C-7.99347469 47.31593208 -7.99347469 47.31593208 -9.375 49.0625 C-12.22231875 51.7530856 -14.1994696 52.5569921 -18.125 52.8125 C-21.08935715 52.65031633 -22.48005704 52.47883119 -24.6796875 50.453125 C-26 48.5625 -26 48.5625 -27.0625 46.62890625 C-27.90573191 44.81708257 -27.90573191 44.81708257 -30 44 C-30 36.41 -30 28.82 -30 21 C-27.69 21 -25.38 21 -23 21 C-22.34 19.68 -21.68 18.36 -21 17 C-20.01 17.33 -19.02 17.66 -18 18 C-18.639375 18.495 -19.27875 18.99 -19.9375 19.5 C-22.81515269 22.98806387 -22.70230736 25.53461041 -23 30 C-23.33 30 -23.66 30 -24 30 C-24 27.69 -24 25.38 -24 23 C-25.32 23 -26.64 23 -28 23 C-27.94802079 26.08469706 -27.85292865 29.16661559 -27.75 32.25 C-27.73582031 33.12269531 -27.72164062 33.99539063 -27.70703125 34.89453125 C-27.5829994 40.05679622 -27.5829994 40.05679622 -25.078125 44.421875 C-24.39234375 44.94265625 -23.7065625 45.4634375 -23 46 C-22.34 46.99 -21.68 47.98 -21 49 C-17.85034748 49.47244788 -16.0096852 49.72979209 -13 49 C-11.31768267 47.56336762 -10.0844283 46.11997706 -8.8125 44.3125 C-7 43 -7 43 1 43 C0.505 24.685 0.505 24.685 0 6 C-1.98 8.64 -3.96 11.28 -6 14 C-7.32 14.33 -8.64 14.66 -10 15 C-9.61328125 14.50371094 -9.2265625 14.00742187 -8.828125 13.49609375 C-5.49729049 9.15116853 -2.60742538 4.81370839 0 0 Z " fill="#B9BDC1" transform="translate(54,331)"/>
<path d="M0 0 C1.93166016 0.01740234 1.93166016 0.01740234 3.90234375 0.03515625 C5.19269531 0.04417969 6.48304688 0.05320313 7.8125 0.0625 C8.81152344 0.07410156 9.81054688 0.08570313 10.83984375 0.09765625 C10.83984375 1.41765625 10.83984375 2.73765625 10.83984375 4.09765625 C11.82984375 4.09765625 12.81984375 4.09765625 13.83984375 4.09765625 C13.83984375 11.68765625 13.83984375 19.27765625 13.83984375 27.09765625 C11.85984375 27.09765625 9.87984375 27.09765625 7.83984375 27.09765625 C7.83984375 26.76765625 7.83984375 26.43765625 7.83984375 26.09765625 C9.48984375 26.09765625 11.13984375 26.09765625 12.83984375 26.09765625 C12.83984375 19.16765625 12.83984375 12.23765625 12.83984375 5.09765625 C11.84984375 5.09765625 10.85984375 5.09765625 9.83984375 5.09765625 C9.83984375 4.10765625 9.83984375 3.11765625 9.83984375 2.09765625 C3.89984375 2.59265625 3.89984375 2.59265625 -2.16015625 3.09765625 C-2.49015625 4.41765625 -2.82015625 5.73765625 -3.16015625 7.09765625 C-7.87274197 8.3756456 -11.20280673 9.09765625 -16.16015625 9.09765625 C-15.83015625 19.98765625 -15.50015625 30.87765625 -15.16015625 42.09765625 C-9.74857332 36.06235459 -9.74857332 36.06235459 -10.34765625 31.66015625 C-10.61578125 30.81453125 -10.88390625 29.96890625 -11.16015625 29.09765625 C-8.66015625 30.47265625 -8.66015625 30.47265625 -6.16015625 32.09765625 C-6.16015625 32.75765625 -6.16015625 33.41765625 -6.16015625 34.09765625 C-3.52015625 34.09765625 -0.88015625 34.09765625 1.83984375 34.09765625 C1.83984375 34.42765625 1.83984375 34.75765625 1.83984375 35.09765625 C1.27136719 35.06542969 0.70289063 35.03320312 0.1171875 35 C-3.85062587 35.05961656 -6.28030052 35.26887829 -9.24609375 38.0625 C-11.00350339 40.35009862 -12.61706693 42.66119943 -14.16015625 45.09765625 C-14.82015625 46.08765625 -15.48015625 47.07765625 -16.16015625 48.09765625 C-16.82015625 48.09765625 -17.48015625 48.09765625 -18.16015625 48.09765625 C-18.16015625 34.89765625 -18.16015625 21.69765625 -18.16015625 8.09765625 C-13.58588533 6.57289928 -9.86730793 5.66251445 -5.16015625 5.09765625 C-5.01578125 4.45828125 -4.87140625 3.81890625 -4.72265625 3.16015625 C-3.8194145 -0.15173017 -3.62265381 0.11194851 0 0 Z " fill="#B7B7B7" transform="translate(315.16015625,56.90234375)"/>
<path d="M0 0 C0.67675781 -0.01611328 1.35351562 -0.03222656 2.05078125 -0.04882812 C4.95363801 -0.0516909 7.01408534 -0.00473423 9.48046875 1.60546875 C11.23699133 4.54646633 10.26622034 7.12973857 9.5 10.3125 C6.33928451 11.89285774 2.96725496 11.53825346 -0.5 11.5625 C-1.60601562 11.5934375 -1.60601562 11.5934375 -2.734375 11.625 C-4.875 11.640625 -4.875 11.640625 -8.5 11.3125 C-10.80019361 7.86220958 -10.93132515 6.36695642 -10.5 2.3125 C-6.88536441 -0.09725706 -4.1778074 -0.01989432 0 0 Z " fill="#FDFDFD" transform="translate(134.5,404.6875)"/>
<path d="M0 0 C0.68126953 -0.020625 1.36253906 -0.04125 2.06445312 -0.0625 C4.98507008 -0.08538436 7.05907711 -0.07702668 9.546875 1.5390625 C11.29532213 4.48452343 10.32897549 7.06617872 9.5625 10.25 C6.54391234 11.75929383 3.43349046 11.47510073 0.125 11.5 C-0.8969043 11.5309375 -0.8969043 11.5309375 -1.93945312 11.5625 C-4.86007008 11.58538436 -6.93407711 11.57702668 -9.421875 9.9609375 C-11.17032213 7.01547657 -10.20397549 4.43382128 -9.4375 1.25 C-6.41891234 -0.25929383 -3.30849046 0.02489927 0 0 Z " fill="#FEFEFE" transform="translate(220.4375,404.75)"/>
<path d="M0 0 C2.02558881 3.34939881 2.21738987 5.86962551 2.125 9.75 C2.10695312 10.73484375 2.08890625 11.7196875 2.0703125 12.734375 C2.04710937 13.48203125 2.02390625 14.2296875 2 15 C-2.69624182 15.11844242 -6.85829639 14.78348173 -11.4375 13.75 C-12.64535156 13.47800781 -13.85320312 13.20601562 -15.09765625 12.92578125 C-21.75155373 11.36264881 -28.37648699 9.68660589 -35 8 C-37.66606181 7.33088661 -40.33297715 6.66527732 -43 6 C-43 5.67 -43 5.34 -43 5 C-35.90593106 5.58476056 -28.98436101 6.63233995 -22 8 C-28.9796804 6.22850751 -35.96212627 4.52487264 -43 3 C-43 2.67 -43 2.34 -43 2 C-35.07199121 2.54602881 -27.36602596 3.99068284 -19.59301758 5.58398438 C-17.54287071 6.00402168 -15.49132964 6.41662832 -13.43945312 6.828125 C-3.46954594 8.84348469 -3.46954594 8.84348469 0 10 C-0.185625 9.0925 -0.37125 8.185 -0.5625 7.25 C-0.95734621 4.31685676 -0.94691572 2.7355343 0 0 Z " fill="#C3C3C3" transform="translate(112,227)"/>
<path d="M0 0 C0.99 0 1.98 0 3 0 C3.33 1.98 3.66 3.96 4 6 C3.67 6 3.34 6 3 6 C2.67 18.21 2.34 30.42 2 43 C4.64 43 7.28 43 10 43 C10.804375 43.969375 11.60875 44.93875 12.4375 45.9375 C15.25772765 49.30801597 15.70298388 49.4589275 19.8125 49.875 C21.20728577 49.94326031 22.60355817 49.99391529 24 50 C24.2475 49.4225 24.495 48.845 24.75 48.25 C26 46 26 46 28.078125 44.359375 C31.07573743 40.67937926 30.67504476 36.86315459 30.75 32.25 C30.79447266 30.91775391 30.79447266 30.91775391 30.83984375 29.55859375 C30.91036918 27.37230551 30.96314637 25.18707232 31 23 C29.35 23 27.7 23 26 23 C26.33 22.34 26.66 21.68 27 21 C28.65 21.33 30.3 21.66 32 22 C32 29.26 32 36.52 32 44 C30.02 44.495 30.02 44.495 28 45 C26.83046584 47.42383077 26.83046584 47.42383077 26 50 C23.55004198 52.44995802 22.63855045 52.37677998 19.25 52.5 C14.57491692 52.43971956 14.57491692 52.43971956 12.2890625 50.69140625 C10.875 49.0625 10.875 49.0625 9.7421875 47.41015625 C7.32623171 45.20094236 7.32623171 45.20094236 0 45 C0 30.15 0 15.3 0 0 Z " fill="#B6B6B6" transform="translate(297,331)"/>
<path d="M0 0 C3.25543229 0.34879632 4.01873107 1.02133261 6.25 3.5625 C6.8275 4.366875 7.405 5.17125 8 6 C7.401875 5.690625 6.80375 5.38125 6.1875 5.0625 C3.91043228 3.89790296 3.91043228 3.89790296 1 3 C0.7525 3.70125 0.505 4.4025 0.25 5.125 C-2.82281665 12.19247829 -7.67725931 18.85747881 -14.6875 22.33203125 C-19.90234886 24.33719732 -23.25522284 25 -29 25 C-28.67 49.42 -28.34 73.84 -28 99 C-28.66 99 -29.32 99 -30 99 C-30 74.25 -30 49.5 -30 24 C-25.05 22.35 -20.1 20.7 -15 19 C-7.28603293 14.30907408 -2.94097199 8.55555489 0 0 Z " fill="#B6B6B6" transform="translate(54,123)"/>
<path d="M0 0 C1.65 0.33 3.3 0.66 5 1 C5 1.66 5 2.32 5 3 C6.175625 3.20625 7.35125 3.4125 8.5625 3.625 C15.67321534 5.20143218 22.30668807 8.19267389 29 11 C30.10601562 11.46148437 31.21203125 11.92296875 32.3515625 12.3984375 C34.35109382 13.23368476 36.34984348 14.07080672 38.34765625 14.91015625 C40.67530833 15.86658472 43.01131509 16.7626348 45.375 17.625 C48.71663545 18.89251689 51.83816767 20.34003803 55 22 C55.103125 20.906875 55.20625 19.81375 55.3125 18.6875 C56 15 56 15 59 12 C58.34 15.96 57.68 19.92 57 24 C51.76457859 23.43034275 47.16328506 22.16853223 42.25 20.25 C41.5489917 19.98195557 40.8479834 19.71391113 40.12573242 19.43774414 C35.2312365 17.54290146 30.45863147 15.44460517 25.70703125 13.21484375 C22.67730138 11.85518143 19.6069935 10.67196817 16.5 9.5 C10.54124371 7.25208595 4.76029281 4.71276315 -1 2 C-0.67 1.34 -0.34 0.68 0 0 Z " fill="#C5C5C5" transform="translate(241,295)"/>
<path d="M0 0 C1.2127787 0.00212242 1.2127787 0.00212242 2.45005798 0.00428772 C4.99669317 0.00982211 7.54323578 0.02236165 10.08984375 0.03515625 C11.83137893 0.04017975 13.5729155 0.04474116 15.31445312 0.04882812 C19.55211823 0.05976991 23.78971538 0.07698799 28.02734375 0.09765625 C28.02734375 0.42765625 28.02734375 0.75765625 28.02734375 1.09765625 C27.10848389 1.09652832 26.18962402 1.09540039 25.24291992 1.09423828 C9.19357915 1.14018772 -6.50484728 1.32893925 -22.22265625 4.91015625 C-23.86004761 5.28261475 -23.86004761 5.28261475 -25.53051758 5.66259766 C-31.23125769 7.08112347 -36.24817225 8.54152437 -40.97265625 12.09765625 C-42.95616211 16.18934549 -43.45726298 20.48990337 -44.09765625 24.97265625 C-44.26523438 26.12507813 -44.4328125 27.2775 -44.60546875 28.46484375 C-44.72664063 29.33367187 -44.8478125 30.2025 -44.97265625 31.09765625 C-45.63265625 30.76765625 -46.29265625 30.43765625 -46.97265625 30.09765625 C-47.2946483 23.4431538 -47.27395662 17.06031261 -43.97265625 11.09765625 C-33.52751679 0.87149246 -13.78348646 -0.09325276 0 0 Z " fill="#BEBEBE" transform="translate(165.97265625,54.90234375)"/>
<path d="M0 0 C-3.16222388 2.10814925 -4.79186132 2.45711142 -8.484375 3.0078125 C-9.6285791 3.18586426 -10.7727832 3.36391602 -11.95166016 3.54736328 C-13.83183838 3.83329346 -13.83183838 3.83329346 -15.75 4.125 C-28.44580333 6.12600569 -41.03823105 8.52860061 -53.625 11.125 C-54.45366577 11.29485413 -55.28233154 11.46470825 -56.1361084 11.63970947 C-64.70237928 13.39890371 -73.2099037 15.19522387 -81.63037109 17.57763672 C-84.12895847 18.02298559 -85.62041272 17.81346913 -88 17 C-77.74609375 14.265625 -77.74609375 14.265625 -75.58032227 13.69287109 C-73.61675503 13.16561177 -71.65694698 12.62433056 -69.69897461 12.07666016 C-60.4293307 9.5209907 -51.14818714 7.57390646 -41.6875 5.875 C-39.61425572 5.49681073 -37.54132815 5.11691891 -35.46841431 4.73692322 C-33.49727323 4.37598677 -31.52574069 4.01719021 -29.55419922 3.65844727 C-26.52579561 3.09740835 -23.50624018 2.50872745 -20.48828125 1.89453125 C-16.50297095 1.08641159 -12.52345131 0.40444582 -8.5 -0.1875 C-7.3140625 -0.36667969 -6.128125 -0.54585937 -4.90625 -0.73046875 C-2 -1 -2 -1 0 0 Z " fill="#D6D6D6" transform="translate(327,223)"/>
<path d="M0 0 C26.07 0 52.14 0 79 0 C79 0.33 79 0.66 79 1 C53.26 1 27.52 1 1 1 C1.33 3.64 1.66 6.28 2 9 C2.07429399 10.55597871 2.11839334 12.11413123 2.11352539 13.671875 C2.11344986 14.49212158 2.11337433 15.31236816 2.11329651 16.1574707 C2.10813522 17.01300537 2.10297394 17.86854004 2.09765625 18.75 C2.0962413 19.64871826 2.09482635 20.54743652 2.09336853 21.47338867 C2.08781583 24.31562775 2.07527237 27.15778513 2.0625 30 C2.05747888 31.93880094 2.05291705 33.87760312 2.04882812 35.81640625 C2.03786194 40.54430183 2.02063044 45.27213711 2 50 C1.67 50 1.34 50 1 50 C0.67 40.76 0.34 31.52 0 22 C-0.33 22 -0.66 22 -1 22 C-1.02792366 20.39594109 -1.0467943 18.79172506 -1.0625 17.1875 C-1.07410156 16.29417969 -1.08570313 15.40085938 -1.09765625 14.48046875 C-0.9618884 9.64170251 -0.43825372 4.82079094 0 0 Z " fill="#D0D0D0" transform="translate(137,236)"/>
<path d="M0 0 C2.03650665 -0.37752342 2.03650665 -0.37752342 4.59289551 -0.38095093 C5.56038223 -0.3894104 6.52786896 -0.39786987 7.52467346 -0.40658569 C8.58967575 -0.400513 9.65467804 -0.39444031 10.75195312 -0.38818359 C12.43006325 -0.39606903 12.43006325 -0.39606903 14.14207458 -0.40411377 C17.85527337 -0.41736198 21.56804655 -0.40855837 25.28125 -0.3984375 C27.85192955 -0.40045684 30.42260855 -0.4033671 32.99328613 -0.40713501 C38.38702357 -0.41156492 43.78059983 -0.40539019 49.17431641 -0.39111328 C55.41487575 -0.37478583 61.65514109 -0.38007405 67.8956933 -0.3965925 C73.89290091 -0.41183294 79.88996436 -0.41023758 85.88719177 -0.4014473 C88.44217469 -0.39944029 90.99716507 -0.401922 93.55213928 -0.40888596 C97.11764655 -0.41647055 100.68258237 -0.40493771 104.24804688 -0.38818359 C105.84555031 -0.39729263 105.84555031 -0.39729263 107.47532654 -0.40658569 C108.44281326 -0.39812622 109.41029999 -0.38966675 110.40710449 -0.38095093 C111.25071281 -0.37981985 112.09432114 -0.37868877 112.96349335 -0.37752342 C113.63554054 -0.25294069 114.30758774 -0.12835796 115 0 C117.1165563 3.17483445 117.22929149 3.66699005 116.9765625 7.23046875 C116.89921875 8.43413086 116.89921875 8.43413086 116.8203125 9.66210938 C116.72363281 10.91217773 116.72363281 10.91217773 116.625 12.1875 C116.53992188 13.4549707 116.53992188 13.4549707 116.453125 14.74804688 C116.31179176 16.83271217 116.1571675 18.91646866 116 21 C115.67 21 115.34 21 115 21 C114.93941406 19.71222656 114.87882812 18.42445312 114.81640625 17.09765625 C114.73201753 15.41925841 114.6473687 13.74087364 114.5625 12.0625 C114.52318359 11.21236328 114.48386719 10.36222656 114.44335938 9.48632812 C114.40146484 8.67744141 114.35957031 7.86855469 114.31640625 7.03515625 C114.27974854 6.2862915 114.24309082 5.53742676 114.20532227 4.76586914 C114.18228937 2.97538674 114.18228937 2.97538674 113 2 C111.56692855 1.90227643 110.12907213 1.87368295 108.69267273 1.87301636 C107.7631076 1.87019653 106.83354248 1.86737671 105.87580872 1.86447144 C104.8477562 1.86649567 103.81970367 1.8685199 102.76049805 1.87060547 C101.68413086 1.86885315 100.60776367 1.86710083 99.4987793 1.86529541 C95.91974299 1.86087325 92.34075561 1.86381678 88.76171875 1.8671875 C86.28408295 1.86651442 83.80644722 1.86554436 81.32881165 1.86428833 C75.45809438 1.86262111 69.587395 1.86613426 63.71668035 1.8714391 C59.03482715 1.87518859 54.35299499 1.87387097 49.67114258 1.86962891 C43.22501324 1.86383792 36.77890426 1.86292136 30.33277321 1.86618423 C27.87154956 1.86685231 25.41032505 1.86602922 22.9491024 1.86370468 C19.5086067 1.86116943 16.06817637 1.86503159 12.62768555 1.87060547 C11.09471581 1.86756912 11.09471581 1.86756912 9.53077698 1.86447144 C8.59275238 1.86729126 7.65472778 1.87011108 6.6882782 1.87301636 C5.46792893 1.8735819 5.46792893 1.8735819 4.22292614 1.87415886 C2.02661113 1.99849353 0.10921245 2.39198765 -2 3 C-1.34 2.01 -0.68 1.02 0 0 Z " fill="#C6C6C6" transform="translate(120,18)"/>
<path d="M0 0 C0.33 0 0.66 0 1 0 C1.04898438 1.18078125 1.09796875 2.3615625 1.1484375 3.578125 C1.22348879 5.13543937 1.29903561 6.69272991 1.375 8.25 C1.4059375 9.02730469 1.436875 9.80460937 1.46875 10.60546875 C1.50742188 11.35957031 1.54609375 12.11367188 1.5859375 12.890625 C1.6173584 13.58188477 1.6487793 14.27314453 1.68115234 14.98535156 C1.96448133 17.43212901 1.96448133 17.43212901 4 21 C40.63 21 77.26 21 115 21 C115 21.33 115 21.66 115 22 C100.44886146 22.07004827 85.89774902 22.12276823 71.34647655 22.15543652 C64.59022069 22.17091241 57.83406953 22.19201557 51.07788086 22.22631836 C44.56159671 22.25938735 38.04538061 22.27683794 31.52901649 22.28463173 C29.03903805 22.29018814 26.54906578 22.30103796 24.05913353 22.31719017 C20.57989853 22.33886869 17.10111749 22.3419709 13.62182617 22.34057617 C12.06708084 22.35675491 12.06708084 22.35675491 10.48092651 22.3732605 C9.53441727 22.36913651 8.58790802 22.36501251 7.61271667 22.36076355 C6.78955554 22.36352893 5.96639441 22.36629431 5.11828899 22.36914349 C2.48971941 21.91107599 1.60566815 21.09369559 0 19 C-0.34057617 16.9152832 -0.34057617 16.9152832 -0.29296875 14.55078125 C-0.28330078 13.70322266 -0.27363281 12.85566406 -0.26367188 11.98242188 C-0.23853516 11.10134766 -0.21339844 10.22027344 -0.1875 9.3125 C-0.17396484 8.41982422 -0.16042969 7.52714844 -0.14648438 6.60742188 C-0.11114079 4.40433834 -0.06180493 2.20247418 0 0 Z " fill="#C4C4C4" transform="translate(118,402)"/>
<path d="M0 0 C12.58103971 0.3919327 24.67099066 2.56866597 37 5 C37 5.66 37 6.32 37 7 C33.7 6.67 30.4 6.34 27 6 C28.464375 6.28875 29.92875 6.5775 31.4375 6.875 C33.93359375 7.3671875 33.93359375 7.3671875 36 8 C36.495 8.99 36.495 8.99 37 10 C34.14488509 9.71599915 31.2911551 9.42304348 28.4375 9.125 C27.23770508 9.00705078 27.23770508 9.00705078 26.01367188 8.88671875 C21.13379421 8.36885418 16.72348031 7.3774558 12 6 C8.69617571 5.52708678 5.39767331 5.13115336 2.078125 4.7890625 C0.37660494 4.5908935 -1.31394136 4.30273372 -3 4 C-3.33 3.34 -3.66 2.68 -4 2 C1.28 2.33 6.56 2.66 12 3 C6.06 2.01 6.06 2.01 0 1 C0 0.67 0 0.34 0 0 Z " fill="#C3C3C3" transform="translate(29,222)"/>
<path d="M0 0 C3.56828062 0.70299007 4.76918635 1.62225921 6.875 4.56640625 C7.3359375 7.1875 7.3359375 7.1875 7.25 10.00390625 C7.23066406 11.39416016 7.23066406 11.39416016 7.2109375 12.8125 C6.85972882 15.69159442 6.0690423 17.93473701 4.875 20.56640625 C6.050625 21.61828125 6.050625 21.61828125 7.25 22.69140625 C9.97593022 25.67694887 11.006162 27.65663527 11.875 31.56640625 C11.545 32.22640625 11.215 32.88640625 10.875 33.56640625 C11.535 33.89640625 12.195 34.22640625 12.875 34.56640625 C11.885 34.56640625 10.895 34.56640625 9.875 34.56640625 C9.54886719 33.87933594 9.22273438 33.19226563 8.88671875 32.484375 C8.23123047 31.13279297 8.23123047 31.13279297 7.5625 29.75390625 C7.13324219 28.86058594 6.70398438 27.96726562 6.26171875 27.046875 C4.95557229 24.71052851 4.0043571 23.16859242 1.875 21.56640625 C-0.26398301 21.0650866 -0.26398301 21.0650866 -2.5625 21.00390625 C-5.90596353 20.81721539 -8.30115649 20.44297317 -11.125 18.56640625 C-13.83003974 14.49161709 -13.74662107 10.2873663 -13.125 5.56640625 C-10.595628 -0.63055515 -5.94053639 0.00742567 0 0 Z M-12.125 6.56640625 C-12.88131695 9.43001853 -12.93119435 11.71017484 -12.125 14.56640625 C-9.08115245 18.12993509 -7.18187034 19.3809904 -2.5625 20.19140625 C0.97639609 19.78817333 0.97639609 19.78817333 3.8125 17.56640625 C6.10547397 14.23117139 6.63673735 12.4663357 6.3515625 8.50390625 C5.47776841 4.95143193 3.8588283 3.55562511 0.875 1.56640625 C-4.94163203 0.1357024 -8.73314906 1.47862984 -12.125 6.56640625 Z " fill="#BAC3CD" transform="translate(43.125,71.43359375)"/>
<path d="M0 0 C5 5 5 5 6.75 7.25 C9.30915706 9.24045549 10.34494907 9.27316627 13.5 9.5 C16.43439116 9.74171262 17.92244323 9.95838417 20.5625 11.375 C22.96100892 15.75488586 22.80484683 20.14217449 22 25 C20.0625 28.1875 20.0625 28.1875 17 30 C12.31392896 30.93212986 9.07455974 30.67159984 5 28.125 C1.64140139 24.55648897 1.7277674 21.92607418 1.7734375 17.19921875 C2.0653088 14.36605424 2.8693995 12.88476198 5 11 C5.66 11 6.32 11 7 11 C6.4946875 10.37351562 5.989375 9.74703125 5.46875 9.1015625 C4.8190625 8.28429687 4.169375 7.46703125 3.5 6.625 C2.52546875 5.40683594 2.52546875 5.40683594 1.53125 4.1640625 C0 2 0 2 0 0 Z M3 16 C2.25627141 19.07854867 2.48087632 20.72952084 3 24 C5.10749432 26.6343679 6.60523021 27.73004456 9.9375 28.375 C13.56818912 28.59504177 15.71088143 28.14455929 19 26.5 C21.28906621 23.63866724 21.73664371 21.63432597 21.4765625 17.97265625 C20.61326281 14.39916163 18.99999006 12.99999337 16 11 C10.18336797 9.56929615 6.39185094 10.91222359 3 16 Z " fill="#BCCFE1" transform="translate(301,337)"/>
<path d="M0 0 C2.82469109 1.50115429 4.46926724 3.19652315 6 6 C7.04013776 9.96950533 6.94303074 13.27287628 4.95703125 16.91015625 C2.81820987 19.44438998 1.03182227 20.76648233 -2.2265625 21.50390625 C-6.30884199 21.71552943 -8.4871529 21.32052944 -12 19.125 C-15.32530877 15.59185943 -15.33074386 12.95338737 -15.29296875 8.26171875 C-14.86344199 4.9457722 -13.39075646 3.25012373 -11 1 C-7.47852564 -0.76073718 -3.83412157 -0.65507605 0 0 Z M-14 7 C-14.74372859 10.07854867 -14.51912368 11.72952084 -14 15 C-11.89250568 17.6343679 -10.39476979 18.73004456 -7.0625 19.375 C-3.43181088 19.59504177 -1.28911857 19.14455929 2 17.5 C4.28906621 14.63866724 4.73664371 12.63432597 4.4765625 8.97265625 C3.61326281 5.39916163 1.99999006 3.99999337 -1 2 C-6.81663203 0.56929615 -10.60814906 1.91222359 -14 7 Z " fill="#B3CDE7" transform="translate(307,171)"/>
<path d="M0 0 C0.99 0.66 1.98 1.32 3 2 C3.17285156 4.76782227 3.17285156 4.76782227 2.890625 8.31640625 C2.74826416 10.28287109 2.74826416 10.28287109 2.60302734 12.2890625 C2.48537605 13.71354369 2.36769976 15.13802281 2.25 16.5625 C2.08756868 18.73611751 1.93101232 20.91010295 1.77511597 23.084198 C1.6694306 24.55707419 1.562098 26.02983307 1.45315552 27.50247192 C0.94200921 34.4960103 0.62908388 41.49255254 0.375 48.5 C0.33536133 49.56677979 0.29572266 50.63355957 0.25488281 51.73266602 C0.16668702 54.15501618 0.08141477 56.57741406 0 59 C-0.66 59 -1.32 59 -2 59 C-1.49544494 44.32247707 -0.97148739 29.65499068 0 15 C-0.33 18.63 -0.66 22.26 -1 26 C-1.33 26 -1.66 26 -2 26 C-2.29211698 17.13911833 -1.44796872 8.73952546 0 0 Z " fill="#CECECE" transform="translate(118,84)"/>
<path d="M0 0 C5.23419357 -0.16335585 9.86306192 0.39447963 14.9375 1.5 C15.62134766 1.64308594 16.30519531 1.78617188 17.00976562 1.93359375 C18.67449514 2.28283771 20.33744875 2.64052946 22 3 C22 2.34 22 1.68 22 1 C26.29 1.66 30.58 2.32 35 3 C35 3.33 35 3.66 35 4 C33.02 4 31.04 4 29 4 C30.53720703 4.29003906 30.53720703 4.29003906 32.10546875 4.5859375 C33.46619601 4.84869863 34.82687033 5.11173398 36.1875 5.375 C36.86103516 5.50132812 37.53457031 5.62765625 38.22851562 5.7578125 C42.0141239 6.49646777 45.47612869 7.42623223 49 9 C45.14736141 10.4328779 42.28421255 9.53763617 38.375 8.5625 C32.44601465 7.19808915 27.06279275 6.62282165 21 7 C21 6.34 21 5.68 21 5 C10.605 3.02 10.605 3.02 0 1 C0 0.67 0 0.34 0 0 Z " fill="#D2D2D2" transform="translate(44,226)"/>
<path d="M0 0 C3.0625 1.8125 3.0625 1.8125 5 5 C5.96939828 10.34370789 5.91134362 14.50069275 3.0625 19.1875 C-1.05574287 21.62482741 -4.3239696 21.94028872 -9 21 C-11.87029869 19.20606332 -13.49131638 18.01736724 -15 15 C-15.55512815 10.36786507 -15.6364242 7.01827873 -13.125 3 C-9.17246 -0.72003765 -5.23013517 -0.74845038 0 0 Z M-14 7 C-14.74372859 10.07854867 -14.51912368 11.72952084 -14 15 C-11.89250568 17.6343679 -10.39476979 18.73004456 -7.0625 19.375 C-3.43181088 19.59504177 -1.28911857 19.14455929 2 17.5 C4.28906621 14.63866724 4.73664371 12.63432597 4.4765625 8.97265625 C3.61326281 5.39916163 1.99999006 3.99999337 -1 2 C-6.81663203 0.56929615 -10.60814906 1.91222359 -14 7 Z " fill="#BDD4EA" transform="translate(182,89)"/>
<path d="M0 0 C0.66 0 1.32 0 2 0 C2 14.85 2 29.7 2 45 C-0.64 45 -3.28 45 -6 45 C-6 44.34 -6 43.68 -6 43 C-3.69 43 -1.38 43 1 43 C0.67 30.79 0.34 18.58 0 6 C-1.98 8.64 -3.96 11.28 -6 14 C-7.32 14.33 -8.64 14.66 -10 15 C-9.61328125 14.50371094 -9.2265625 14.00742187 -8.828125 13.49609375 C-5.49729049 9.15116853 -2.60742538 4.81370839 0 0 Z " fill="#B3B3B3" transform="translate(54,331)"/>
<path d="M0 0 C2.97 0.495 2.97 0.495 6 1 C6 8.26 6 15.52 6 23 C4.68 23.33 3.36 23.66 2 24 C0.83046584 26.42383077 0.83046584 26.42383077 0 29 C-2.44995802 31.44995802 -3.36144955 31.37677998 -6.75 31.5 C-10.73413032 31.44225898 -12.76248715 30.93272792 -15.625 28.125 C-18 25 -18 25 -18 23 C-19.98 23 -21.96 23 -24 23 C-24 22.67 -24 22.34 -24 22 C-18.7905147 21.47022183 -18.7905147 21.47022183 -16 22 C-15.195625 22.969375 -14.39125 23.93875 -13.5625 24.9375 C-10.74227235 28.30801597 -10.29701612 28.4589275 -6.1875 28.875 C-4.79271423 28.94326031 -3.39644183 28.99391529 -2 29 C-1.7525 28.4225 -1.505 27.845 -1.25 27.25 C0 25 0 25 2.078125 23.359375 C5.07573743 19.67937926 4.67504476 15.86315459 4.75 11.25 C4.79447266 9.91775391 4.79447266 9.91775391 4.83984375 8.55859375 C4.91036918 6.37230551 4.96314637 4.18707232 5 2 C3.35 2 1.7 2 0 2 C0 1.34 0 0.68 0 0 Z " fill="#B7B7B7" transform="translate(323,352)"/>
<path d="M0 0 C3.58305992 -0.11627503 7.16563417 -0.1872736 10.75 -0.25 C11.76578125 -0.28351563 12.7815625 -0.31703125 13.828125 -0.3515625 C21.28512269 -0.44968089 21.28512269 -0.44968089 24.6640625 1.67578125 C27.1352962 5.97514983 26.90384793 10.2194918 26 15 C24.51529343 17.76642591 22.96148153 18.98563428 20 20 C15.08818902 20.47882434 11.33676657 20.01848881 7.375 17 C5.53464323 12.98467613 5.29850896 9.35576995 6 5 C6.66 4.01 7.32 3.02 8 2 C5.36 1.67 2.72 1.34 0 1 C0 0.67 0 0.34 0 0 Z M7 6 C6.25627141 9.07854867 6.48087632 10.72952084 7 14 C9.10749432 16.6343679 10.60523021 17.73004456 13.9375 18.375 C17.56818912 18.59504177 19.71088143 18.14455929 23 16.5 C25.28906621 13.63866724 25.73664371 11.63432597 25.4765625 7.97265625 C24.61326281 4.39916163 22.99999006 2.99999337 20 1 C14.18336797 -0.43070385 10.39185094 0.91222359 7 6 Z " fill="#BBD2E9" transform="translate(161,360)"/>
<path d="M0 0 C3.56922584 0.70317629 4.75946867 1.62955099 6.875 4.56640625 C7.99439538 9.74650487 7.69198583 14.22233279 4.9375 18.75390625 C0.81925713 21.19123366 -2.4489696 21.50669497 -7.125 20.56640625 C-9.99529869 18.77246957 -11.61631638 17.58377349 -13.125 14.56640625 C-13.6471315 10.2096041 -13.54136022 6.58648878 -11.875 2.50390625 C-7.98122694 -0.23943386 -4.66807307 0.00583509 0 0 Z M-12.125 6.56640625 C-12.86872859 9.64495492 -12.64412368 11.29592709 -12.125 14.56640625 C-10.01750568 17.20077415 -8.51976979 18.29645081 -5.1875 18.94140625 C-1.55681088 19.16144802 0.58588143 18.71096554 3.875 17.06640625 C6.16406621 14.20507349 6.61164371 12.20073222 6.3515625 8.5390625 C5.48826281 4.96556788 3.87499006 3.56639962 0.875 1.56640625 C-4.94163203 0.1357024 -8.73314906 1.47862984 -12.125 6.56640625 Z " fill="#BBD2E9" transform="translate(306.125,260.43359375)"/>
<path d="M0 0 C0.99 0 1.98 0 3 0 C3 21.45 3 42.9 3 65 C-6 67 -6 67 -10 66 C-7 64 -7 64 2 64 C2 43.21 2 22.42 2 1 C1.34 0.67 0.68 0.34 0 0 Z " fill="#B3B3B3" transform="translate(326,224)"/>
<path d="M0 0 C1 3 1 3 -0.2578125 5.93359375 C-0.87398438 7.08988281 -1.49015625 8.24617187 -2.125 9.4375 C-5.45539683 15.828351 -8.30606947 22.31343628 -11 29 C-11.93493904 31.25106536 -12.87238284 33.50109227 -13.8125 35.75 C-14.44091797 37.25820312 -14.44091797 37.25820312 -15.08203125 38.796875 C-15.38496094 39.52390625 -15.68789062 40.2509375 -16 41 C-17.01427843 37.8793773 -16.99497836 36.12539608 -15.8828125 33.05078125 C-15.60969238 32.29265137 -15.33657227 31.53452148 -15.05517578 30.75341797 C-14.74821777 29.94791504 -14.44125977 29.14241211 -14.125 28.3125 C-13.8141748 27.48121582 -13.50334961 26.64993164 -13.18310547 25.79345703 C-5.25204229 5.25204229 -5.25204229 5.25204229 0 0 Z " fill="#C4C4C4" transform="translate(264,162)"/>
<path d="M0 0 C3.56922584 0.70317629 4.75946867 1.62955099 6.875 4.56640625 C7.99439538 9.74650487 7.69198583 14.22233279 4.9375 18.75390625 C0.81925713 21.19123366 -2.4489696 21.50669497 -7.125 20.56640625 C-9.99529869 18.77246957 -11.61631638 17.58377349 -13.125 14.56640625 C-13.6471315 10.2096041 -13.54136022 6.58648878 -11.875 2.50390625 C-7.98122694 -0.23943386 -4.66807307 0.00583509 0 0 Z M-12.125 6.56640625 C-12.86872859 9.64495492 -12.64412368 11.29592709 -12.125 14.56640625 C-10.01750568 17.20077415 -8.51976979 18.29645081 -5.1875 18.94140625 C-1.55681088 19.16144802 0.58588143 18.71096554 3.875 17.06640625 C6.16406621 14.20507349 6.61164371 12.20073222 6.3515625 8.5390625 C5.48826281 4.96556788 3.87499006 3.56639962 0.875 1.56640625 C-4.94163203 0.1357024 -8.73314906 1.47862984 -12.125 6.56640625 Z " fill="#BBD2E9" transform="translate(53.125,170.43359375)"/>
<path d="M0 0 C7.92800879 0.54602881 15.63397404 1.99068284 23.40698242 3.58398438 C25.45712929 4.00402168 27.50867036 4.41662832 29.56054688 4.828125 C39.53045406 6.84348469 39.53045406 6.84348469 43 8 C43.33 6.68 43.66 5.36 44 4 C44 6.31 44 8.62 44 11 C29.30863242 7.77321384 14.65252665 4.39837825 0 1 C0 0.67 0 0.34 0 0 Z " fill="#C0C0C0" transform="translate(69,229)"/>
<path d="M0 0 C-0.64582031 -0.02320313 -1.29164063 -0.04640625 -1.95703125 -0.0703125 C-8.36111552 -0.19296254 -14.5310921 0.23224072 -20.875 1 C-31.58123318 2.27449943 -42.23382992 2.19889187 -53 2 C-53 1.67 -53 1.34 -53 1 C-51.35 0.67 -49.7 0.34 -48 0 C-48 -0.33 -48 -0.66 -48 -1 C-45.36 -1 -42.72 -1 -40 -1 C-40 -0.67 -40 -0.34 -40 0 C-29.81575561 -0.41258133 -19.84063457 -0.94549148 -9.78515625 -2.6953125 C-5.46117798 -3.16834238 -3.61538502 -2.41025668 0 0 Z " fill="#CACED2" transform="translate(221,380)"/>
<path d="M0 0 C2.82057354 1.49896606 4.49282673 3.1854681 6 6 C6.62255117 9.09719206 6.79288502 11.92680223 6 15 C5.01 15.66 4.02 16.32 3 17 C3.04640625 16.32453125 3.0928125 15.6490625 3.140625 14.953125 C3.42434663 9.42630004 3.42434663 9.42630004 1.5 4.375 C-2.2056695 2.33688178 -4.7864466 2.665591 -9 3 C-9.99 3.33 -10.98 3.66 -12 4 C-12.66 7.63 -13.32 11.26 -14 15 C-14.33 15 -14.66 15 -15 15 C-15.6271777 7.00348432 -15.6271777 7.00348432 -13.125 3 C-9.19740704 -0.69655808 -5.20523083 -0.88933592 0 0 Z " fill="#B3CDE7" transform="translate(182,400)"/>
<path d="M0 0 C2.82057354 1.49896606 4.49282673 3.1854681 6 6 C6.62255117 9.09719206 6.79288502 11.92680223 6 15 C5.01 15.66 4.02 16.32 3 17 C3.04640625 16.32453125 3.0928125 15.6490625 3.140625 14.953125 C3.42434663 9.42630004 3.42434663 9.42630004 1.5 4.375 C-2.2056695 2.33688178 -4.7864466 2.665591 -9 3 C-9.99 3.33 -10.98 3.66 -12 4 C-12.66 7.63 -13.32 11.26 -14 15 C-14.33 15 -14.66 15 -15 15 C-15.6271777 7.00348432 -15.6271777 7.00348432 -13.125 3 C-9.19740704 -0.69655808 -5.20523083 -0.88933592 0 0 Z " fill="#B3CDE7" transform="translate(54,260)"/>
<path d="M0 0 C2.82057354 1.49896606 4.49282673 3.1854681 6 6 C6.62255117 9.09719206 6.79288502 11.92680223 6 15 C5.01 15.66 4.02 16.32 3 17 C3.04640625 16.32453125 3.0928125 15.6490625 3.140625 14.953125 C3.42434663 9.42630004 3.42434663 9.42630004 1.5 4.375 C-2.2056695 2.33688178 -4.7864466 2.665591 -9 3 C-9.99 3.33 -10.98 3.66 -12 4 C-12.66 7.63 -13.32 11.26 -14 15 C-14.33 15 -14.66 15 -15 15 C-15.6271777 7.00348432 -15.6271777 7.00348432 -13.125 3 C-9.19740704 -0.69655808 -5.20523083 -0.88933592 0 0 Z " fill="#B3CDE7" transform="translate(182,20)"/>
<path d="M0 0 C3.0625 1.8125 3.0625 1.8125 5 5 C5.8369415 10.05153979 6.11557992 14.40100212 3.125 18.6875 C1 20 1 20 -1 20 C-1 19.34 -1 18.68 -1 18 C-0.34 17.62875 0.32 17.2575 1 16.875 C3.42504514 15.00083017 3.42504514 15.00083017 3.5 11.0625 C3.33088132 8.19276747 3.01785383 7.02975639 1.5 4.5 C-2.19724878 2.28165073 -4.71162487 2.65965277 -9 3 C-9.99 3.33 -10.98 3.66 -12 4 C-12.66 7.63 -13.32 11.26 -14 15 C-14.33 15 -14.66 15 -15 15 C-15.6271777 7.00348432 -15.6271777 7.00348432 -13.125 3 C-9.17246 -0.72003765 -5.23013517 -0.74845038 0 0 Z " fill="#B7D0E8" transform="translate(182,255)"/>
<path d="M0 0 C7.01588929 -0.59456689 7.01588929 -0.59456689 11 1.8125 C13.93278038 6.48661873 13.9744483 10.62845439 13 16 C11.0625 19.1875 11.0625 19.1875 8 21 C3.22595335 21.94962953 0.03976488 21.67903013 -4.0625 19 C-4.701875 18.34 -5.34125 17.68 -6 17 C-5.67 16.34 -5.34 15.68 -5 15 C-4.505 15.495 -4.01 15.99 -3.5 16.5 C0.02264496 18.61358698 2.9878364 18.57551527 7 18 C9.61760705 17.20426487 9.61760705 17.20426487 11 15 C11.70371139 9.4717518 11.70371139 9.4717518 9.4375 4.625 C6.41477974 2.60985316 3.52218907 1.81281286 0 1 C0 0.67 0 0.34 0 0 Z " fill="#BDD4EA" transform="translate(37,346)"/>
<path d="M0 0 C0.33 0 0.66 0 1 0 C1 10.56 1 21.12 1 32 C-3.62 32.66 -8.24 33.32 -13 34 C-13.99 34.495 -13.99 34.495 -15 35 C-17.69565202 34.83219837 -20.32405554 34.38844355 -23 34 C-23 33.67 -23 33.34 -23 33 C-21.95199219 32.80083984 -21.95199219 32.80083984 -20.8828125 32.59765625 C-19.97273438 32.42105469 -19.06265625 32.24445313 -18.125 32.0625 C-17.22007812 31.88847656 -16.31515625 31.71445313 -15.3828125 31.53515625 C-13.00043683 31.10036299 -13.00043683 31.10036299 -11 30 C-7.37 30.33 -3.74 30.66 0 31 C0 20.77 0 10.54 0 0 Z " fill="#E7E7E7" transform="translate(332,57)"/>
<path d="M0 0 C3.57064455 0.70345579 4.76375488 1.62360939 6.875 4.56640625 C7.61722329 8.27752268 7.46406562 11.83376928 6.875 15.56640625 C4.875 18.25390625 4.875 18.25390625 2.875 19.56640625 C2.875 16.56640625 2.875 16.56640625 4.875 14.56640625 C5.44734436 9.0240538 5.44734436 9.0240538 3.375 4.06640625 C-0.32224878 1.84805698 -2.83662487 2.22605902 -7.125 2.56640625 C-8.115 2.89640625 -9.105 3.22640625 -10.125 3.56640625 C-10.785 7.19640625 -11.445 10.82640625 -12.125 14.56640625 C-12.455 14.56640625 -12.785 14.56640625 -13.125 14.56640625 C-13.46850841 10.18667401 -13.55306971 6.61517703 -11.875 2.50390625 C-7.98122694 -0.23943386 -4.66807307 0.00583509 0 0 Z " fill="#BAD1E7" transform="translate(43.125,71.43359375)"/>
<path d="M0 0 C0.33 0 0.66 0 1 0 C1 3.63 1 7.26 1 11 C-5.41129125 9.87802403 -11.70783291 8.66208187 -18 7 C-18 6.34 -18 5.68 -18 5 C-18.99 4.67 -19.98 4.34 -21 4 C-13.39845954 4.32978484 -7.02680781 6.12782571 0 9 C0 6.03 0 3.06 0 0 Z " fill="#C0C0C0" transform="translate(238,134)"/>
<path d="M0 0 C1.91731918 0.11455681 3.8338675 0.24206258 5.75 0.375 C7.35101563 0.47941406 7.35101563 0.47941406 8.984375 0.5859375 C11.80206432 0.9728223 13.5830366 1.55686166 16 3 C14.02 3 12.04 3 10 3 C12.64 3.66 15.28 4.32 18 5 C18 5.33 18 5.66 18 6 C15.77057252 5.85820962 13.54146372 5.71140302 11.3125 5.5625 C10.07113281 5.48128906 8.82976563 5.40007812 7.55078125 5.31640625 C4.61819663 5.05508683 1.86558383 4.65201621 -1 4 C-0.67 2.68 -0.34 1.36 0 0 Z " fill="#D3D3D3" transform="translate(25,220)"/>
<path d="M0 0 C3.53660463 0.69674955 4.75403832 1.68290835 6.875 4.56640625 C7.38255847 7.34782668 7.06528514 9.71212915 6.875 12.56640625 C7.535 12.89640625 8.195 13.22640625 8.875 13.56640625 C8.215 13.56640625 7.555 13.56640625 6.875 13.56640625 C6.545 14.55640625 6.215 15.54640625 5.875 16.56640625 C4.875 14.56640625 4.875 14.56640625 5.0625 10.69140625 C5.07884033 7.69567842 4.96699257 6.7197272 3.375 4.06640625 C-0.32224878 1.84805698 -2.83662487 2.22605902 -7.125 2.56640625 C-8.115 2.89640625 -9.105 3.22640625 -10.125 3.56640625 C-10.785 7.19640625 -11.445 10.82640625 -12.125 14.56640625 C-12.455 14.56640625 -12.785 14.56640625 -13.125 14.56640625 C-13.46850841 10.18667401 -13.55306971 6.61517703 -11.875 2.50390625 C-7.98122694 -0.23943386 -4.66807307 0.00583509 0 0 Z " fill="#B9D0E7" transform="translate(316.125,71.43359375)"/>
<path d="M0 0 C0.33 0 0.66 0 1 0 C0.67 5.28 0.34 10.56 0 16 C1.77375 16.474375 3.5475 16.94875 5.375 17.4375 C10.75 18.875 10.75 18.875 13 20 C13 20.66 13 21.32 13 22 C7.95803017 21.49580302 2.75495562 20.75495562 -1 17 C-1.09983684 15.08548183 -1.12967589 13.16711381 -1.125 11.25 C-1.12757812 10.20328125 -1.13015625 9.1565625 -1.1328125 8.078125 C-1.01155348 5.26776878 -0.63784091 2.73360391 0 0 Z " fill="#BBBBBB" transform="translate(119,356)"/>
<path d="M0 0 C0.33 0 0.66 0 1 0 C1 2.97 1 5.94 1 9 C-4.1075363 12.19221019 -9.97355959 15.82215275 -16.23828125 14.54296875 C-16.81964844 14.36378906 -17.40101563 14.18460937 -18 14 C-4.28571429 8 -4.28571429 8 0 8 C0 5.36 0 2.72 0 0 Z " fill="#BDBDBD" transform="translate(235,364)"/>
<path d="M0 0 C2.5625 2 2.5625 2 4 4 C3.67 4.66 3.34 5.32 3 6 C2.505 5.505 2.01 5.01 1.5 4.5 C-2.16894414 2.29863351 -4.74317925 2.72972567 -9 3 C-9.99 3.33 -10.98 3.66 -12 4 C-12.66 7.63 -13.32 11.26 -14 15 C-14.33 15 -14.66 15 -15 15 C-15.6271777 7.00348432 -15.6271777 7.00348432 -13.125 3 C-9.19929348 -0.69478261 -5.20366811 -0.71169173 0 0 Z " fill="#B4CDE7" transform="translate(182,89)"/>
<path d="M0 0 C0.66 0 1.32 0 2 0 C2 6.27 2 12.54 2 19 C0.02 19.99 0.02 19.99 -2 21 C-1.505 19.515 -1.505 19.515 -1 18 C-0.85507877 16.59335074 -0.75371069 15.1818867 -0.68359375 13.76953125 C-0.64169922 12.96708984 -0.59980469 12.16464844 -0.55664062 11.33789062 C-0.51732422 10.50451172 -0.47800781 9.67113281 -0.4375 8.8125 C-0.39431641 7.96751953 -0.35113281 7.12253906 -0.30664062 6.25195312 C-0.20068482 4.16815567 -0.0998498 2.08409897 0 0 Z " fill="#C2C2C2" transform="translate(235,402)"/>
<path d="M0 0 C1 2 1 2 0.51171875 3.7421875 C0.23972656 4.44601563 -0.03226563 5.14984375 -0.3125 5.875 C-2.3003625 11.46472347 -3.15784404 17.14453916 -4 23 C-4.99 23.33 -5.98 23.66 -7 24 C-6.40400435 21.31045617 -5.79849172 18.62364177 -5.1875 15.9375 C-5.02185547 15.18533203 -4.85621094 14.43316406 -4.68554688 13.65820312 C-3.57560546 8.82053394 -2.08788622 4.50480895 0 0 Z " fill="#E7E7E7" transform="translate(246,195)"/>
<path d="M0 0 C2 2 2 2 2 5 C3.216875 5.12375 4.43375 5.2475 5.6875 5.375 C9.06479059 5.78891306 11.89756695 6.54573451 15 8 C14.34 8.66 13.68 9.32 13 10 C10.25 9.71484375 10.25 9.71484375 7 8.9375 C5.9275 8.69902344 4.855 8.46054688 3.75 8.21484375 C1 7 1 7 -0.4375 4.50390625 C-1 2 -1 2 0 0 Z " fill="#C3C3C3" transform="translate(41,57)"/>
<path d="M0 0 C0.99 0.33 1.98 0.66 3 1 C2.41992188 1.4125 1.83984375 1.825 1.2421875 2.25 C-4.20269672 6.27526094 -8.261264 10.35524172 -12 16 C-12.33 15.01 -12.66 14.02 -13 13 C-9.853531 7.54142917 -5.65131556 2.82565778 0 0 Z " fill="#C4C4C4" transform="translate(313,291)"/>
<path d="M0 0 C2.5 1.375 2.5 1.375 5 3 C5 3.66 5 4.32 5 5 C7.64 5 10.28 5 13 5 C13 5.33 13 5.66 13 6 C12.11248047 6.00386719 12.11248047 6.00386719 11.20703125 6.0078125 C6.39738803 6.17053391 6.39738803 6.17053391 2.2890625 8.40234375 C0.76367086 10.21947959 0.76367086 10.21947959 -1 13 C-1.66 12.34 -2.32 11.68 -3 11 C-1.9790625 9.948125 -1.9790625 9.948125 -0.9375 8.875 C1.35289652 6.1170551 1.35289652 6.1170551 0.75 2.6875 C0.5025 1.800625 0.255 0.91375 0 0 Z " fill="#BAC7D5" transform="translate(304,86)"/>
<path d="M0 0 C1.90608098 3.21182149 2.22266247 5.53882603 2.125 9.25 C2.10695313 10.14203125 2.08890625 11.0340625 2.0703125 11.953125 C2.03550781 12.96632812 2.03550781 12.96632812 2 14 C-3.23880078 13.44854729 -7.97350697 12.57077907 -13 11 C-9.45332822 9.74872094 -7.27746562 10.27714947 -3.75 11.4375 C-2.85796875 11.72496094 -1.9659375 12.01242188 -1.046875 12.30859375 C-0.37140625 12.53675781 0.3040625 12.76492187 1 13 C0.51421457 9.87709365 0.0013988 7.00419641 -1 4 C-0.5625 1.8125 -0.5625 1.8125 0 0 Z " fill="#D2D2D2" transform="translate(112,227)"/>
<path d="M0 0 C0.66 0.33 1.32 0.66 2 1 C0.63589551 6.59282842 -2.15383526 9.91193811 -6 14 C-6.99 13.67 -7.98 13.34 -9 13 C-8.60167969 12.56429688 -8.20335937 12.12859375 -7.79296875 11.6796875 C-4.51063169 7.99005314 -2.00600254 4.56922802 0 0 Z " fill="#C0C0C0" transform="translate(53,332)"/>
<path d="M0 0 C0.66 0.495 1.32 0.99 2 1.5 C6.06168997 3.53084499 8.47338043 3.35925552 13 3 C15.40557853 2.13734032 15.40557853 2.13734032 17 1 C15.125 4.875 15.125 4.875 14 6 C9.35826646 6.58501187 5.97944454 6.59965992 1.9375 4.125 C0 2 0 2 0 0 Z " fill="#BFD5EA" transform="translate(293,186)"/>
<path d="M0 0 C2.41802195 0.28270406 4.8340122 0.57579264 7.25 0.875 C7.93191406 0.95363281 8.61382812 1.03226563 9.31640625 1.11328125 C12.90696311 1.56645833 15.892507 2.09385738 19 4 C18.67 4.66 18.34 5.32 18 6 C11.375 5.25 11.375 5.25 8 3 C6.80375 2.835 5.6075 2.67 4.375 2.5 C2.704375 2.2525 2.704375 2.2525 1 2 C0.67 1.34 0.34 0.68 0 0 Z " fill="#CCCCCC" transform="translate(202,134)"/>
<path d="M0 0 C-0.33 0.66 -0.66 1.32 -1 2 C-3.8359375 2.66796875 -3.8359375 2.66796875 -7.375 3.1875 C-8.53773438 3.36667969 -9.70046875 3.54585938 -10.8984375 3.73046875 C-14 4 -14 4 -17 3 C-11.94682281 -0.36878479 -5.93922223 -0.14848056 0 0 Z " fill="#C1C1C1" transform="translate(215,379)"/>
<path d="M0 0 C1.3122649 3.93679469 0.22376266 6.71683068 -0.875 10.5625 C-1.06191406 11.24763672 -1.24882812 11.93277344 -1.44140625 12.63867188 C-2.83228022 17.66456044 -2.83228022 17.66456044 -4 20 C-4.66 20 -5.32 20 -6 20 C-4.63125844 13.04223041 -2.5466871 6.61396893 0 0 Z " fill="#E6E6E6" transform="translate(253,175)"/>
<path d="M0 0 C0.66 0.66 1.32 1.32 2 2 C-1.65120544 5.33370932 -6.21633909 6.97807612 -11 8 C-11.99 7.67 -12.98 7.34 -14 7 C-11.26845992 5.17897328 -8.91736704 4.10388853 -5.875 2.9375 C-2.68623321 1.87284184 -2.68623321 1.87284184 0 0 Z " fill="#C7C7C7" transform="translate(42,140)"/>
<path d="M0 0 C4.29 0.66 8.58 1.32 13 2 C8.47099768 5.39675174 8.47099768 5.39675174 4.3125 4.8125 C3.52488281 4.71582031 2.73726562 4.61914062 1.92578125 4.51953125 C1.29027344 4.34808594 0.65476563 4.17664063 0 4 C-0.33 3.34 -0.66 2.68 -1 2 C-0.67 1.34 -0.34 0.68 0 0 Z " fill="#C8C8C8" transform="translate(132,376)"/>
<path d="M0 0 C4.62 0 9.24 0 14 0 C12.515 1.485 12.515 1.485 11 3 C10.34 3 9.68 3 9 3 C8.34 6.63 7.68 10.26 7 14 C6.67 14 6.34 14 6 14 C5.94577053 12.5629191 5.90710277 11.12524538 5.875 9.6875 C5.85179687 8.88699219 5.82859375 8.08648437 5.8046875 7.26171875 C6 5 6 5 8 2 C5.36 1.67 2.72 1.34 0 1 C0 0.67 0 0.34 0 0 Z " fill="#BCCDDE" transform="translate(161,360)"/>
<path d="M0 0 C0 0.33 0 0.66 0 1 C-4.0527516 1.98248524 -7.83861737 2.08159574 -12 2 C-12 2.66 -12 3.32 -12 4 C-15.63 3.67 -19.26 3.34 -23 3 C-23 2.67 -23 2.34 -23 2 C-20.47980028 1.66114962 -17.95901484 1.32879665 -15.4375 1 C-14.73302734 0.90460938 -14.02855469 0.80921875 -13.30273438 0.7109375 C-8.82632145 0.13333583 -4.51338762 -0.09489383 0 0 Z " fill="#C9C9C9" transform="translate(166,133)"/>
<path d="M0 0 C7.0248051 -0.71438696 7.0248051 -0.71438696 9.6796875 1.23046875 C11.0625 2.8125 11.0625 2.8125 13 6 C12.67 6.99 12.34 7.98 12 9 C10.99403703 8.0479279 9.99538437 7.08812654 9 6.125 C8.443125 5.59132813 7.88625 5.05765625 7.3125 4.5078125 C6 3 6 3 6 1 C4.02 1 2.04 1 0 1 C0 0.67 0 0.34 0 0 Z " fill="#C4C4C4" transform="translate(299,374)"/>
<path d="M0 0 C0.66 0.495 1.32 0.99 2 1.5 C6.06168997 3.53084499 8.47338043 3.35925552 13 3 C15.40557853 2.13734032 15.40557853 2.13734032 17 1 C15.25 4.875 15.25 4.875 13 6 C10.72265625 5.984375 10.72265625 5.984375 8.0625 5.75 C6.74958984 5.64945312 6.74958984 5.64945312 5.41015625 5.546875 C2.67134426 4.92542658 1.67008829 4.22678438 0 2 C0 1.34 0 0.68 0 0 Z " fill="#C8DAEC" transform="translate(168,374)"/>
<path d="M0 0 C0 0.66 0 1.32 0 2 C-1.60064843 2.53154742 -3.20568874 3.04988353 -4.8125 3.5625 C-5.70582031 3.85253906 -6.59914063 4.14257812 -7.51953125 4.44140625 C-10 5 -10 5 -13 4 C-11.35 3.67 -9.7 3.34 -8 3 C-8 2.34 -8 1.68 -8 1 C-5.23735711 0.40267181 -2.83967231 0 0 0 Z " fill="#C7C7C7" transform="translate(281,232)"/>
<path d="M0 0 C1.91731918 0.11455681 3.8338675 0.24206258 5.75 0.375 C7.35101563 0.47941406 7.35101563 0.47941406 8.984375 0.5859375 C11.80206432 0.9728223 13.5830366 1.55686166 16 3 C13.70890403 3.08075665 11.41700733 3.13907731 9.125 3.1875 C7.21074219 3.23970703 7.21074219 3.23970703 5.2578125 3.29296875 C4.18273437 3.19628906 3.10765625 3.09960938 2 3 C1.34 2.01 0.68 1.02 0 0 Z " fill="#CCCCCC" transform="translate(25,220)"/>
<path d="M0 0 C1.485 0.99 1.485 0.99 3 2 C2.67 5.96 2.34 9.92 2 14 C1.67 14 1.34 14 1 14 C0.67 9.38 0.34 4.76 0 0 Z " fill="#C7C7C7" transform="translate(118,84)"/>
<path d="M0 0 C2.97 0.33 5.94 0.66 9 1 C9 1.33 9 1.66 9 2 C4.03926578 3.32286246 -0.91111512 3.08893197 -6 3 C-6 2.67 -6 2.34 -6 2 C-4.02 1.67 -2.04 1.34 0 1 C0 0.67 0 0.34 0 0 Z " fill="#CDCDCE" transform="translate(189,358)"/>
<path d="M0 0 C6.625 -0.25 6.625 -0.25 10 2 C6.67438135 3.76062164 5.40826005 4.10784228 1.6875 3.125 C0.800625 2.75375 -0.08625 2.3825 -1 2 C-0.67 1.34 -0.34 0.68 0 0 Z " fill="#CCCCCC" transform="translate(88,235)"/>
<path d="M0 0 C7.38461538 -0.49230769 7.38461538 -0.49230769 10.5 2 C10.995 2.66 11.49 3.32 12 4 C11.67 4.66 11.34 5.32 11 6 C10.113125 5.360625 9.22625 4.72125 8.3125 4.0625 C5.30788572 2.19170243 3.4489629 1.40576034 0 1 C0 0.67 0 0.34 0 0 Z " fill="#ACC8E3" transform="translate(37,346)"/>
<path d="M0 0 C2.76223278 2.76223278 2.57856291 5.20706617 3 9 C2.01 9 1.02 9 0 9 C-1.125 3.375 -1.125 3.375 0 0 Z " fill="#C8C8C8" transform="translate(54,307)"/>
<path d="M0 0 C2.45823172 3.68734758 3.01242616 6.69699971 4 11 C3.01 10.67 2.02 10.34 1 10 C-0.1577506 6.52674819 -0.06866652 3.63932552 0 0 Z " fill="#E7E7E7" transform="translate(106,196)"/>
<path d="M0 0 C0.33 0.99 0.66 1.98 1 3 C-1.97 5.475 -1.97 5.475 -5 8 C-5 5 -5 5 -2.5 2.3125 C-1.675 1.549375 -0.85 0.78625 0 0 Z " fill="#C7C7C7" transform="translate(47,374)"/>
<path d="M0 0 C-1.43503555 0.36402369 -2.87316506 0.71586591 -4.3125 1.0625 C-5.11300781 1.25972656 -5.91351563 1.45695313 -6.73828125 1.66015625 C-9 2 -9 2 -12 1 C-10.75835303 0.43945064 -9.50616116 -0.09777907 -8.25 -0.625 C-7.55390625 -0.92664063 -6.8578125 -1.22828125 -6.140625 -1.5390625 C-3.41644339 -2.12565635 -2.31280265 -1.44810616 0 0 Z " fill="#CACACA" transform="translate(328,226)"/>
<path d="M0 0 C0.66 0.66 1.32 1.32 2 2 C-0.33623775 3.82518575 -2.08898065 5.01010373 -5.11328125 4.9765625 C-7.08537617 4.71735287 -9.04463697 4.36455921 -11 4 C-11 3.67 -11 3.34 -11 3 C-10.28972656 2.86722656 -9.57945312 2.73445313 -8.84765625 2.59765625 C-7.92855469 2.42105469 -7.00945312 2.24445313 -6.0625 2.0625 C-4.68771484 1.80146484 -4.68771484 1.80146484 -3.28515625 1.53515625 C-1.04710156 1.22285012 -1.04710156 1.22285012 0 0 Z " fill="#D3E2F1" transform="translate(320,87)"/>
<path d="M0 0 C4.455 0.99 4.455 0.99 9 2 C9 2.66 9 3.32 9 4 C4.53159589 3.50351065 3.31012244 3.31012244 0 0 Z " fill="#C0C0C0" transform="translate(288,315)"/>
<path d="M0 0 C1.78409802 3.06246747 2.22880021 5.22079273 2.125 8.75 C2.10695313 9.54921875 2.08890625 10.3484375 2.0703125 11.171875 C2.04710938 11.77515625 2.02390625 12.3784375 2 13 C1.67 13 1.34 13 1 13 C0.7834375 11.6078125 0.7834375 11.6078125 0.5625 10.1875 C0.07899889 6.99274889 0.07899889 6.99274889 -1 4 C-0.5625 1.8125 -0.5625 1.8125 0 0 Z " fill="#CBCBCB" transform="translate(112,227)"/>
<path d="M0 0 C0 0.99 0 1.98 0 3 C-4.1795645 5.78637633 -6.14668677 4.79562512 -11 4 C-11 3.67 -11 3.34 -11 3 C-10.28972656 2.86722656 -9.57945312 2.73445313 -8.84765625 2.59765625 C-7.92855469 2.42105469 -7.00945312 2.24445313 -6.0625 2.0625 C-4.68771484 1.80146484 -4.68771484 1.80146484 -3.28515625 1.53515625 C-1.04710156 1.22285012 -1.04710156 1.22285012 0 0 Z " fill="#D0E0F0" transform="translate(184,416)"/>
<path d="M0 0 C0.66 0.66 1.32 1.32 2 2 C1.38125 2.061875 0.7625 2.12375 0.125 2.1875 C-2.27761141 2.828919 -2.27761141 2.828919 -3.25 5.5625 C-3.4975 6.366875 -3.745 7.17125 -4 8 C-4.66 7.34 -5.32 6.68 -6 6 C-2.25 1.125 -2.25 1.125 0 0 Z " fill="#C4C4C4" transform="translate(327,373)"/>
<path d="M0 0 C0.763125 0.061875 1.52625 0.12375 2.3125 0.1875 C2.6425 0.8475 2.9725 1.5075 3.3125 2.1875 C-1.1425 2.6825 -1.1425 2.6825 -5.6875 3.1875 C-2.6875 0.1875 -2.6875 0.1875 0 0 Z " fill="#C6C6C6" transform="translate(321.6875,287.8125)"/>
</svg>
