<?xml version="1.0" encoding="UTF-8"?>
<svg version="1.1" xmlns="http://www.w3.org/2000/svg" width="327" height="267">
<path d="M0 0 C0.66386719 0.3813208 1.32773438 0.7626416 2.01171875 1.15551758 C4.79104752 3.73383645 4.97305599 5.86800469 5.64453125 9.57421875 C5.76399612 10.23250168 5.883461 10.89078461 6.00654602 11.5690155 C7.25959097 18.84214853 7.93588561 26.17022431 8.50805664 33.52368164 C8.68663526 35.8014701 8.88237145 38.0773165 9.08007812 40.35351562 C9.95933708 50.91866059 10.14827611 61.40178884 10 72 C5.01354475 71.32294207 0.23250596 70.35667923 -4.625 69.0625 C-32.95460212 61.84524303 -65.37002563 61.54537233 -93.27734375 71.125 C-96 72 -96 72 -100 72 C-100.1678507 60.57089318 -99.83956476 49.30640149 -98.828125 37.92041016 C-98.6232481 35.60520274 -98.43194416 33.28914722 -98.2421875 30.97265625 C-96.24595912 7.22920679 -96.24595912 7.22920679 -92 1 C-71.45983852 -14.59889621 -21.12297209 -12.25042304 0 0 Z " fill="#DADADA" transform="translate(100,8)"/>
<path d="M0 0 C18.24354322 7.22691084 31.81395152 35.13531425 39.1953125 51.85546875 C46.28855945 68.61981713 51.508323 85.81697179 53 104 C47.7636253 103.41139564 42.7463403 102.57459613 37.609375 101.36328125 C36.17950415 101.03193794 34.74948428 100.70123728 33.31933594 100.37109375 C32.57453979 100.19819824 31.82974365 100.02530273 31.06237793 99.84716797 C11.80950097 95.39551823 -7.47788416 92.09874855 -27 89 C-27 66.56 -27 44.12 -27 21 C-23.7 20.34 -20.4 19.68 -17 19 C-8.36029432 14.49232747 -4.06201111 8.72580165 0 0 Z " fill="#DDDDDD" transform="translate(147,0)"/>
<path d="M0 0 C3 1 3 1 4.140625 3.07421875 C4.50671875 3.93660156 4.8728125 4.79898438 5.25 5.6875 C8.93765278 13.41611362 13.95637444 17.12727659 22 20 C24.31 20.66 26.62 21.32 29 22 C29 44.11 29 66.22 29 89 C22.874375 90.010625 16.74875 91.02125 10.4375 92.0625 C-10.25877274 95.54278522 -30.65336672 99.84417822 -51 105 C-47.94610551 64.82549143 -29.15178525 27.45910094 0 0 Z " fill="#DDDDDD" transform="translate(51,90)"/>
<path d="M0 0 C0 19.14 0 38.28 0 58 C-2.31 58.66 -4.62 59.32 -7 60 C-15.49241996 63.32962721 -20.67034611 67.42102512 -24.8125 75.5625 C-25.90954094 78.73814483 -26.59402635 81.67101607 -27 85 C-31.51342842 84.39803926 -35.36735514 83.22405919 -39.5859375 81.5234375 C-40.20538239 81.27510162 -40.82482727 81.02676575 -41.46304321 80.77090454 C-42.77354789 80.24415983 -44.08288902 79.71451201 -45.39111328 79.18212891 C-47.3324324 78.3923183 -49.27710233 77.61134276 -51.22265625 76.83203125 C-60.5696454 73.06110236 -69.75845671 69.04317519 -79 65 C-79 48.83 -79 32.66 -79 16 C-68.8017817 13.28047512 -58.74097421 10.73128685 -48.4375 8.5625 C-47.39372192 8.34096756 -47.39372192 8.34096756 -46.32885742 8.11495972 C-7.96742757 0 -7.96742757 0 0 0 Z " fill="#DDDDDD" transform="translate(289,0)"/>
<path d="M0 0 C19.69146379 3.10917849 39.16490616 6.50509076 58.625 10.8125 C59.53329559 11.01285858 60.44159119 11.21321716 61.37741089 11.41964722 C63.95320122 11.9899384 66.52771401 12.56554444 69.1015625 13.14453125 C69.87388718 13.31721527 70.64621185 13.48989929 71.44194031 13.66781616 C76.76209289 14.88104645 76.76209289 14.88104645 79 16 C79 32.17 79 48.34 79 65 C50.64569386 77.25016139 50.64569386 77.25016139 40.625 81.25 C39.92648926 81.53689697 39.22797852 81.82379395 38.50830078 82.11938477 C34.52862921 83.67799901 31.268504 84.29073402 27 84 C26.82984375 83.34773438 26.6596875 82.69546875 26.484375 82.0234375 C24.16682029 73.66544763 21.17566652 68.20587571 14 63 C9.34607508 60.71534595 5.04832955 59.44237987 0 58 C0 38.86 0 19.72 0 0 Z " fill="#DDDDDD" transform="translate(210,95)"/>
<path d="M0 0 C24.42 0 48.84 0 74 0 C73.67 9.9 73.34 19.8 73 30 C73.495 41.385 73.495 41.385 74 53 C49.58 53 25.16 53 0 53 C0.33 43.43 0.66 33.86 1 24 C0.67 16.08 0.34 8.16 0 0 Z " fill="#DADADA" transform="translate(120,114)"/>
<path d="M0 0 C1.27453285 -0.00845947 1.27453285 -0.00845947 2.57481384 -0.01708984 C3.50890579 -0.01304138 4.44299774 -0.00899292 5.40539551 -0.00482178 C6.3875856 -0.00832642 7.3697757 -0.01183105 8.38172913 -0.01544189 C11.64034008 -0.02427097 14.89873533 -0.01840587 18.15734863 -0.01165771 C20.41414431 -0.01300403 22.6709397 -0.01494427 24.92773438 -0.01745605 C29.66234086 -0.02040891 34.39687199 -0.01610445 39.13146973 -0.0067749 C45.21159615 0.00461968 51.29154602 -0.00193893 57.37166595 -0.01391983 C62.03323709 -0.02113404 66.69476612 -0.01885252 71.3563385 -0.01366425 C73.59871949 -0.01232653 75.84110426 -0.01397969 78.08348083 -0.01862335 C81.21302473 -0.02368136 84.34227949 -0.0159885 87.47180176 -0.00482178 C88.87293968 -0.01089447 88.87293968 -0.01089447 90.30238342 -0.01708984 C91.15207199 -0.0114502 92.00176056 -0.00581055 92.87719727 0 C93.98774853 0.00113108 93.98774853 0.00113108 95.12073517 0.002285 C96.93859863 0.25396729 96.93859863 0.25396729 98.93859863 2.25396729 C99.1973877 4.10162354 99.1973877 4.10162354 99.20422363 6.31646729 C99.20809082 7.51142822 99.20809082 7.51142822 99.21203613 8.73052979 C99.20430176 9.56326416 99.19656738 10.39599854 99.18859863 11.25396729 C99.2002002 12.50306885 99.2002002 12.50306885 99.21203613 13.77740479 C99.20945801 14.57404541 99.20687988 15.37068604 99.20422363 16.19146729 C99.20196777 16.92236572 99.19971191 17.65326416 99.1973877 18.40631104 C98.93859863 20.25396729 98.93859863 20.25396729 96.93859863 22.25396729 C95.12073517 22.50564957 95.12073517 22.50564957 92.87719727 22.50793457 C91.60266441 22.51639404 91.60266441 22.51639404 90.30238342 22.52502441 C89.36829147 22.52097595 88.43419952 22.51692749 87.47180176 22.51275635 C86.48961166 22.51626099 85.50742157 22.51976562 84.49546814 22.52337646 C81.23685719 22.53220554 77.97846194 22.52634044 74.71984863 22.51959229 C72.46305296 22.5209386 70.20625757 22.52287884 67.94946289 22.52539062 C63.21485641 22.52834349 58.48032528 22.52403902 53.74572754 22.51470947 C47.66560112 22.50331489 41.58565125 22.5098735 35.50553131 22.5218544 C30.84396017 22.52906861 26.18243115 22.52678709 21.52085876 22.52159882 C19.27847778 22.5202611 17.03609301 22.52191426 14.79371643 22.52655792 C11.66417254 22.53161593 8.53491777 22.52392307 5.40539551 22.51275635 C4.00425758 22.51882904 4.00425758 22.51882904 2.57481384 22.52502441 C1.72512527 22.51938477 0.87543671 22.51374512 0 22.50793457 C-0.74036751 22.50718052 -1.48073502 22.50642647 -2.2435379 22.50564957 C-4.06140137 22.25396729 -4.06140137 22.25396729 -6.06140137 20.25396729 C-6.32019043 18.40631104 -6.32019043 18.40631104 -6.32702637 16.19146729 C-6.32960449 15.39482666 -6.33218262 14.59818604 -6.33483887 13.77740479 C-6.32710449 12.94467041 -6.31937012 12.11193604 -6.31140137 11.25396729 C-6.31913574 10.42123291 -6.32687012 9.58849854 -6.33483887 8.73052979 C-6.33226074 7.93388916 -6.32968262 7.13724854 -6.32702637 6.31646729 C-6.32477051 5.58556885 -6.32251465 4.85467041 -6.32019043 4.10162354 C-5.77059058 0.17768802 -3.39456201 0.0034573 0 0 Z " fill="#D7D7D7" transform="translate(6.0614013671875,244.74603271484375)"/>
<path d="M0 0 C1.27453285 -0.00845947 1.27453285 -0.00845947 2.57481384 -0.01708984 C3.50890579 -0.01304138 4.44299774 -0.00899292 5.40539551 -0.00482178 C6.3875856 -0.00832642 7.3697757 -0.01183105 8.38172913 -0.01544189 C11.64034008 -0.02427097 14.89873533 -0.01840587 18.15734863 -0.01165771 C20.41414431 -0.01300403 22.6709397 -0.01494427 24.92773438 -0.01745605 C29.66234086 -0.02040891 34.39687199 -0.01610445 39.13146973 -0.0067749 C45.21159615 0.00461968 51.29154602 -0.00193893 57.37166595 -0.01391983 C62.03323709 -0.02113404 66.69476612 -0.01885252 71.3563385 -0.01366425 C73.59871949 -0.01232653 75.84110426 -0.01397969 78.08348083 -0.01862335 C81.21302473 -0.02368136 84.34227949 -0.0159885 87.47180176 -0.00482178 C88.87293968 -0.01089447 88.87293968 -0.01089447 90.30238342 -0.01708984 C91.15207199 -0.0114502 92.00176056 -0.00581055 92.87719727 0 C93.98774853 0.00113108 93.98774853 0.00113108 95.12073517 0.002285 C96.93859863 0.25396729 96.93859863 0.25396729 98.93859863 2.25396729 C99.1973877 4.10162354 99.1973877 4.10162354 99.20422363 6.31646729 C99.20809082 7.51142822 99.20809082 7.51142822 99.21203613 8.73052979 C99.20430176 9.56326416 99.19656738 10.39599854 99.18859863 11.25396729 C99.2002002 12.50306885 99.2002002 12.50306885 99.21203613 13.77740479 C99.20945801 14.57404541 99.20687988 15.37068604 99.20422363 16.19146729 C99.20196777 16.92236572 99.19971191 17.65326416 99.1973877 18.40631104 C98.93859863 20.25396729 98.93859863 20.25396729 96.93859863 22.25396729 C95.12073517 22.50564957 95.12073517 22.50564957 92.87719727 22.50793457 C91.60266441 22.51639404 91.60266441 22.51639404 90.30238342 22.52502441 C89.36829147 22.52097595 88.43419952 22.51692749 87.47180176 22.51275635 C86.48961166 22.51626099 85.50742157 22.51976562 84.49546814 22.52337646 C81.23685719 22.53220554 77.97846194 22.52634044 74.71984863 22.51959229 C72.46305296 22.5209386 70.20625757 22.52287884 67.94946289 22.52539062 C63.21485641 22.52834349 58.48032528 22.52403902 53.74572754 22.51470947 C47.66560112 22.50331489 41.58565125 22.5098735 35.50553131 22.5218544 C30.84396017 22.52906861 26.18243115 22.52678709 21.52085876 22.52159882 C19.27847778 22.5202611 17.03609301 22.52191426 14.79371643 22.52655792 C11.66417254 22.53161593 8.53491777 22.52392307 5.40539551 22.51275635 C4.00425758 22.51882904 4.00425758 22.51882904 2.57481384 22.52502441 C1.72512527 22.51938477 0.87543671 22.51374512 0 22.50793457 C-0.74036751 22.50718052 -1.48073502 22.50642647 -2.2435379 22.50564957 C-4.06140137 22.25396729 -4.06140137 22.25396729 -6.06140137 20.25396729 C-6.32019043 18.40631104 -6.32019043 18.40631104 -6.32702637 16.19146729 C-6.32960449 15.39482666 -6.33218262 14.59818604 -6.33483887 13.77740479 C-6.32710449 12.94467041 -6.31937012 12.11193604 -6.31140137 11.25396729 C-6.31913574 10.42123291 -6.32687012 9.58849854 -6.33483887 8.73052979 C-6.33226074 7.93388916 -6.32968262 7.13724854 -6.32702637 6.31646729 C-6.32477051 5.58556885 -6.32251465 4.85467041 -6.32019043 4.10162354 C-5.77059058 0.17768802 -3.39456201 0.0034573 0 0 Z " fill="#D8D8D8" transform="translate(120.0614013671875,204.74603271484375)"/>
<path d="M0 0 C0.70640625 0.25394531 1.4128125 0.50789062 2.140625 0.76953125 C32.91978239 11.09369585 69.41585702 10.65450704 100 0 C101.90120099 7.12950371 102.22424141 13.63740707 102 21 C76.81477453 35.04560651 36.38889837 33.21639763 9.1640625 25.98046875 C5.02908388 24.66925819 1.61673137 23.41115425 -2 21 C-3.03290723 13.88071471 -1.8337438 6.87653925 0 0 Z " fill="#D6D6D6" transform="translate(2,205)"/>
<path d="M0 0 C7.26532886 1.21088814 14.40054117 2.43168167 21.5625 4.0625 C22.34173828 4.23587891 23.12097656 4.40925781 23.92382812 4.58789062 C27.00205514 5.27989515 30.00485596 6.00161865 33 7 C33 20.53 33 34.06 33 48 C20.61539372 53.62936649 20.61539372 53.62936649 16.3671875 55.23828125 C15.0059375 55.75551758 15.0059375 55.75551758 13.6171875 56.28320312 C12.25980469 56.79270508 12.25980469 56.79270508 10.875 57.3125 C9.93140625 57.67150391 8.9878125 58.03050781 8.015625 58.40039062 C1.14275298 61 1.14275298 61 0 61 C0 40.87 0 20.74 0 0 Z " fill="#FEFEFE" transform="translate(252,108)"/>
<path d="M0 0 C0 20.13 0 40.26 0 61 C-7.68449274 58.43850242 -15.1986902 55.84327876 -22.6875 52.8125 C-23.57888672 52.45736328 -24.47027344 52.10222656 -25.38867188 51.73632812 C-31.86842315 49.13157685 -31.86842315 49.13157685 -33 48 C-33.08871273 44.97022196 -33.1151935 41.96332978 -33.09765625 38.93359375 C-33.0962413 38.02497086 -33.09482635 37.11634796 -33.09336853 36.18019104 C-33.08775193 33.26592779 -33.07519665 30.35174019 -33.0625 27.4375 C-33.05748714 25.46679798 -33.05292386 23.49609476 -33.04882812 21.52539062 C-33.03777711 16.68356441 -33.02050138 11.84179505 -33 7 C-28.95916652 6.01737335 -24.9171942 5.03951265 -20.875 4.0625 C-19.73289063 3.78470703 -18.59078125 3.50691406 -17.4140625 3.22070312 C-16.30546875 2.95322266 -15.196875 2.68574219 -14.0546875 2.41015625 C-12.53077393 2.04096069 -12.53077393 2.04096069 -10.97607422 1.66430664 C-3.5200294 0 -3.5200294 0 0 0 Z " fill="#FEFEFE" transform="translate(247,13)"/>
<path d="M0 0 C0.33 0 0.66 0 1 0 C1 22.77 1 45.54 1 69 C-5.23452068 70.78129162 -11.4798844 72.47662999 -17.75 74.125 C-18.79027344 74.40214844 -19.83054687 74.67929688 -20.90234375 74.96484375 C-21.89878906 75.22652344 -22.89523438 75.48820312 -23.921875 75.7578125 C-24.82518555 75.9964502 -25.72849609 76.23508789 -26.65917969 76.48095703 C-29 77 -29 77 -32 77 C-29.72708514 52.4933154 -17.60920746 17.93231219 0 0 Z " fill="#FEFEFE" transform="translate(37,112)"/>
<path d="M0 0 C17.89055026 17.54184237 26.03739622 45.37690076 32.1171875 69.05078125 C32.28847168 69.71762939 32.45975586 70.38447754 32.63623047 71.0715332 C33 73 33 73 33 77 C25.54535782 75.83030205 18.21473819 74.17088135 10.875 72.4375 C9.9260083 72.21553955 8.9770166 71.9935791 7.99926758 71.76489258 C7.11005615 71.55243896 6.22084473 71.33998535 5.3046875 71.12109375 C4.50015137 70.9295874 3.69561523 70.73808105 2.86669922 70.54077148 C1 70 1 70 0 69 C-0.09425595 66.85256451 -0.11742648 64.70198974 -0.11352539 62.55249023 C-0.11367142 61.87934784 -0.11381744 61.20620544 -0.1139679 60.51266479 C-0.11326878 58.27794216 -0.10547652 56.0433019 -0.09765625 53.80859375 C-0.09579206 52.26302638 -0.09436816 50.71745843 -0.09336853 49.17189026 C-0.0895434 45.09642923 -0.07971317 41.02100363 -0.06866455 36.94555664 C-0.05845032 32.78988118 -0.05387089 28.63420001 -0.04882812 24.47851562 C-0.03809089 16.31899413 -0.02101454 8.15950147 0 0 Z " fill="#FEFEFE" transform="translate(162,22)"/>
<path d="M0 0 C0.66 0 1.32 0 2 0 C2 13.2 2 26.4 2 40 C-1.465 40.495 -1.465 40.495 -5 41 C-5.763125 41.845625 -6.52625 42.69125 -7.3125 43.5625 C-10.83681731 46.75897384 -13.09219283 46.55941063 -17.6953125 46.56640625 C-20 46 -20 46 -21.8046875 44.08984375 C-23 42 -23 42 -23 40 C-23.99 39.67 -24.98 39.34 -26 39 C-26 32.73 -26 26.46 -26 20 C-23.69 19.34 -21.38 18.68 -19 18 C-9.56232162 14.29976486 -4.09274337 9.3223599 0 0 Z " fill="#D5D5D5" transform="translate(325,0)"/>
<path d="M0 0 C3.48758929 1.16252976 3.62939771 1.67298825 5.3125 4.75 C10.64033413 13.6403262 18.24588117 16.21310891 28 19 C28 25.27 28 31.54 28 38 C26.515 38.495 26.515 38.495 25 39 C23.84478498 41.47130918 23.84478498 41.47130918 23 44 C21.35843264 45.64156736 19.50784199 45.28815992 17.25 45.375 C12.39066268 45.35432197 12.39066268 45.35432197 9.3125 42.5625 C8.549375 41.716875 7.78625 40.87125 7 40 C4.69 39.67 2.38 39.34 0 39 C0 26.13 0 13.26 0 0 Z " fill="#D5D5D5" transform="translate(299,56)"/>
<path d="M0 0 C4.29 0 8.58 0 13 0 C13 1.32 13 2.64 13 4 C13.61488281 4.06058594 14.22976563 4.12117187 14.86328125 4.18359375 C16.07564453 4.30927734 16.07564453 4.30927734 17.3125 4.4375 C18.11300781 4.51871094 18.91351563 4.59992188 19.73828125 4.68359375 C22 5 22 5 25 6 C25 18.21 25 30.42 25 43 C24.34 43 23.68 43 23 43 C22.72027344 42.41992188 22.44054687 41.83984375 22.15234375 41.2421875 C17.85500764 32.8686001 12.96402345 28.20143695 4 25 C1.69 24.34 -0.62 23.68 -3 23 C-3 16.4 -3 9.8 -3 3 C-2.01 3 -1.02 3 0 3 C0 2.01 0 1.02 0 0 Z " fill="#D4D4D4" transform="translate(302,164)"/>
<path d="M0 0 C4.29 0 8.58 0 13 0 C13 0.99 13 1.98 13 3 C13.99 3 14.98 3 16 3 C16 9.6 16 16.2 16 23 C13.69 23.66 11.38 24.32 9 25 C-0.43767838 28.70023514 -5.90725663 33.6776401 -10 43 C-10.66 43 -11.32 43 -12 43 C-12 30.79 -12 18.58 -12 6 C-4.125 3.75 -4.125 3.75 0 4 C0 2.68 0 1.36 0 0 Z " fill="#D4D4D4" transform="translate(311,111)"/>
<path d="M0 0 C18.24354322 7.22691084 31.81395152 35.13531425 39.1953125 51.85546875 C46.28855945 68.61981713 51.508323 85.81697179 53 104 C47.7636253 103.41139564 42.7463403 102.57459613 37.609375 101.36328125 C36.17950415 101.03193794 34.74948428 100.70123728 33.31933594 100.37109375 C32.57453979 100.19819824 31.82974365 100.02530273 31.06237793 99.84716797 C11.80950097 95.39551823 -7.47788416 92.09874855 -27 89 C-27 66.56 -27 44.12 -27 21 C-23.7 20.34 -20.4 19.68 -17 19 C-8.36029432 14.49232747 -4.06201111 8.72580165 0 0 Z M1 3 C0.39865234 4.08667969 0.39865234 4.08667969 -0.21484375 5.1953125 C-6.99414911 16.72474339 -12.6469897 19.35826992 -26 23 C-26 44.12 -26 65.24 -26 87 C-18.430625 88.36125 -10.86125 89.7225 -3.0625 91.125 C13.47523464 94.12833946 29.90408467 97.21355943 46.14208984 101.59204102 C48.17133652 102.10723501 48.17133652 102.10723501 51 102 C48.22832528 70.8903406 34.9991426 38.27436054 14 15 C13.20207031 14.071875 12.40414062 13.14375 11.58203125 12.1875 C6.99882482 6.68645453 6.99882482 6.68645453 1 3 Z " fill="#C0C0C0" transform="translate(147,0)"/>
<path d="M0 0 C3 1 3 1 4.140625 3.07421875 C4.50671875 3.93660156 4.8728125 4.79898438 5.25 5.6875 C8.93765278 13.41611362 13.95637444 17.12727659 22 20 C24.31 20.66 26.62 21.32 29 22 C29 43.78 29 65.56 29 88 C27.515 87.505 27.515 87.505 26 87 C26.66 87 27.32 87 28 87 C28 65.88 28 44.76 28 23 C25.36 22.67 22.72 22.34 20 22 C12.26845994 19.34981205 6.88069089 15.05094111 2.84375 7.97265625 C2 6 2 6 2 3 C-23.91504694 19.23909598 -38.66947896 56.43847012 -45.54785156 84.94873047 C-46.47002011 89.13234827 -47.10397014 93.34344351 -47.640625 97.59375 C-48 100 -48 100 -49 102 C-48.3507959 101.82460693 -47.7015918 101.64921387 -47.03271484 101.46850586 C-31.70632349 97.37501476 -16.34634474 93.94882308 -0.75 91.0625 C0.48765106 90.82997025 0.48765106 90.82997025 1.75030518 90.59274292 C4.12890671 90.14812098 6.50923254 89.71455237 8.890625 89.28515625 C9.94233383 89.08879074 9.94233383 89.08879074 11.01528931 88.88845825 C15.76112204 88.0549822 20.20431698 87.88972745 25 88 C21.47025003 90.35316665 18.28921222 90.81839916 14.1953125 91.48046875 C12.5759578 91.75669802 10.9566566 92.03324114 9.33740234 92.31005859 C8.48635925 92.45304382 7.63531616 92.59602905 6.75848389 92.74334717 C-10.15877985 95.59654503 -26.77843084 99.05502981 -43.38916016 103.35498047 C-45.91530746 103.97907633 -48.44470871 104.51044295 -51 105 C-47.94610551 64.82549143 -29.15178525 27.45910094 0 0 Z " fill="#C4C4C4" transform="translate(51,90)"/>
<path d="M0 0 C0 19.14 0 38.28 0 58 C-2.31 58.66 -4.62 59.32 -7 60 C-15.49241996 63.32962721 -20.67034611 67.42102512 -24.8125 75.5625 C-25.90954094 78.73814483 -26.59402635 81.67101607 -27 85 C-31.51342842 84.39803926 -35.36735514 83.22405919 -39.5859375 81.5234375 C-40.20538239 81.27510162 -40.82482727 81.02676575 -41.46304321 80.77090454 C-42.77354789 80.24415983 -44.08288902 79.71451201 -45.39111328 79.18212891 C-47.3324324 78.3923183 -49.27710233 77.61134276 -51.22265625 76.83203125 C-60.5696454 73.06110236 -69.75845671 69.04317519 -79 65 C-79 48.83 -79 32.66 -79 16 C-68.8017817 13.28047512 -58.74097421 10.73128685 -48.4375 8.5625 C-47.39372192 8.34096756 -47.39372192 8.34096756 -46.32885742 8.11495972 C-7.96742757 0 -7.96742757 0 0 0 Z M-17.8125 4.5 C-18.55421448 4.62950043 -19.29592896 4.75900085 -20.06011963 4.89242554 C-39.47111156 8.30256279 -58.87625681 12.2190642 -78 17 C-78 32.18 -78 47.36 -78 63 C-67.7338679 68.14493713 -67.7338679 68.14493713 -57.2421875 72.6484375 C-56.10947922 73.10181992 -56.10947922 73.10181992 -54.95388794 73.56436157 C-53.38724479 74.19009609 -51.81960568 74.81334284 -50.25097656 75.43408203 C-47.8416894 76.38819144 -45.43633013 77.35174729 -43.03125 78.31640625 C-41.49761525 78.92763416 -39.963769 79.53833172 -38.4296875 80.1484375 C-37.35326492 80.57955338 -37.35326492 80.57955338 -36.25509644 81.01937866 C-32.73517745 82.49457011 -32.73517745 82.49457011 -29 83 C-28.52820313 81.67935547 -28.52820313 81.67935547 -28.046875 80.33203125 C-27.61890625 79.17058594 -27.1909375 78.00914063 -26.75 76.8125 C-26.33234375 75.66394531 -25.9146875 74.51539062 -25.484375 73.33203125 C-23.13020391 68.04753668 -20.25385726 64.78049719 -15.3125 61.8125 C-14.52488281 61.32394531 -13.73726563 60.83539063 -12.92578125 60.33203125 C-10 59 -10 59 -1 57 C-1 38.85 -1 20.7 -1 2 C-6.58235736 2 -12.3111516 3.53715539 -17.8125 4.5 Z " fill="#B9B9B9" transform="translate(289,0)"/>
<path d="M0 0 C19.69146379 3.10917849 39.16490616 6.50509076 58.625 10.8125 C59.53329559 11.01285858 60.44159119 11.21321716 61.37741089 11.41964722 C63.95320122 11.9899384 66.52771401 12.56554444 69.1015625 13.14453125 C69.87388718 13.31721527 70.64621185 13.48989929 71.44194031 13.66781616 C76.76209289 14.88104645 76.76209289 14.88104645 79 16 C79 32.17 79 48.34 79 65 C50.64569386 77.25016139 50.64569386 77.25016139 40.625 81.25 C39.92648926 81.53689697 39.22797852 81.82379395 38.50830078 82.11938477 C34.52862921 83.67799901 31.268504 84.29073402 27 84 C26.82984375 83.34773438 26.6596875 82.69546875 26.484375 82.0234375 C24.22410602 73.87204191 21.19550946 67.86755052 14 63 C11.37329725 61.54440841 8.72598784 60.26899434 6 59 C8.62219572 57.99099842 9.71051581 57.88583049 12.3671875 58.93359375 C21.23573487 64.25195938 25.98381066 70.11360161 29 80 C29 80.99 29 81.98 29 83 C35.19393139 80.47534096 41.38686117 77.94823728 47.57910156 75.41943359 C49.68564249 74.55949519 51.79241186 73.70011616 53.89941406 72.84130859 C56.92833763 71.60661543 59.95643333 70.36991137 62.984375 69.1328125 C63.92617615 68.74940704 64.86797729 68.36600159 65.83831787 67.97097778 C66.71892883 67.61075531 67.59953979 67.25053284 68.50683594 66.87939453 C69.27960876 66.56406769 70.05238159 66.24874084 70.84857178 65.92385864 C72.9346828 65.02804828 74.96936751 64.01531625 77 63 C77.33 47.82 77.66 32.64 78 17 C75.36 16.67 72.72 16.34 70 16 C68.4735703 15.73127047 66.95024367 15.44311645 65.43359375 15.1237793 C64.63074951 14.95657883 63.82790527 14.78937836 63.00073242 14.61711121 C62.15486572 14.4379567 61.30899902 14.25880219 60.4375 14.07421875 C58.56772365 13.68547318 56.69793143 13.29680398 54.828125 12.90820312 C51.94171127 12.30444707 49.05562112 11.69920289 46.16992188 11.09204102 C31.48460682 8.00878819 16.82060768 5.47010128 2 3 C1.67 20.82 1.34 38.64 1 57 C2.32 57.33 3.64 57.66 5 58 C3.35 58 1.7 58 0 58 C0 38.86 0 19.72 0 0 Z " fill="#B9B9B9" transform="translate(210,95)"/>
<path d="M0 0 C3.70263311 0.07893984 6.57887169 0.18610523 9.54614258 2.51220703 C11.79341188 5.46576098 12.65830987 7.87412912 13.73364258 11.38720703 C10.46297692 11.47427595 7.19260893 11.52761944 3.92114258 11.57470703 C2.99237305 11.59984375 2.06360352 11.62498047 1.10668945 11.65087891 C-0.23232422 11.66538086 -0.23232422 11.66538086 -1.59838867 11.68017578 C-2.42056885 11.69588623 -3.24274902 11.71159668 -4.08984375 11.7277832 C-6.81229594 11.30177975 -7.64839596 10.58928374 -9.26635742 8.38720703 C-10.01635742 4.76220703 -10.01635742 4.76220703 -10.26635742 1.38720703 C-8.07841984 -0.80073055 -3.02168043 0.01774328 0 0 Z " fill="#FEFEFE" transform="translate(15.266357421875,249.61279296875)"/>
<path d="M0 0 C1.05960938 0.00676758 1.05960938 0.00676758 2.140625 0.01367188 C3.88545275 0.02546125 5.630237 0.04339676 7.375 0.0625 C8.546875 4.71875 8.546875 4.71875 7 7.8125 C5.375 10.0625 5.375 10.0625 4.375 11.0625 C2.8862814 11.14919432 1.393555 11.16953494 -0.09765625 11.16015625 C-0.99677734 11.15693359 -1.89589844 11.15371094 -2.82226562 11.15039062 C-3.76779297 11.14201172 -4.71332031 11.13363281 -5.6875 11.125 C-6.63689453 11.12048828 -7.58628906 11.11597656 -8.56445312 11.11132812 C-10.91803065 11.0995011 -13.27148477 11.08302025 -15.625 11.0625 C-12.32943693 2.29394826 -9.12825109 -0.10947165 0 0 Z " fill="#FEFEFE" transform="translate(91.625,249.9375)"/>
<path d="M0 0 C1.15371094 -0.02578125 2.30742187 -0.0515625 3.49609375 -0.078125 C6.5625 0.25 6.5625 0.25 8.484375 1.5703125 C9.5625 3.25 9.5625 3.25 9.375 6.375 C9.106875 7.32375 8.83875 8.2725 8.5625 9.25 C5.73220852 10.66514574 3.27870867 10.45780992 0.125 10.5 C-1.02871094 10.52578125 -2.18242187 10.5515625 -3.37109375 10.578125 C-6.4375 10.25 -6.4375 10.25 -8.359375 8.9296875 C-9.4375 7.25 -9.4375 7.25 -9.25 4.125 C-8.981875 3.17625 -8.71375 2.2275 -8.4375 1.25 C-5.60720852 -0.16514574 -3.15370867 0.04219008 0 0 Z " fill="#FEFEFE" transform="translate(204.4375,210.75)"/>
<path d="M0 0 C1.15371094 -0.02578125 2.30742187 -0.0515625 3.49609375 -0.078125 C6.5625 0.25 6.5625 0.25 8.484375 1.5703125 C9.5625 3.25 9.5625 3.25 9.375 6.375 C9.106875 7.32375 8.83875 8.2725 8.5625 9.25 C5.73220852 10.66514574 3.27870867 10.45780992 0.125 10.5 C-1.02871094 10.52578125 -2.18242188 10.5515625 -3.37109375 10.578125 C-6.4375 10.25 -6.4375 10.25 -8.359375 8.9296875 C-9.4375 7.25 -9.4375 7.25 -9.25 4.125 C-8.981875 3.17625 -8.71375 2.2275 -8.4375 1.25 C-5.60720852 -0.16514574 -3.15370867 0.04219008 0 0 Z " fill="#FEFEFE" transform="translate(128.4375,210.75)"/>
<path d="M0 0 C0 0.33 0 0.66 0 1 C-0.556875 1.08636719 -1.11375 1.17273437 -1.6875 1.26171875 C-10.53280647 2.89033092 -16.82690593 6.60986561 -22 14 C-24.16009316 18.32018631 -25.41567467 22.20853233 -26 27 C-30.51342842 26.39803926 -34.36735514 25.22405919 -38.5859375 23.5234375 C-39.50844299 23.15392471 -39.50844299 23.15392471 -40.44958496 22.77694702 C-42.42730089 21.98252602 -44.40121511 21.17913236 -46.375 20.375 C-47.72922544 19.82819293 -49.08355517 19.28164405 -50.43798828 18.73535156 C-59.69819223 14.98887922 -68.90251049 11.12729556 -78 7 C-77.34 6.34 -76.68 5.68 -76 5 C-75.15127319 5.37584229 -75.15127319 5.37584229 -74.28540039 5.75927734 C-58.98810406 12.51551939 -43.56141495 18.8777988 -28 25 C-27.87238281 24.09378906 -27.74476563 23.18757813 -27.61328125 22.25390625 C-26.29822801 15.27658555 -22.57501399 8.45109655 -16.6640625 4.3984375 C-6.80590717 -1.70147679 -6.80590717 -1.70147679 0 0 Z " fill="#C4C4C4" transform="translate(288,58)"/>
<path d="M0 0 C3 1 3 1 4.140625 3.07421875 C4.50671875 3.93660156 4.8728125 4.79898438 5.25 5.6875 C8.93765278 13.41611362 13.95637444 17.12727659 22 20 C24.31 20.66 26.62 21.32 29 22 C29 43.78 29 65.56 29 88 C28.01 87.67 27.02 87.34 26 87 C26.66 87 27.32 87 28 87 C28 65.88 28 44.76 28 23 C25.36 22.67 22.72 22.34 20 22 C12.26845994 19.34981205 6.88069089 15.05094111 2.84375 7.97265625 C2 6 2 6 2 3 C-2.69165109 5.97519337 -6.84703191 9.31393365 -11 13 C-9.46356148 9.31930113 -7.21849055 7.01224796 -4.375 4.25 C-3.55773438 3.45078125 -2.74046875 2.6515625 -1.8984375 1.828125 C-0.95871094 0.92320313 -0.95871094 0.92320313 0 0 Z " fill="#BABABA" transform="translate(51,90)"/>
<path d="M0 0 C6.12228416 0.31396329 10.44820271 3.11590821 15 7 C18.75114848 11.24493024 20.89360544 15.13367235 22.07446289 20.66479492 C22.24933731 21.47631516 22.42421173 22.28783539 22.60438538 23.12394714 C22.7349382 23.74304459 22.86549103 24.36214203 23 25 C23.54013229 24.77893585 24.08026459 24.5578717 24.63676453 24.33010864 C30.26580279 22.02631352 35.89495379 19.72279406 41.52416992 17.41943359 C43.62413368 16.56012914 45.72406883 15.70075474 47.82397461 14.84130859 C50.84481378 13.60495852 53.86575626 12.36886119 56.88671875 11.1328125 C57.82335861 10.74940704 58.75999847 10.36600159 59.72502136 9.97097778 C60.60555679 9.61075531 61.48609222 9.25053284 62.39331055 8.87939453 C63.16386276 8.56406769 63.93441498 8.24874084 64.72831726 7.92385864 C67.1484258 6.9396375 69.57341011 5.96811849 72 5 C72.495 5.99 72.495 5.99 73 7 C45.87800135 18.75827618 45.87800135 18.75827618 34.625 23.25 C33.92648926 23.53689697 33.22797852 23.82379395 32.50830078 24.11938477 C28.52862921 25.67799901 25.268504 26.29073402 21 26 C20.82984375 25.34773438 20.6596875 24.69546875 20.484375 24.0234375 C18.22410602 15.87204191 15.19550946 9.86755052 8 5 C5.37329725 3.54440841 2.72598784 2.26899434 0 1 C0 0.67 0 0.34 0 0 Z " fill="#C4C4C4" transform="translate(216,153)"/>
</svg>
