<?xml version="1.0" encoding="UTF-8"?>
<svg version="1.1" xmlns="http://www.w3.org/2000/svg" width="334" height="270">
<path d="M0 0 C0.66483398 0.19295654 1.32966797 0.38591309 2.01464844 0.5847168 C5.97374586 1.85921364 7.90213356 2.98783126 10 6.5625 C10.65576172 9.60717773 10.65576172 9.60717773 11.0546875 13.30859375 C11.13097382 13.99666611 11.20726013 14.68473846 11.28585815 15.3936615 C11.54242324 17.78177423 11.77414471 20.17129004 12 22.5625 C12.08576294 23.46413879 12.17152588 24.36577759 12.2598877 25.29473877 C12.82694716 31.34891735 13.35250776 37.40612624 13.85986328 43.46557617 C14.12720627 46.65129032 14.40119132 49.83638753 14.67578125 53.02148438 C14.84935113 55.06767505 15.02254206 57.11389792 15.1953125 59.16015625 C15.27653351 60.10190201 15.35775452 61.04364777 15.44143677 62.01393127 C15.84488153 66.88415684 16.08624058 71.67567317 16 76.5625 C15.07703125 76.32015625 14.1540625 76.0778125 13.203125 75.828125 C5.34263873 73.79654511 -2.53947412 71.97305697 -10.5 70.375 C-11.32338867 70.20838867 -12.14677734 70.04177734 -12.99511719 69.87011719 C-37.9868641 64.94059886 -63.01399682 67.21139415 -87.27734375 74.4765625 C-90.19546176 75.32780784 -93.02174537 75.99487744 -96 76.5625 C-95.34388208 63.38459163 -94.44105409 50.23275776 -93.38037109 37.08129883 C-93.20858711 34.92447373 -93.04201029 32.76722823 -92.88037109 30.60961914 C-92.642855 27.44313454 -92.38958049 24.2782559 -92.1328125 21.11328125 C-92.06393829 20.15593582 -91.99506409 19.19859039 -91.92410278 18.2122345 C-91.45864676 12.73109062 -90.58932283 8.44336336 -88 3.5625 C-66.35732075 -11.81184944 -23.62448162 -7.02078903 0 0 Z " fill="#4083C9" transform="translate(96,5.4375)"/>
<path d="M0 0 C22.07940776 10.21294191 35.97183676 41.72942103 43.97265625 63.1640625 C48.72686025 76.4976068 53.07967359 90.74663099 53 105 C43.55404554 103.64393374 34.21728535 101.91444658 24.87109375 99.99609375 C23.46441041 99.70963972 22.05767616 99.42343557 20.65089417 99.13746643 C17.73196464 98.54346936 14.81344875 97.94749701 11.89526367 97.34985352 C8.16029108 96.58495181 4.42461033 95.82357959 0.68865871 95.06347561 C-2.89660676 94.33387635 -6.48151984 93.60255283 -10.06640625 92.87109375 C-11.08387027 92.66371488 -11.08387027 92.66371488 -12.12188911 92.45214653 C-14.04051966 92.06076544 -15.95886502 91.66798709 -17.87719727 91.27514648 C-18.96605728 91.0524559 -20.0549173 90.82976532 -21.17677307 90.60032654 C-23.46181359 90.11443911 -25.73362238 89.56659441 -28 89 C-28 66.89 -28 44.78 -28 22 C-23.71 21.01 -19.42 20.02 -15 19 C-7.21659783 15.17905712 -2.95715423 7.88574461 0 0 Z " fill="#4083C9" transform="translate(150,0)"/>
<path d="M0 0 C0.35191406 0.79664062 0.70382813 1.59328125 1.06640625 2.4140625 C4.52872687 9.84494384 7.52911354 15.58974932 15.234375 18.984375 C19.50890764 20.50484634 23.47533046 21.24588841 28 22 C28 44.11 28 66.22 28 89 C11.0663552 92.62863817 -5.86161404 96.25495449 -22.82763672 99.72509766 C-26.08508732 100.39243131 -29.34134553 101.06541005 -32.59765625 101.73828125 C-34.69003394 102.16700955 -36.78247911 102.59540866 -38.875 103.0234375 C-39.83833252 103.22335297 -40.80166504 103.42326843 -41.79418945 103.62924194 C-42.68452881 103.81008331 -43.57486816 103.99092468 -44.4921875 104.17724609 C-45.65790283 104.41657364 -45.65790283 104.41657364 -46.84716797 104.66073608 C-49 105 -49 105 -53 105 C-51.60237322 68.73158499 -33.36059423 29.98074717 -7.59765625 4.63671875 C-2.45916834 0 -2.45916834 0 0 0 Z " fill="#4083C9" transform="translate(53,92)"/>
<path d="M0 0 C14.62604392 2.2501606 14.62604392 2.2501606 20.28735352 3.40454102 C21.55478897 3.66143204 22.82222443 3.91832306 24.12806702 4.18299866 C25.46169923 4.45654124 26.79531187 4.7301793 28.12890625 5.00390625 C29.53558959 5.29036028 30.94232384 5.57656443 32.34910583 5.86253357 C35.26803536 6.45653064 38.18655125 7.05250299 41.10473633 7.65014648 C44.83970892 8.41504819 48.57538967 9.17642041 52.31134129 9.93652439 C55.89660676 10.66612365 59.48151984 11.39744717 63.06640625 12.12890625 C63.7447156 12.26715883 64.42302494 12.40541142 65.12188911 12.54785347 C67.04051966 12.93923456 68.95886502 13.33201291 70.87719727 13.72485352 C71.96605728 13.9475441 73.0549173 14.17023468 74.17677307 14.39967346 C76.46181359 14.88556089 78.73362238 15.43340559 81 16 C81 32.17 81 48.34 81 65 C74.998125 67.536875 68.99625 70.07375 62.8125 72.6875 C60.01422729 73.87218872 60.01422729 73.87218872 57.15942383 75.08081055 C31.31222971 86 31.31222971 86 28 86 C27.75765625 85.13117188 27.5153125 84.26234375 27.265625 83.3671875 C24.46881129 73.75045111 22.07035673 67.16312614 13 62 C6.565 60.515 6.565 60.515 0 59 C0 39.53 0 20.06 0 0 Z " fill="#4083C9" transform="translate(213,96)"/>
<path d="M0 0 C0 19.47 0 38.94 0 59 C-3.96 59.99 -7.92 60.98 -12 62 C-19.32508894 65.43363544 -22.40871573 69.09947939 -25.1875 76.5625 C-26.27542795 79.68758387 -27.21612831 82.78719403 -28 86 C-34.56962039 84.15141342 -40.84503528 81.97058188 -47.11328125 79.27734375 C-47.93072311 78.93119522 -48.74816498 78.58504669 -49.59037781 78.22840881 C-52.16652934 77.13633102 -54.73957033 76.03714388 -57.3125 74.9375 C-59.90397099 73.83596209 -62.49605512 72.73587636 -65.08818054 71.63587952 C-66.69142531 70.95487128 -68.29416457 70.27267132 -69.89631653 69.58909607 C-70.98851753 69.12334923 -70.98851753 69.12334923 -72.1027832 68.64819336 C-72.73658401 68.37744492 -73.37038483 68.10669647 -74.02339172 67.82774353 C-76.33793518 66.85848301 -78.67017512 65.93192995 -81 65 C-81 48.83 -81 32.66 -81 16 C-64.13613856 12.33813294 -47.25276424 8.78390365 -30.34860229 5.31317139 C-28.11567726 4.85428288 -25.8830309 4.3940363 -23.65066528 3.93243408 C-20.47623769 3.27653701 -17.30078319 2.62585983 -14.125 1.9765625 C-12.68132301 1.67697632 -12.68132301 1.67697632 -11.20848083 1.37133789 C-10.31726028 1.19030518 -9.42603973 1.00927246 -8.5078125 0.82275391 C-7.73066895 0.66320221 -6.95352539 0.50365051 -6.15283203 0.33926392 C-4 -0 -4 -0 0 0 Z " fill="#4083C9" transform="translate(294,0)"/>
<path d="M0 0 C24.42 0 48.84 0 74 0 C74 17.82 74 35.64 74 54 C49.58 54 25.16 54 0 54 C0 36.18 0 18.36 0 0 Z " fill="#4083C9" transform="translate(122,115)"/>
<path d="M0 0 C0.95976242 -0.00700928 1.91952484 -0.01401855 2.90837097 -0.02124023 C6.08178617 -0.03884947 9.25431006 -0.02718677 12.42773438 -0.01367188 C14.63204113 -0.01636594 16.83634673 -0.02024764 19.04064941 -0.02526855 C23.66084099 -0.03116759 28.28072327 -0.02258735 32.90087891 -0.00390625 C38.82624174 0.01888322 44.75087989 0.00576235 50.67621613 -0.01819611 C55.22810334 -0.03264295 59.77981845 -0.02805314 64.33171082 -0.01768494 C66.51661769 -0.01501458 68.70154014 -0.0182982 70.88642883 -0.02760315 C73.93903049 -0.03775012 76.99045489 -0.02229293 80.04296875 0 C80.94802658 -0.00809692 81.85308441 -0.01619385 82.78556824 -0.02453613 C88.86709984 0.05783905 88.86709984 0.05783905 92.08068848 2.31555176 C94.21886654 5.58341535 94.10349691 8.74500169 94.02148438 12.51757812 C94.0446875 13.58492188 94.0446875 13.58492188 94.06835938 14.67382812 C94.04483348 17.82629772 93.82265278 20.05729033 92.08068848 22.71960449 C88.21012413 25.43887672 84.66819094 25.0765349 80.04296875 25.03515625 C79.08320633 25.04216553 78.12344391 25.0491748 77.13459778 25.05639648 C73.96118258 25.07400572 70.78865869 25.06234302 67.61523438 25.04882812 C65.41092762 25.05152219 63.20662202 25.05540389 61.00231934 25.0604248 C56.38212776 25.06632384 51.76224548 25.0577436 47.14208984 25.0390625 C41.21672701 25.01627303 35.29208886 25.0293939 29.36675262 25.05335236 C24.81486541 25.0677992 20.2631503 25.06320939 15.71125793 25.05284119 C13.52635106 25.05017083 11.34142861 25.05345445 9.15653992 25.0627594 C6.10393826 25.07290637 3.05251386 25.05744918 0 25.03515625 C-1.35758675 25.04730164 -1.35758675 25.04730164 -2.74259949 25.05969238 C-8.82413109 24.9773172 -8.82413109 24.9773172 -12.03771973 22.71960449 C-14.17589779 19.4517409 -14.06052816 16.29015456 -13.97851562 12.51757812 C-13.99398438 11.80601562 -14.00945313 11.09445312 -14.02539062 10.36132812 C-14.00186473 7.20885853 -13.77968403 4.97786592 -12.03771973 2.31555176 C-8.16715538 -0.40372047 -4.62522219 -0.04137865 0 0 Z " fill="#4083C9" transform="translate(13.478515625,245.482421875)"/>
<path d="M0 0 C0.95976242 -0.00700928 1.91952484 -0.01401855 2.90837097 -0.02124023 C6.08178617 -0.03884947 9.25431006 -0.02718677 12.42773438 -0.01367188 C14.63204113 -0.01636594 16.83634673 -0.02024764 19.04064941 -0.02526855 C23.66084099 -0.03116759 28.28072327 -0.02258735 32.90087891 -0.00390625 C38.82624174 0.01888322 44.75087989 0.00576235 50.67621613 -0.01819611 C55.22810334 -0.03264295 59.77981845 -0.02805314 64.33171082 -0.01768494 C66.51661769 -0.01501458 68.70154014 -0.0182982 70.88642883 -0.02760315 C73.93903049 -0.03775012 76.99045489 -0.02229293 80.04296875 0 C80.94802658 -0.00809692 81.85308441 -0.01619385 82.78556824 -0.02453613 C88.86709984 0.05783905 88.86709984 0.05783905 92.08068848 2.31555176 C94.21886654 5.58341535 94.10349691 8.74500169 94.02148438 12.51757812 C94.0446875 13.58492187 94.0446875 13.58492187 94.06835938 14.67382812 C94.04483348 17.82629772 93.82265278 20.05729033 92.08068848 22.71960449 C88.21012413 25.43887672 84.66819094 25.0765349 80.04296875 25.03515625 C79.08320633 25.04216553 78.12344391 25.0491748 77.13459778 25.05639648 C73.96118258 25.07400572 70.78865869 25.06234302 67.61523438 25.04882812 C65.41092762 25.05152219 63.20662202 25.05540389 61.00231934 25.0604248 C56.38212776 25.06632384 51.76224548 25.0577436 47.14208984 25.0390625 C41.21672701 25.01627303 35.29208886 25.0293939 29.36675262 25.05335236 C24.81486541 25.0677992 20.2631503 25.06320939 15.71125793 25.05284119 C13.52635106 25.05017083 11.34142861 25.05345445 9.15653992 25.0627594 C6.10393826 25.07290637 3.05251386 25.05744918 0 25.03515625 C-1.35758675 25.04730164 -1.35758675 25.04730164 -2.74259949 25.05969238 C-8.82413109 24.9773172 -8.82413109 24.9773172 -12.03771973 22.71960449 C-14.17589779 19.4517409 -14.06052816 16.29015456 -13.97851562 12.51757812 C-13.99398437 11.80601562 -14.00945312 11.09445313 -14.02539062 10.36132812 C-14.00186473 7.20885853 -13.77968403 4.97786592 -12.03771973 2.31555176 C-8.16715538 -0.40372047 -4.62522219 -0.04137865 0 0 Z " fill="#4083C9" transform="translate(129.478515625,206.482421875)"/>
<path d="M0 0 C7.19636145 1.39284415 14.34608877 2.9514911 21.48974609 4.59082031 C44.90731962 9.88771317 70.99346223 8.38202264 93.68896484 0.48168945 C96.41328744 -0.08614157 98.33061929 0.29739161 101 1 C102.32168136 5.46067459 103.21186418 9.65619715 103.4375 14.3125 C103.49744141 15.54419922 103.49744141 15.54419922 103.55859375 16.80078125 C103 19 103 19 101.01953125 20.6328125 C71.63381239 33.93811858 31.9270531 32.27050118 1.95703125 22.18359375 C-1 21 -1 21 -3 19 C-3.9866265 12.22174784 -2.53739967 6.25287775 0 0 Z " fill="#4083C9" transform="translate(3,207)"/>
<path d="M0 0 C0 19.8 0 39.6 0 60 C-19.28970775 53.19186785 -19.28970775 53.19186785 -25.5 50.6875 C-26.13035156 50.43677734 -26.76070312 50.18605469 -27.41015625 49.92773438 C-31.86786562 48.13213438 -31.86786562 48.13213438 -33 47 C-33.08871273 43.97022196 -33.1151935 40.96332978 -33.09765625 37.93359375 C-33.0962413 37.02497086 -33.09482635 36.11634796 -33.09336853 35.18019104 C-33.08775193 32.26592779 -33.07519665 29.35174019 -33.0625 26.4375 C-33.05748714 24.46679798 -33.05292386 22.49609476 -33.04882812 20.52539062 C-33.03777711 15.68356441 -33.02050138 10.84179505 -33 6 C-28.89987924 4.79131033 -24.84956092 3.69825136 -20.64453125 2.9296875 C-19.69255859 2.75566406 -18.74058594 2.58164062 -17.75976562 2.40234375 C-16.78716797 2.22832031 -15.81457031 2.05429687 -14.8125 1.875 C-13.33620117 1.60236328 -13.33620117 1.60236328 -11.83007812 1.32421875 C-10.40791992 1.06705078 -10.40791992 1.06705078 -8.95703125 0.8046875 C-8.10085205 0.64983887 -7.24467285 0.49499023 -6.36254883 0.33544922 C-4 0 -4 0 0 0 Z " fill="#FDFDFE" transform="translate(251,14)"/>
<path d="M0 0 C11.06797181 1.58113883 22.05948081 3.6967328 33 6 C33 19.53 33 33.06 33 47 C26.503125 49.660625 26.503125 49.660625 19.875 52.375 C18.52003418 52.93106934 17.16506836 53.48713867 15.76904297 54.06005859 C14.14699951 54.72255615 14.14699951 54.72255615 12.4921875 55.3984375 C11.39245605 55.84880371 10.29272461 56.29916992 9.15966797 56.76318359 C6.14420649 57.943552 3.07207581 58.97597473 0 60 C0 40.2 0 20.4 0 0 Z " fill="#FEFEFE" transform="translate(256,110)"/>
<path d="M0 0 C16.92849107 16.59993916 32.45084304 49.81410265 33.07421875 73.86328125 C33.03748047 74.92095703 33.03748047 74.92095703 33 76 C32.030625 75.81824219 31.06125 75.63648437 30.0625 75.44921875 C29.10162476 75.26915283 29.10162476 75.26915283 28.12133789 75.08544922 C26.69594916 74.81805555 25.2706575 74.55014394 23.84545898 74.28173828 C20.03579592 73.56504829 16.22486896 72.85731555 12.41015625 72.16796875 C11.68119141 72.03495361 10.95222656 71.90193848 10.20117188 71.76489258 C8.79028316 71.50767919 7.37882975 71.25354181 5.96679688 71.00268555 C1.11243241 70.11243241 1.11243241 70.11243241 0 69 C-0.09425595 66.85256451 -0.11742648 64.70198974 -0.11352539 62.55249023 C-0.11367142 61.87934784 -0.11381744 61.20620544 -0.1139679 60.51266479 C-0.11326878 58.27794216 -0.10547652 56.0433019 -0.09765625 53.80859375 C-0.09579206 52.26302638 -0.09436816 50.71745843 -0.09336853 49.17189026 C-0.0895434 45.09642923 -0.07971317 41.02100363 -0.06866455 36.94555664 C-0.05845032 32.78988118 -0.05387089 28.63420001 -0.04882812 24.47851562 C-0.03809089 16.31899413 -0.02101454 8.15950147 0 0 Z " fill="#FCFDFE" transform="translate(165,23)"/>
<path d="M0 0 C0.33 0 0.66 0 1 0 C1 22.77 1 45.54 1 69 C-17.40540541 73.60135135 -17.40540541 73.60135135 -24.5 74.75 C-25.23863281 74.87503906 -25.97726563 75.00007813 -26.73828125 75.12890625 C-28.49125263 75.42486246 -30.24547949 75.71337041 -32 76 C-28.74767675 48.52514983 -17.37584369 21.62681462 0 0 Z " fill="#FCFDFE" transform="translate(37,115)"/>
<path d="M0 0 C0.33 0 0.66 0 1 0 C1 14.19 1 28.38 1 43 C-1.64 43.33 -4.28 43.66 -7 44 C-7.78375 44.845625 -8.5675 45.69125 -9.375 46.5625 C-12.84713481 49.78662518 -15.11388001 49.55944359 -19.6953125 49.56640625 C-22 49 -22 49 -23.8046875 47.08984375 C-25 45 -25 45 -25 43 C-26.32 43 -27.64 43 -29 43 C-29 35.74 -29 28.48 -29 21 C-26.999375 20.443125 -24.99875 19.88625 -22.9375 19.3125 C-12.4716163 16.01998956 -8.09098846 11.26004988 -1.8203125 2.44921875 C-1.21960938 1.64097656 -0.61890625 0.83273438 0 0 Z " fill="#4082C9" transform="translate(333,59)"/>
<path d="M0 0 C3.35412998 3.35412998 5.63083404 5.76687336 8.1875 9.5 C13.92171999 16.99188307 21.06604341 18.76651085 30 21 C30 28.26 30 35.52 30 43 C28.68 43 27.36 43 26 43 C25.690625 43.804375 25.38125 44.60875 25.0625 45.4375 C24 48 24 48 23 49 C19.62003597 49.43814349 16.37452602 49.49189799 13 49 C10.375 46.5625 10.375 46.5625 8 44 C4.04 43.505 4.04 43.505 0 43 C0 28.81 0 14.62 0 0 Z " fill="#4083C9" transform="translate(304,0)"/>
<path d="M0 0 C4.95 0 9.9 0 15 0 C15.33 1.32 15.66 2.64 16 4 C19.63 4.99 23.26 5.98 27 7 C27 19.54 27 32.08 27 45 C26.34 45 25.68 45 25 45 C23.8775463 43.50142065 22.82685628 41.948761 21.8125 40.375 C16.00733029 31.93003089 10.99686667 28.32757867 1 26 C-0.32 25.67 -1.64 25.34 -3 25 C-3 17.74 -3 10.48 -3 3 C-2.01 3 -1.02 3 0 3 C0 2.01 0 1.02 0 0 Z " fill="#4083C8" transform="translate(307,173)"/>
<path d="M0 0 C4.95 0 9.9 0 15 0 C15 0.99 15 1.98 15 3 C15.99 3 16.98 3 18 3 C18 10.26 18 17.52 18 25 C16.14375 25.4125 14.2875 25.825 12.375 26.25 C1.2206715 29.08761932 -4.16303229 36.24868133 -11 45 C-12 44 -12 44 -12.11352539 40.48999023 C-12.11336626 38.92951578 -12.10767142 37.36903607 -12.09765625 35.80859375 C-12.0962413 34.98875504 -12.09482635 34.16891632 -12.09336853 33.32423401 C-12.08775289 30.69528618 -12.07519779 28.06642227 -12.0625 25.4375 C-12.05748701 23.65950643 -12.05292376 21.88151154 -12.04882812 20.10351562 C-12.03777839 15.73564455 -12.02050331 11.36783652 -12 7 C-8.37 6.01 -4.74 5.02 -1 4 C-0.67 2.68 -0.34 1.36 0 0 Z " fill="#4083C8" transform="translate(316,118)"/>
<path d="M0 0 C1.171875 4.65625 1.171875 4.65625 -0.375 7.75 C-2 10 -2 10 -3 11 C-4.56172745 11.08685603 -6.12729344 11.10702219 -7.69140625 11.09765625 C-8.63564453 11.09443359 -9.57988281 11.09121094 -10.55273438 11.08789062 C-11.54595703 11.07951172 -12.53917969 11.07113281 -13.5625 11.0625 C-14.55958984 11.05798828 -15.55667969 11.05347656 -16.58398438 11.04882812 C-19.05604849 11.03700007 -21.52799518 11.02051849 -24 11 C-23.15542306 6.34697582 -22.25016118 4.18275426 -18.5859375 1.16015625 C-12.87922838 -1.40010449 -6.11214411 -0.39622543 0 0 Z " fill="#FBFCFE" transform="translate(101,252)"/>
<path d="M0 0 C5.21797112 0.10540173 8.36288351 0.89750101 12.09741211 4.75878906 C13.29079655 6.66470707 13.83259466 8.24131576 14.16381836 10.46191406 C11.86164586 12.76408656 6.37939562 11.69481543 3.28881836 11.71191406 C1.90243164 11.74285156 1.90243164 11.74285156 0.48803711 11.77441406 C-0.40012695 11.77957031 -1.28829102 11.78472656 -2.20336914 11.79003906 C-3.01918457 11.79938477 -3.835 11.80873047 -4.67553711 11.81835938 C-7.37877641 11.37240125 -8.22387075 10.64964776 -9.83618164 8.46191406 C-10.58618164 4.83691406 -10.58618164 4.83691406 -10.83618164 1.46191406 C-8.57112588 -0.8031417 -3.13525808 0.03461696 0 0 Z " fill="#FBFCFE" transform="translate(16.836181640625,251.5380859375)"/>
<path d="M0 0 C1.73056641 -0.02513672 1.73056641 -0.02513672 3.49609375 -0.05078125 C6.5625 0.3125 6.5625 0.3125 8.484375 1.63671875 C9.5625 3.3125 9.5625 3.3125 9.375 6.4375 C9.106875 7.38625 8.83875 8.335 8.5625 9.3125 C5.73220852 10.72764574 3.27870867 10.52030992 0.125 10.5625 C-1.02871094 10.58828125 -2.18242187 10.6140625 -3.37109375 10.640625 C-6.4375 10.3125 -6.4375 10.3125 -8.359375 8.95703125 C-9.4375 7.3125 -9.4375 7.3125 -9.25 4.75 C-7.55009277 -0.3497217 -4.89535997 0.01637244 0 0 Z " fill="#FAFCFD" transform="translate(207.4375,213.6875)"/>
<path d="M0 0 C1.73056641 -0.02513672 1.73056641 -0.02513672 3.49609375 -0.05078125 C6.5625 0.3125 6.5625 0.3125 8.484375 1.63671875 C9.5625 3.3125 9.5625 3.3125 9.375 6.4375 C9.106875 7.38625 8.83875 8.335 8.5625 9.3125 C5.73220852 10.72764574 3.27870867 10.52030992 0.125 10.5625 C-1.02871094 10.58828125 -2.18242187 10.6140625 -3.37109375 10.640625 C-6.4375 10.3125 -6.4375 10.3125 -8.359375 8.95703125 C-9.4375 7.3125 -9.4375 7.3125 -9.25 4.75 C-7.55009277 -0.3497217 -4.89535997 0.01637244 0 0 Z " fill="#FAFCFD" transform="translate(131.4375,213.6875)"/>
</svg>
